Yantramanav-Bold.ufo
<glyph name="exclam" format="1">
  <advance width="735"/>
  <unicode hex="0021"/>
  <outline>
    <contour>
      <point x="495" y="453" type="line"/>
      <point x="231" y="453" type="line"/>
      <point x="231" y="1310" type="line"/>
      <point x="495" y="1310" type="line"/>
    </contour>
    <contour>
      <point x="495" y="0" type="line"/>
      <point x="231" y="0" type="line"/>
      <point x="231" y="232" type="line"/>
      <point x="495" y="232" type="line"/>
    </contour>
  </outline>
</glyph>
<glyph name="quotedbl" format="1">
  <advance width="987"/>
  <unicode hex="0022"/>
  <outline>
    <contour>
      <point x="437" y="1098" type="line"/>
      <point x="315" y="886" type="line"/>
      <point x="201" y="886" type="line"/>
      <point x="174" y="1085" type="line"/>
      <point x="174" y="1404" type="line"/>
      <point x="437" y="1404" type="line"/>
    </contour>
    <contour>
      <point x="793" y="1098" type="line"/>
      <point x="671" y="886" type="line"/>
      <point x="557" y="886" type="line"/>
      <point x="529" y="1097" type="line"/>
      <point x="529" y="1404" type="line"/>
      <point x="793" y="1404" type="line"/>
    </contour>
  </outline>
</glyph>
<glyph name="numbersign" format="1">
  <advance width="1097"/>
  <unicode hex="0023"/>
  <outline>
    <contour>
      <point x="585" y="369" type="line"/>
      <point x="412" y="369" type="line"/>
      <point x="348" y="0" type="line"/>
      <point x="183" y="0" type="line"/>
      <point x="248" y="369" type="line"/>
      <point x="43" y="369" type="line"/>
      <point x="43" y="521" type="line"/>
      <point x="274" y="521" type="line"/>
      <point x="320" y="782" type="line"/>
      <point x="111" y="782" type="line"/>
      <point x="111" y="936" type="line"/>
      <point x="347" y="936" type="line"/>
      <point x="412" y="1310" type="line"/>
      <point x="577" y="1310" type="line"/>
      <point x="511" y="936" type="line"/>
      <point x="684" y="936" type="line"/>
      <point x="751" y="1310" type="line"/>
      <point x="915" y="1310" type="line"/>
      <point x="850" y="936" type="line"/>
      <point x="1048" y="936" type="line"/>
      <point x="1048" y="782" type="line"/>
      <point x="823" y="782" type="line"/>
      <point x="777" y="521" type="line"/>
      <point x="979" y="521" type="line"/>
      <point x="979" y="369" type="line"/>
      <point x="751" y="369" type="line"/>
      <point x="686" y="0" type="line"/>
      <point x="520" y="0" type="line"/>
    </contour>
    <contour>
      <point x="439" y="521" type="line"/>
      <point x="611" y="521" type="line"/>
      <point x="657" y="782" type="line"/>
      <point x="484" y="782" type="line"/>
    </contour>
  </outline>
</glyph>
<glyph name="dollar" format="1">
  <advance width="1058"/>
  <unicode hex="0024"/>
  <outline>
    <contour>
      <point x="710" y="323" type="qcurve" smooth="yes"/>
      <point x="710" y="396"/>
      <point x="626" y="488"/>
      <point x="525" y="528" type="qcurve" smooth="yes"/>
      <point x="325" y="601"/>
      <point x="131" y="780"/>
      <point x="131" y="943" type="qcurve" smooth="yes"/>
      <point x="131" y="1094"/>
      <point x="325" y="1287"/>
      <point x="489" y="1304" type="qcurve"/>
      <point x="489" y="1498" type="line"/>
      <point x="632" y="1498" type="line"/>
      <point x="632" y="1303" type="line"/>
      <point x="790" y="1279"/>
      <point x="971" y="1061"/>
      <point x="969" y="888" type="qcurve"/>
      <point x="967" y="883" type="line"/>
      <point x="710" y="883" type="line"/>
      <point x="710" y="989"/>
      <point x="623" y="1105"/>
      <point x="547" y="1105" type="qcurve" smooth="yes"/>
      <point x="470" y="1105"/>
      <point x="394" y="1015"/>
      <point x="394" y="942" type="qcurve" smooth="yes"/>
      <point x="394" y="871"/>
      <point x="474" y="784"/>
      <point x="581" y="742" type="qcurve" smooth="yes"/>
      <point x="780" y="664"/>
      <point x="972" y="485"/>
      <point x="972" y="325" type="qcurve" smooth="yes"/>
      <point x="972" y="169"/>
      <point x="779" y="-19"/>
      <point x="614" y="-36" type="qcurve"/>
      <point x="614" y="-214" type="line"/>
      <point x="471" y="-214" type="line"/>
      <point x="471" y="-37" type="line"/>
      <point x="302" y="-20"/>
      <point x="83" y="185"/>
      <point x="86" y="383" type="qcurve"/>
      <point x="88" y="387" type="line"/>
      <point x="345" y="387" type="line"/>
      <point x="345" y="267"/>
      <point x="455" y="162"/>
      <point x="541" y="162" type="qcurve" smooth="yes"/>
      <point x="623" y="162"/>
      <point x="710" y="250"/>
    </contour>
  </outline>
</glyph>
<glyph name="percent" format="1">
  <advance width="1362"/>
  <unicode hex="0025"/>
  <outline>
    <contour>
      <point x="86" y="1056" type="line" smooth="yes"/>
      <point x="86" y="1173"/>
      <point x="236" y="1327"/>
      <point x="370" y="1327" type="qcurve" smooth="yes"/>
      <point x="506" y="1327"/>
      <point x="655" y="1173"/>
      <point x="655" y="1056" type="qcurve" smooth="yes"/>
      <point x="655" y="987" type="line" smooth="yes"/>
      <point x="655" y="871"/>
      <point x="506" y="718"/>
      <point x="372" y="718" type="qcurve" smooth="yes"/>
      <point x="237" y="718"/>
      <point x="86" y="871"/>
      <point x="86" y="987" type="qcurve" smooth="yes"/>
    </contour>
    <contour>
      <point x="260" y="987" type="line" smooth="yes"/>
      <point x="260" y="935"/>
      <point x="318" y="864"/>
      <point x="372" y="864" type="qcurve" smooth="yes"/>
      <point x="424" y="864"/>
      <point x="481" y="935"/>
      <point x="481" y="987" type="qcurve" smooth="yes"/>
      <point x="481" y="1056" type="line" smooth="yes"/>
      <point x="481" y="1109"/>
      <point x="423" y="1182"/>
      <point x="370" y="1182" type="qcurve" smooth="yes"/>
      <point x="317" y="1182"/>
      <point x="260" y="1109"/>
      <point x="260" y="1056" type="qcurve" smooth="yes"/>
    </contour>
    <contour>
      <point x="712" y="319" type="line" smooth="yes"/>
      <point x="712" y="435"/>
      <point x="863" y="589"/>
      <point x="997" y="589" type="qcurve" smooth="yes"/>
      <point x="1132" y="589"/>
      <point x="1283" y="435"/>
      <point x="1283" y="319" type="qcurve" smooth="yes"/>
      <point x="1283" y="250" type="line" smooth="yes"/>
      <point x="1283" y="133"/>
      <point x="1133" y="-20"/>
      <point x="999" y="-20" type="qcurve" smooth="yes"/>
      <point x="864" y="-20"/>
      <point x="712" y="134"/>
      <point x="712" y="250" type="qcurve" smooth="yes"/>
    </contour>
    <contour>
      <point x="887" y="250" type="line" smooth="yes"/>
      <point x="887" y="199"/>
      <point x="949" y="126"/>
      <point x="999" y="126" type="qcurve" smooth="yes"/>
      <point x="1058" y="126"/>
      <point x="1108" y="193"/>
      <point x="1108" y="250" type="qcurve" smooth="yes"/>
      <point x="1108" y="319" type="line" smooth="yes"/>
      <point x="1108" y="371"/>
      <point x="1050" y="444"/>
      <point x="997" y="444" type="qcurve" smooth="yes"/>
      <point x="943" y="444"/>
      <point x="887" y="371"/>
      <point x="887" y="319" type="qcurve" smooth="yes"/>
    </contour>
    <contour>
      <point x="415" y="96" type="line"/>
      <point x="287" y="164" type="line"/>
      <point x="927" y="1188" type="line"/>
      <point x="1055" y="1120" type="line"/>
    </contour>
  </outline>
</glyph>
<glyph name="ampersand" format="1">
  <advance width="1211"/>
  <unicode hex="0026"/>
  <outline>
    <contour>
      <point x="55" y="351" type="qcurve" smooth="yes"/>
      <point x="55" y="457"/>
      <point x="172" y="611"/>
      <point x="292" y="695" type="qcurve"/>
      <point x="230" y="777"/>
      <point x="170" y="914"/>
      <point x="170" y="985" type="qcurve" smooth="yes"/>
      <point x="170" y="1141"/>
      <point x="365" y="1327"/>
      <point x="527" y="1327" type="qcurve" smooth="yes"/>
      <point x="671" y="1327"/>
      <point x="850" y="1150"/>
      <point x="850" y="1024" type="qcurve" smooth="yes"/>
      <point x="850" y="936"/>
      <point x="761" y="790"/>
      <point x="685" y="735" type="qcurve" smooth="yes"/>
      <point x="601" y="676" type="line"/>
      <point x="850" y="386" type="line"/>
      <point x="882" y="440"/>
      <point x="918" y="566"/>
      <point x="918" y="636" type="qcurve"/>
      <point x="1114" y="636" type="line"/>
      <point x="1114" y="512"/>
      <point x="1053" y="303"/>
      <point x="990" y="222" type="qcurve"/>
      <point x="1177" y="2" type="line"/>
      <point x="1175" y="-2" type="line"/>
      <point x="884" y="-2" type="line"/>
      <point x="815" y="78" type="line"/>
      <point x="738" y="29"/>
      <point x="576" y="-21"/>
      <point x="483" y="-21" type="qcurve" smooth="yes"/>
      <point x="287" y="-21"/>
      <point x="55" y="185"/>
    </contour>
    <contour>
      <point x="497" y="181" type="qcurve" smooth="yes"/>
      <point x="545" y="181"/>
      <point x="640" y="205"/>
      <point x="684" y="229" type="qcurve"/>
      <point x="414" y="542" type="line"/>
      <point x="397" y="531" type="line"/>
      <point x="351" y="488"/>
      <point x="318" y="406"/>
      <point x="318" y="364" type="qcurve" smooth="yes"/>
      <point x="318" y="284"/>
      <point x="417" y="181"/>
    </contour>
    <contour>
      <point x="405" y="988" type="qcurve" smooth="yes"/>
      <point x="405" y="949"/>
      <point x="444" y="867"/>
      <point x="482" y="818" type="qcurve"/>
      <point x="560" y="868" type="line" smooth="yes"/>
      <point x="610" y="901"/>
      <point x="645" y="969"/>
      <point x="645" y="1010" type="qcurve" smooth="yes"/>
      <point x="645" y="1055"/>
      <point x="580" y="1125"/>
      <point x="527" y="1125" type="qcurve" smooth="yes"/>
      <point x="468" y="1125"/>
      <point x="405" y="1046"/>
    </contour>
  </outline>
</glyph>
<glyph name="quotesingle" format="1">
  <advance width="632"/>
  <unicode hex="0027"/>
  <outline>
    <contour>
      <point x="437" y="1170" type="line"/>
      <point x="315" y="908" type="line"/>
      <point x="201" y="908" type="line"/>
      <point x="174" y="1146" type="line"/>
      <point x="174" y="1404" type="line"/>
      <point x="437" y="1404" type="line"/>
    </contour>
  </outline>
</glyph>
<glyph name="asterisk" format="1">
  <advance width="817"/>
  <unicode hex="002A"/>
  <outline>
    <contour>
      <point x="296" y="927" type="line"/>
      <point x="24" y="1007" type="line"/>
      <point x="76" y="1167" type="line"/>
      <point x="343" y="1056" type="line"/>
      <point x="327" y="1368" type="line"/>
      <point x="495" y="1368" type="line"/>
      <point x="478" y="1051" type="line"/>
      <point x="740" y="1159" type="line"/>
      <point x="790" y="997" type="line"/>
      <point x="515" y="917" type="line"/>
      <point x="695" y="678" type="line"/>
      <point x="558" y="579" type="line"/>
      <point x="401" y="840" type="line"/>
      <point x="246" y="587" type="line"/>
      <point x="108" y="683" type="line"/>
    </contour>
  </outline>
</glyph>
<glyph name="plus" format="1">
  <advance width="1005"/>
  <unicode hex="002B"/>
  <outline>
    <contour>
      <point x="625" y="745" type="line"/>
      <point x="949" y="745" type="line"/>
      <point x="949" y="519" type="line"/>
      <point x="625" y="519" type="line"/>
      <point x="625" y="146" type="line"/>
      <point x="376" y="146" type="line"/>
      <point x="376" y="519" type="line"/>
      <point x="50" y="519" type="line"/>
      <point x="50" y="745" type="line"/>
      <point x="376" y="745" type="line"/>
      <point x="376" y="1100" type="line"/>
      <point x="625" y="1100" type="line"/>
    </contour>
  </outline>
</glyph>
<glyph name="comma" format="1">
  <advance width="475"/>
  <unicode hex="002C"/>
  <outline>
    <contour>
      <point x="375" y="-18" type="line"/>
      <point x="232" y="-302" type="line"/>
      <point x="57" y="-302" type="line"/>
      <point x="120" y="-10" type="line"/>
      <point x="120" y="195" type="line"/>
      <point x="375" y="195" type="line"/>
    </contour>
  </outline>
</glyph>
<glyph name="hyphen" format="1">
  <advance width="721"/>
  <unicode hex="002D"/>
  <outline>
    <contour>
      <point x="609" y="510" type="line"/>
      <point x="102" y="510" type="line"/>
      <point x="102" y="713" type="line"/>
      <point x="609" y="713" type="line"/>
    </contour>
  </outline>
</glyph>
<glyph name="period" format="1">
  <advance width="536"/>
  <unicode hex="002E"/>
  <outline>
    <contour>
      <point x="392" y="0" type="line"/>
      <point x="130" y="0" type="line"/>
      <point x="130" y="230" type="line"/>
      <point x="392" y="230" type="line"/>
    </contour>
  </outline>
</glyph>
<glyph name="slash" format="1">
  <advance width="743"/>
  <unicode hex="002F"/>
  <outline>
    <contour>
      <point x="243" y="-125" type="line"/>
      <point x="-13" y="-125" type="line"/>
      <point x="468" y="1298" type="line"/>
      <point x="724" y="1298" type="line"/>
    </contour>
  </outline>
</glyph>
<glyph name="zero" format="1">
  <advance width="1058"/>
  <unicode hex="0030"/>
  <outline>
    <contour>
      <point x="972" y="508" type="line" smooth="yes"/>
      <point x="972" y="248"/>
      <point x="734" y="-21"/>
      <point x="530" y="-21" type="qcurve" smooth="yes"/>
      <point x="325" y="-21"/>
      <point x="86" y="248"/>
      <point x="86" y="508" type="qcurve" smooth="yes"/>
      <point x="86" y="797" type="line" smooth="yes"/>
      <point x="86" y="1056"/>
      <point x="324" y="1327"/>
      <point x="528" y="1327" type="qcurve" smooth="yes"/>
      <point x="732" y="1327"/>
      <point x="972" y="1056"/>
      <point x="972" y="797" type="qcurve" smooth="yes"/>
    </contour>
    <contour>
      <point x="710" y="824" type="line" smooth="yes"/>
      <point x="710" y="980"/>
      <point x="617" y="1125"/>
      <point x="528" y="1125" type="qcurve" smooth="yes"/>
      <point x="439" y="1125"/>
      <point x="347" y="981"/>
      <point x="347" y="824" type="qcurve" smooth="yes"/>
      <point x="347" y="483" type="line" smooth="yes"/>
      <point x="347" y="325"/>
      <point x="440" y="181"/>
      <point x="530" y="181" type="qcurve" smooth="yes"/>
      <point x="618" y="181"/>
      <point x="710" y="325"/>
      <point x="710" y="483" type="qcurve" smooth="yes"/>
    </contour>
  </outline>
</glyph>
<glyph name="one" format="1">
  <advance width="1058"/>
  <unicode hex="0031"/>
  <outline>
    <contour>
      <point x="683" y="0" type="line"/>
      <point x="420" y="0" type="line"/>
      <point x="420" y="1078" type="line"/>
      <point x="154" y="1078" type="line"/>
      <point x="154" y="1264" type="line"/>
      <point x="683" y="1310" type="line"/>
    </contour>
  </outline>
</glyph>
<glyph name="two" format="1">
  <advance width="1058"/>
  <unicode hex="0032"/>
  <outline>
    <contour>
      <point x="984" y="0" type="line"/>
      <point x="89" y="0" type="line"/>
      <point x="89" y="172" type="line"/>
      <point x="513" y="626" type="line" smooth="yes"/>
      <point x="605" y="732"/>
      <point x="682" y="877"/>
      <point x="682" y="939" type="qcurve" smooth="yes"/>
      <point x="682" y="1022"/>
      <point x="593" y="1127"/>
      <point x="511" y="1127" type="qcurve" smooth="yes"/>
      <point x="420" y="1127"/>
      <point x="326" y="1004"/>
      <point x="326" y="901" type="qcurve"/>
      <point x="70" y="901" type="line"/>
      <point x="68" y="906" type="line"/>
      <point x="64" y="1084"/>
      <point x="306" y="1329"/>
      <point x="511" y="1329" type="qcurve" smooth="yes"/>
      <point x="714" y="1329"/>
      <point x="945" y="1119"/>
      <point x="945" y="943" type="qcurve" smooth="yes"/>
      <point x="945" y="824"/>
      <point x="815" y="624"/>
      <point x="664" y="461" type="qcurve" smooth="yes"/>
      <point x="431" y="206" type="line"/>
      <point x="433" y="202" type="line"/>
      <point x="984" y="202" type="line"/>
    </contour>
  </outline>
</glyph>
<glyph name="three" format="1">
  <advance width="1058"/>
  <unicode hex="0033"/>
  <outline>
    <contour>
      <point x="355" y="765" type="line"/>
      <point x="502" y="765" type="line" smooth="yes"/>
      <point x="596" y="765"/>
      <point x="686" y="863"/>
      <point x="686" y="950" type="qcurve" smooth="yes"/>
      <point x="686" y="1029"/>
      <point x="596" y="1125"/>
      <point x="510" y="1125" type="qcurve" smooth="yes"/>
      <point x="437" y="1125"/>
      <point x="336" y="1038"/>
      <point x="336" y="968" type="qcurve"/>
      <point x="81" y="968" type="line"/>
      <point x="79" y="974" type="line"/>
      <point x="74" y="1127"/>
      <point x="320" y="1327"/>
      <point x="503" y="1327" type="qcurve" smooth="yes"/>
      <point x="707" y="1327"/>
      <point x="949" y="1133"/>
      <point x="949" y="953" type="qcurve" smooth="yes"/>
      <point x="949" y="867"/>
      <point x="841" y="713"/>
      <point x="746" y="670" type="qcurve"/>
      <point x="855" y="632"/>
      <point x="969" y="471"/>
      <point x="969" y="365" type="qcurve" smooth="yes"/>
      <point x="969" y="185"/>
      <point x="707" y="-21"/>
      <point x="503" y="-21" type="qcurve" smooth="yes"/>
      <point x="320" y="-21"/>
      <point x="59" y="173"/>
      <point x="63" y="349" type="qcurve"/>
      <point x="65" y="354" type="line"/>
      <point x="320" y="354" type="line"/>
      <point x="320" y="279"/>
      <point x="428" y="181"/>
      <point x="510" y="181" type="qcurve" smooth="yes"/>
      <point x="601" y="181"/>
      <point x="707" y="281"/>
      <point x="707" y="368" type="qcurve" smooth="yes"/>
      <point x="707" y="471"/>
      <point x="603" y="568"/>
      <point x="502" y="568" type="qcurve" smooth="yes"/>
      <point x="355" y="568" type="line"/>
    </contour>
  </outline>
</glyph>
<glyph name="four" format="1">
  <advance width="1058"/>
  <unicode hex="0034"/>
  <outline>
    <contour>
      <point x="860" y="488" type="line"/>
      <point x="1008" y="488" type="line"/>
      <point x="1008" y="284" type="line"/>
      <point x="860" y="284" type="line"/>
      <point x="860" y="0" type="line"/>
      <point x="598" y="0" type="line"/>
      <point x="598" y="284" type="line"/>
      <point x="63" y="284" type="line"/>
      <point x="51" y="442" type="line"/>
      <point x="595" y="1310" type="line"/>
      <point x="860" y="1310" type="line"/>
    </contour>
    <contour>
      <point x="296" y="488" type="line"/>
      <point x="598" y="488" type="line"/>
      <point x="598" y="959" type="line"/>
      <point x="592" y="961" type="line"/>
      <point x="572" y="924" type="line"/>
    </contour>
  </outline>
</glyph>
<glyph name="five" format="1">
  <advance width="1058"/>
  <unicode hex="0035"/>
  <outline>
    <contour>
      <point x="122" y="578" type="line"/>
      <point x="198" y="1308" type="line"/>
      <point x="929" y="1308" type="line"/>
      <point x="929" y="1098" type="line"/>
      <point x="413" y="1098" type="line"/>
      <point x="377" y="795" type="line"/>
      <point x="413" y="822"/>
      <point x="516" y="857"/>
      <point x="578" y="858" type="qcurve" smooth="yes"/>
      <point x="767" y="861"/>
      <point x="975" y="627"/>
      <point x="975" y="418" type="qcurve" smooth="yes"/>
      <point x="975" y="229"/>
      <point x="747" y="-21"/>
      <point x="533" y="-21" type="qcurve" smooth="yes"/>
      <point x="352" y="-21"/>
      <point x="95" y="176"/>
      <point x="99" y="349" type="qcurve"/>
      <point x="101" y="353" type="line"/>
      <point x="354" y="366" type="line"/>
      <point x="354" y="279"/>
      <point x="453" y="181"/>
      <point x="533" y="181" type="qcurve" smooth="yes"/>
      <point x="625" y="181"/>
      <point x="712" y="311"/>
      <point x="712" y="416" type="qcurve" smooth="yes"/>
      <point x="712" y="530"/>
      <point x="618" y="667"/>
      <point x="527" y="667" type="qcurve" smooth="yes"/>
      <point x="451" y="667"/>
      <point x="371" y="611"/>
      <point x="354" y="563" type="qcurve"/>
    </contour>
  </outline>
</glyph>
<glyph name="six" format="1">
  <advance width="1058"/>
  <unicode hex="0036"/>
  <outline>
    <contour>
      <point x="616" y="1327" type="qcurve" smooth="yes"/>
      <point x="689" y="1327"/>
      <point x="815" y="1299"/>
      <point x="878" y="1272" type="qcurve"/>
      <point x="831" y="1080" type="line"/>
      <point x="771" y="1100"/>
      <point x="679" y="1121"/>
      <point x="617" y="1121" type="qcurve" smooth="yes"/>
      <point x="498" y="1121"/>
      <point x="353" y="942"/>
      <point x="358" y="784" type="qcurve"/>
      <point x="361" y="779" type="line"/>
      <point x="405" y="825"/>
      <point x="540" y="877"/>
      <point x="625" y="877" type="qcurve" smooth="yes"/>
      <point x="800" y="877"/>
      <point x="999" y="628"/>
      <point x="999" y="434" type="qcurve" smooth="yes"/>
      <point x="999" y="236"/>
      <point x="753" y="-21"/>
      <point x="558" y="-21" type="qcurve" smooth="yes"/>
      <point x="350" y="-21"/>
      <point x="89" y="261"/>
      <point x="89" y="510" type="qcurve" smooth="yes"/>
      <point x="89" y="766" type="line" smooth="yes"/>
      <point x="89" y="1023"/>
      <point x="386" y="1327"/>
    </contour>
    <contour>
      <point x="555" y="678" type="qcurve" smooth="yes"/>
      <point x="482" y="678"/>
      <point x="380" y="632"/>
      <point x="352" y="591" type="qcurve"/>
      <point x="352" y="504" type="line" smooth="yes"/>
      <point x="352" y="348"/>
      <point x="464" y="181"/>
      <point x="558" y="181" type="qcurve" smooth="yes"/>
      <point x="639" y="181"/>
      <point x="737" y="329"/>
      <point x="737" y="434" type="qcurve" smooth="yes"/>
      <point x="737" y="543"/>
      <point x="638" y="678"/>
    </contour>
  </outline>
</glyph>
<glyph name="seven" format="1">
  <advance width="1058"/>
  <unicode hex="0037"/>
  <outline>
    <contour>
      <point x="980" y="1108" type="line"/>
      <point x="770" y="861"/>
      <point x="616" y="435"/>
      <point x="582" y="133" type="qcurve" smooth="yes"/>
      <point x="570" y="0" type="line"/>
      <point x="307" y="0" type="line"/>
      <point x="320" y="133" type="line" smooth="yes"/>
      <point x="350" y="422"/>
      <point x="552" y="905"/>
      <point x="727" y="1108" type="qcurve"/>
      <point x="54" y="1108" type="line"/>
      <point x="54" y="1310" type="line"/>
      <point x="980" y="1310" type="line"/>
    </contour>
  </outline>
</glyph>
<glyph name="eight" format="1">
  <advance width="1058"/>
  <unicode hex="0038"/>
  <outline>
    <contour>
      <point x="945" y="961" type="qcurve" smooth="yes"/>
      <point x="945" y="863"/>
      <point x="842" y="712"/>
      <point x="751" y="669" type="qcurve"/>
      <point x="855" y="625"/>
      <point x="976" y="461"/>
      <point x="976" y="356" type="qcurve" smooth="yes"/>
      <point x="976" y="174"/>
      <point x="729" y="-21"/>
      <point x="530" y="-21" type="qcurve" smooth="yes"/>
      <point x="329" y="-21"/>
      <point x="82" y="174"/>
      <point x="82" y="356" type="qcurve" smooth="yes"/>
      <point x="82" y="462"/>
      <point x="202" y="625"/>
      <point x="307" y="670" type="qcurve"/>
      <point x="215" y="713"/>
      <point x="113" y="863"/>
      <point x="113" y="961" type="qcurve" smooth="yes"/>
      <point x="113" y="1136"/>
      <point x="341" y="1327"/>
      <point x="528" y="1327" type="qcurve" smooth="yes"/>
      <point x="715" y="1327"/>
      <point x="945" y="1136"/>
    </contour>
    <contour>
      <point x="713" y="374" type="qcurve" smooth="yes"/>
      <point x="713" y="462"/>
      <point x="610" y="569"/>
      <point x="528" y="569" type="qcurve" smooth="yes"/>
      <point x="446" y="569"/>
      <point x="346" y="462"/>
      <point x="346" y="374" type="qcurve" smooth="yes"/>
      <point x="346" y="284"/>
      <point x="446" y="181"/>
      <point x="530" y="181" type="qcurve" smooth="yes"/>
      <point x="612" y="181"/>
      <point x="713" y="285"/>
    </contour>
    <contour>
      <point x="683" y="949" type="qcurve" smooth="yes"/>
      <point x="683" y="1028"/>
      <point x="599" y="1125"/>
      <point x="528" y="1125" type="qcurve" smooth="yes"/>
      <point x="456" y="1125"/>
      <point x="375" y="1030"/>
      <point x="375" y="949" type="qcurve" smooth="yes"/>
      <point x="375" y="867"/>
      <point x="457" y="771"/>
      <point x="530" y="771" type="qcurve" smooth="yes"/>
      <point x="601" y="771"/>
      <point x="683" y="867"/>
    </contour>
  </outline>
</glyph>
<glyph name="nine" format="1">
  <advance width="1058"/>
  <unicode hex="0039"/>
  <outline>
    <contour>
      <point x="468" y="181" type="qcurve" smooth="yes"/>
      <point x="572" y="181"/>
      <point x="702" y="335"/>
      <point x="702" y="478" type="qcurve" smooth="yes"/>
      <point x="702" y="542" type="line"/>
      <point x="658" y="487"/>
      <point x="536" y="429"/>
      <point x="466" y="429" type="qcurve" smooth="yes"/>
      <point x="284" y="429"/>
      <point x="74" y="668"/>
      <point x="74" y="871" type="qcurve" smooth="yes"/>
      <point x="74" y="1067"/>
      <point x="322" y="1327"/>
      <point x="514" y="1327" type="qcurve" smooth="yes"/>
      <point x="715" y="1327"/>
      <point x="965" y="1051"/>
      <point x="965" y="801" type="qcurve" smooth="yes"/>
      <point x="965" y="491" type="line" smooth="yes"/>
      <point x="965" y="253"/>
      <point x="685" y="-21"/>
      <point x="468" y="-21" type="qcurve" smooth="yes"/>
      <point x="400" y="-21"/>
      <point x="255" y="7"/>
      <point x="193" y="34" type="qcurve"/>
      <point x="223" y="224" type="line"/>
      <point x="282" y="201"/>
      <point x="396" y="181"/>
    </contour>
    <contour>
      <point x="510" y="622" type="qcurve" smooth="yes"/>
      <point x="575" y="622"/>
      <point x="672" y="670"/>
      <point x="702" y="711" type="qcurve"/>
      <point x="702" y="831" type="line" smooth="yes"/>
      <point x="702" y="975"/>
      <point x="601" y="1125"/>
      <point x="515" y="1125" type="qcurve" smooth="yes"/>
      <point x="436" y="1125"/>
      <point x="336" y="977"/>
      <point x="336" y="871" type="qcurve" smooth="yes"/>
      <point x="336" y="759"/>
      <point x="427" y="622"/>
    </contour>
  </outline>
</glyph>
<glyph name="less" format="1">
  <advance width="939"/>
  <unicode hex="003C"/>
  <outline>
    <contour>
      <point x="305" y="502" type="line"/>
      <point x="305" y="497" type="line"/>
      <point x="824" y="314" type="line"/>
      <point x="824" y="69" type="line"/>
      <point x="49" y="399" type="line"/>
      <point x="49" y="604" type="line"/>
      <point x="824" y="933" type="line"/>
      <point x="824" y="688" type="line"/>
    </contour>
  </outline>
</glyph>
<glyph name="equal" format="1">
  <advance width="1063"/>
  <unicode hex="003D"/>
  <outline>
    <contour>
      <point x="929" y="720" type="line"/>
      <point x="122" y="720" type="line"/>
      <point x="122" y="926" type="line"/>
      <point x="929" y="926" type="line"/>
    </contour>
    <contour>
      <point x="929" y="332" type="line"/>
      <point x="122" y="332" type="line"/>
      <point x="122" y="538" type="line"/>
      <point x="929" y="538" type="line"/>
    </contour>
  </outline>
</glyph>
<glyph name="greater" format="1">
  <advance width="952"/>
  <unicode hex="003E"/>
  <outline>
    <contour>
      <point x="635" y="500" type="line"/>
      <point x="635" y="506" type="line"/>
      <point x="107" y="691" type="line"/>
      <point x="107" y="933" type="line"/>
      <point x="892" y="604" type="line"/>
      <point x="892" y="399" type="line"/>
      <point x="107" y="69" type="line"/>
      <point x="107" y="312" type="line"/>
    </contour>
  </outline>
</glyph>
<glyph name="question" format="1">
  <advance width="1180"/>
  <unicode hex="003F"/>
  <outline>
    <contour>
      <point x="427" y="372" type="line"/>
      <point x="428" y="499"/>
      <point x="502" y="617"/>
      <point x="611" y="699" type="qcurve"/>
      <point x="681" y="759"/>
      <point x="752" y="872"/>
      <point x="752" y="947" type="qcurve"/>
      <point x="752" y="1028"/>
      <point x="664" y="1123"/>
      <point x="583" y="1123" type="qcurve"/>
      <point x="516" y="1123"/>
      <point x="424" y="1044"/>
      <point x="423" y="967" type="qcurve"/>
      <point x="168" y="967" type="line"/>
      <point x="166" y="972" type="line"/>
      <point x="163" y="1146"/>
      <point x="395" y="1329"/>
      <point x="583" y="1329" type="qcurve"/>
      <point x="785" y="1329"/>
      <point x="1015" y="1124"/>
      <point x="1015" y="948" type="qcurve"/>
      <point x="1015" y="834"/>
      <point x="883" y="644"/>
      <point x="779" y="575" type="qcurve"/>
      <point x="725" y="533"/>
      <point x="691" y="450"/>
      <point x="691" y="372" type="qcurve"/>
    </contour>
    <contour>
      <point x="692" y="0" type="line"/>
      <point x="428" y="0" type="line"/>
      <point x="428" y="225" type="line"/>
      <point x="692" y="225" type="line"/>
    </contour>
  </outline>
</glyph>
<glyph name="at" format="1">
  <advance width="1635"/>
  <unicode hex="0040"/>
  <outline>
    <contour>
      <point x="1557" y="416" type="qcurve" smooth="yes"/>
      <point x="1549" y="220"/>
      <point x="1335" y="-64"/>
      <point x="1121" y="-64" type="qcurve" smooth="yes"/>
      <point x="1051" y="-64"/>
      <point x="949" y="15"/>
      <point x="927" y="86" type="qcurve"/>
      <point x="887" y="12"/>
      <point x="770" y="-62"/>
      <point x="690" y="-62" type="qcurve" smooth="yes"/>
      <point x="563" y="-62"/>
      <point x="428" y="153"/>
      <point x="446" y="329" type="qcurve" smooth="yes"/>
      <point x="468" y="558"/>
      <point x="681" y="833"/>
      <point x="833" y="833" type="qcurve" smooth="yes"/>
      <point x="938" y="833"/>
      <point x="1065" y="786"/>
      <point x="1140" y="738" type="qcurve"/>
      <point x="1138" y="734" type="line"/>
      <point x="1142" y="734" type="line"/>
      <point x="1096" y="218" type="line" smooth="yes"/>
      <point x="1090" y="133"/>
      <point x="1128" y="70"/>
      <point x="1160" y="70" type="qcurve" smooth="yes"/>
      <point x="1264" y="70"/>
      <point x="1389" y="266"/>
      <point x="1396" y="416" type="qcurve" smooth="yes"/>
      <point x="1410" y="734"/>
      <point x="1136" y="1091"/>
      <point x="849" y="1091" type="qcurve" smooth="yes"/>
      <point x="576" y="1091"/>
      <point x="250" y="707"/>
      <point x="237" y="385" type="qcurve" smooth="yes"/>
      <point x="221" y="65"/>
      <point x="515" y="-304"/>
      <point x="790" y="-304" type="qcurve" smooth="yes"/>
      <point x="867" y="-304"/>
      <point x="1030" y="-268"/>
      <point x="1088" y="-241" type="qcurve"/>
      <point x="1122" y="-373" type="line"/>
      <point x="1062" y="-411"/>
      <point x="876" y="-453"/>
      <point x="787" y="-453" type="qcurve" smooth="yes"/>
      <point x="430" y="-453"/>
      <point x="44" y="-5"/>
      <point x="59" y="385" type="qcurve" smooth="yes"/>
      <point x="76" y="769"/>
      <point x="503" y="1231"/>
      <point x="852" y="1231" type="qcurve" smooth="yes"/>
      <point x="1201" y="1231"/>
      <point x="1571" y="794"/>
    </contour>
    <contour>
      <point x="648" y="329" type="qcurve" smooth="yes"/>
      <point x="639" y="215"/>
      <point x="690" y="97"/>
      <point x="748" y="97" type="qcurve" smooth="yes"/>
      <point x="798" y="97"/>
      <point x="880" y="144"/>
      <point x="913" y="207" type="qcurve"/>
      <point x="913" y="210"/>
      <point x="913" y="215"/>
      <point x="914" y="218" type="qcurve"/>
      <point x="953" y="665" type="line"/>
      <point x="932" y="671"/>
      <point x="891" y="678"/>
      <point x="869" y="678" type="qcurve" smooth="yes"/>
      <point x="769" y="678"/>
      <point x="664" y="505"/>
    </contour>
  </outline>
</glyph>
<glyph name="A" format="1">
  <advance width="1180"/>
  <unicode hex="0041"/>
  <outline>
    <contour>
      <point x="825" y="283" type="line"/>
      <point x="365" y="283" type="line"/>
      <point x="276" y="0" type="line"/>
      <point x="11" y="0" type="line"/>
      <point x="462" y="1310" type="line"/>
      <point x="731" y="1310" type="line"/>
      <point x="1180" y="0" type="line"/>
      <point x="914" y="0" type="line"/>
    </contour>
    <contour>
      <point x="430" y="489" type="line"/>
      <point x="761" y="489" type="line"/>
      <point x="599" y="1004" type="line"/>
      <point x="593" y="1004" type="line"/>
    </contour>
  </outline>
</glyph>
<glyph name="B" format="1">
  <advance width="1183"/>
  <unicode hex="0042"/>
  <outline>
    <contour>
      <point x="122" y="0" type="line"/>
      <point x="122" y="1310" type="line"/>
      <point x="565" y="1310" type="line" smooth="yes"/>
      <point x="797" y="1310"/>
      <point x="1056" y="1130"/>
      <point x="1056" y="951" type="qcurve" smooth="yes"/>
      <point x="1056" y="860"/>
      <point x="959" y="717"/>
      <point x="868" y="681" type="qcurve"/>
      <point x="986" y="656"/>
      <point x="1103" y="491"/>
      <point x="1103" y="382" type="qcurve" smooth="yes"/>
      <point x="1103" y="194"/>
      <point x="855" y="0"/>
      <point x="627" y="0" type="qcurve" smooth="yes"/>
    </contour>
    <contour>
      <point x="385" y="580" type="line"/>
      <point x="385" y="202" type="line"/>
      <point x="627" y="202" type="line" smooth="yes"/>
      <point x="732" y="202"/>
      <point x="842" y="293"/>
      <point x="842" y="382" type="qcurve" smooth="yes"/>
      <point x="842" y="478"/>
      <point x="748" y="580"/>
      <point x="647" y="580" type="qcurve" smooth="yes"/>
    </contour>
    <contour>
      <point x="385" y="761" type="line"/>
      <point x="574" y="761" type="line" smooth="yes"/>
      <point x="680" y="761"/>
      <point x="793" y="848"/>
      <point x="793" y="931" type="qcurve" smooth="yes"/>
      <point x="793" y="1022"/>
      <point x="679" y="1108"/>
      <point x="565" y="1108" type="qcurve" smooth="yes"/>
      <point x="385" y="1108" type="line"/>
    </contour>
  </outline>
</glyph>
<glyph name="C" format="1">
  <advance width="1178"/>
  <unicode hex="0043"/>
  <outline>
    <contour>
      <point x="1112" y="443" type="line"/>
      <point x="1113" y="438" type="line"/>
      <point x="1117" y="227"/>
      <point x="851" y="-21"/>
      <point x="616" y="-21" type="qcurve" smooth="yes"/>
      <point x="379" y="-21"/>
      <point x="84" y="283"/>
      <point x="84" y="523" type="qcurve" smooth="yes"/>
      <point x="84" y="783" type="line" smooth="yes"/>
      <point x="84" y="1021"/>
      <point x="372" y="1327"/>
      <point x="602" y="1327" type="qcurve" smooth="yes"/>
      <point x="845" y="1327"/>
      <point x="1119" y="1078"/>
      <point x="1115" y="863" type="qcurve"/>
      <point x="1113" y="857" type="line"/>
      <point x="858" y="857" type="line"/>
      <point x="858" y="987"/>
      <point x="734" y="1125"/>
      <point x="602" y="1125" type="qcurve" smooth="yes"/>
      <point x="484" y="1125"/>
      <point x="346" y="933"/>
      <point x="346" y="785" type="qcurve" smooth="yes"/>
      <point x="346" y="523" type="line" smooth="yes"/>
      <point x="346" y="372"/>
      <point x="491" y="181"/>
      <point x="616" y="181" type="qcurve" smooth="yes"/>
      <point x="739" y="181"/>
      <point x="857" y="313"/>
      <point x="857" y="443" type="qcurve"/>
    </contour>
  </outline>
</glyph>
<glyph name="D" format="1">
  <advance width="1208"/>
  <unicode hex="0044"/>
  <outline>
    <contour>
      <point x="122" y="0" type="line"/>
      <point x="122" y="1310" type="line"/>
      <point x="572" y="1310" type="line" smooth="yes"/>
      <point x="813" y="1310"/>
      <point x="1124" y="1004"/>
      <point x="1124" y="763" type="qcurve" smooth="yes"/>
      <point x="1124" y="546" type="line" smooth="yes"/>
      <point x="1124" y="305"/>
      <point x="813" y="0"/>
      <point x="572" y="0" type="qcurve" smooth="yes"/>
    </contour>
    <contour>
      <point x="385" y="1108" type="line"/>
      <point x="385" y="202" type="line"/>
      <point x="559" y="202" type="line" smooth="yes"/>
      <point x="700" y="202"/>
      <point x="860" y="392"/>
      <point x="860" y="546" type="qcurve" smooth="yes"/>
      <point x="860" y="765" type="line" smooth="yes"/>
      <point x="860" y="917"/>
      <point x="700" y="1108"/>
      <point x="559" y="1108" type="qcurve" smooth="yes"/>
    </contour>
  </outline>
</glyph>
<glyph name="E" format="1">
  <advance width="1058"/>
  <unicode hex="0045"/>
  <outline>
    <contour>
      <point x="928" y="576" type="line"/>
      <point x="385" y="576" type="line"/>
      <point x="385" y="202" type="line"/>
      <point x="1020" y="202" type="line"/>
      <point x="1020" y="0" type="line"/>
      <point x="122" y="0" type="line"/>
      <point x="122" y="1310" type="line"/>
      <point x="1018" y="1310" type="line"/>
      <point x="1018" y="1108" type="line"/>
      <point x="385" y="1108" type="line"/>
      <point x="385" y="779" type="line"/>
      <point x="928" y="779" type="line"/>
    </contour>
  </outline>
</glyph>
<glyph name="F" format="1">
  <advance width="1064"/>
  <unicode hex="0046"/>
  <outline>
    <contour>
      <point x="934" y="545" type="line"/>
      <point x="385" y="545" type="line"/>
      <point x="385" y="0" type="line"/>
      <point x="122" y="0" type="line"/>
      <point x="122" y="1310" type="line"/>
      <point x="1026" y="1310" type="line"/>
      <point x="1026" y="1108" type="line"/>
      <point x="385" y="1108" type="line"/>
      <point x="385" y="747" type="line"/>
      <point x="934" y="747" type="line"/>
    </contour>
  </outline>
</glyph>
<glyph name="G" format="1">
  <advance width="1232"/>
  <unicode hex="0047"/>
  <outline>
    <contour>
      <point x="1129" y="177" type="line"/>
      <point x="1070" y="100"/>
      <point x="823" y="-21"/>
      <point x="634" y="-21" type="qcurve" smooth="yes"/>
      <point x="393" y="-21"/>
      <point x="89" y="278"/>
      <point x="89" y="516" type="qcurve" smooth="yes"/>
      <point x="89" y="790" type="line" smooth="yes"/>
      <point x="89" y="1028"/>
      <point x="382" y="1327"/>
      <point x="612" y="1327" type="qcurve" smooth="yes"/>
      <point x="851" y="1327"/>
      <point x="1106" y="1094"/>
      <point x="1109" y="904" type="qcurve"/>
      <point x="1107" y="899" type="line"/>
      <point x="860" y="899" type="line"/>
      <point x="852" y="1003"/>
      <point x="734" y="1125"/>
      <point x="619" y="1125" type="qcurve" smooth="yes"/>
      <point x="499" y="1125"/>
      <point x="351" y="938"/>
      <point x="351" y="792" type="qcurve" smooth="yes"/>
      <point x="351" y="516" type="line" smooth="yes"/>
      <point x="351" y="367"/>
      <point x="504" y="181"/>
      <point x="634" y="181" type="qcurve" smooth="yes"/>
      <point x="725" y="181"/>
      <point x="837" y="218"/>
      <point x="866" y="246" type="qcurve"/>
      <point x="866" y="489" type="line"/>
      <point x="634" y="489" type="line"/>
      <point x="634" y="671" type="line"/>
      <point x="1129" y="671" type="line"/>
    </contour>
  </outline>
</glyph>
<glyph name="H" format="1">
  <advance width="1305"/>
  <unicode hex="0048"/>
  <outline>
    <contour>
      <point x="1182" y="0" type="line"/>
      <point x="920" y="0" type="line"/>
      <point x="920" y="545" type="line"/>
      <point x="385" y="545" type="line"/>
      <point x="385" y="0" type="line"/>
      <point x="122" y="0" type="line"/>
      <point x="122" y="1310" type="line"/>
      <point x="385" y="1310" type="line"/>
      <point x="385" y="747" type="line"/>
      <point x="920" y="747" type="line"/>
      <point x="920" y="1310" type="line"/>
      <point x="1182" y="1310" type="line"/>
    </contour>
  </outline>
</glyph>
<glyph name="J" format="1">
  <advance width="1052"/>
  <unicode hex="004A"/>
  <outline>
    <contour>
      <point x="671" y="1308" type="line"/>
      <point x="933" y="1308" type="line"/>
      <point x="933" y="391" type="line" smooth="yes"/>
      <point x="933" y="201"/>
      <point x="686" y="-21"/>
      <point x="497" y="-21" type="qcurve" smooth="yes"/>
      <point x="292" y="-21"/>
      <point x="52" y="179"/>
      <point x="57" y="373" type="qcurve"/>
      <point x="59" y="379" type="line"/>
      <point x="314" y="379" type="line"/>
      <point x="314" y="275"/>
      <point x="413" y="181"/>
      <point x="497" y="181" type="qcurve" smooth="yes"/>
      <point x="570" y="181"/>
      <point x="671" y="293"/>
      <point x="671" y="391" type="qcurve" smooth="yes"/>
    </contour>
  </outline>
</glyph>
<glyph name="K" format="1">
  <advance width="1191"/>
  <unicode hex="004B"/>
  <outline>
    <contour>
      <point x="531" y="547" type="line"/>
      <point x="385" y="547" type="line"/>
      <point x="385" y="0" type="line"/>
      <point x="122" y="0" type="line"/>
      <point x="122" y="1310" type="line"/>
      <point x="385" y="1310" type="line"/>
      <point x="385" y="775" type="line"/>
      <point x="500" y="775" type="line"/>
      <point x="847" y="1310" type="line"/>
      <point x="1168" y="1310" type="line"/>
      <point x="727" y="700" type="line"/>
      <point x="1203" y="0" type="line"/>
      <point x="883" y="0" type="line"/>
    </contour>
  </outline>
</glyph>
<glyph name="M" format="1">
  <advance width="1608"/>
  <unicode hex="004D"/>
  <outline>
    <contour>
      <point x="465" y="1310" type="line"/>
      <point x="799" y="345" type="line"/>
      <point x="805" y="345" type="line"/>
      <point x="1141" y="1310" type="line"/>
      <point x="1485" y="1310" type="line"/>
      <point x="1485" y="0" type="line"/>
      <point x="1222" y="0" type="line"/>
      <point x="1222" y="391" type="line"/>
      <point x="1247" y="969" type="line"/>
      <point x="1242" y="970" type="line"/>
      <point x="891" y="0" type="line"/>
      <point x="715" y="0" type="line"/>
      <point x="365" y="967" type="line"/>
      <point x="360" y="966" type="line"/>
      <point x="385" y="391" type="line"/>
      <point x="385" y="0" type="line"/>
      <point x="122" y="0" type="line"/>
      <point x="122" y="1310" type="line"/>
    </contour>
  </outline>
</glyph>
<glyph name="N" format="1">
  <advance width="1305"/>
  <unicode hex="004E"/>
  <outline>
    <contour>
      <point x="1182" y="0" type="line"/>
      <point x="920" y="0" type="line"/>
      <point x="391" y="896" type="line"/>
      <point x="385" y="895" type="line"/>
      <point x="385" y="0" type="line"/>
      <point x="122" y="0" type="line"/>
      <point x="122" y="1310" type="line"/>
      <point x="385" y="1310" type="line"/>
      <point x="914" y="416" type="line"/>
      <point x="920" y="417" type="line"/>
      <point x="920" y="1310" type="line"/>
      <point x="1182" y="1310" type="line"/>
    </contour>
  </outline>
</glyph>
<glyph name="O" format="1">
  <advance width="1259"/>
  <unicode hex="004F"/>
  <outline>
    <contour>
      <point x="1176" y="535" type="line" smooth="yes"/>
      <point x="1176" y="294"/>
      <point x="871" y="-21"/>
      <point x="627" y="-21" type="qcurve" smooth="yes"/>
      <point x="385" y="-21"/>
      <point x="83" y="294"/>
      <point x="83" y="535" type="qcurve" smooth="yes"/>
      <point x="83" y="771" type="line" smooth="yes"/>
      <point x="83" y="1011"/>
      <point x="384" y="1327"/>
      <point x="626" y="1327" type="qcurve" smooth="yes"/>
      <point x="870" y="1327"/>
      <point x="1176" y="1011"/>
      <point x="1176" y="771" type="qcurve" smooth="yes"/>
    </contour>
    <contour>
      <point x="914" y="773" type="line" smooth="yes"/>
      <point x="914" y="926"/>
      <point x="761" y="1122"/>
      <point x="626" y="1122" type="qcurve" smooth="yes"/>
      <point x="492" y="1122"/>
      <point x="345" y="927"/>
      <point x="345" y="773" type="qcurve" smooth="yes"/>
      <point x="345" y="535" type="line" smooth="yes"/>
      <point x="345" y="380"/>
      <point x="494" y="183"/>
      <point x="627" y="183" type="qcurve" smooth="yes"/>
      <point x="762" y="183"/>
      <point x="914" y="380"/>
      <point x="914" y="535" type="qcurve" smooth="yes"/>
    </contour>
  </outline>
</glyph>
<glyph name="P" format="1">
  <advance width="1201"/>
  <unicode hex="0050"/>
  <outline>
    <contour>
      <point x="385" y="475" type="line"/>
      <point x="385" y="0" type="line"/>
      <point x="122" y="0" type="line"/>
      <point x="122" y="1310" type="line"/>
      <point x="644" y="1310" type="line" smooth="yes"/>
      <point x="870" y="1310"/>
      <point x="1130" y="1080"/>
      <point x="1130" y="892" type="qcurve" smooth="yes"/>
      <point x="1130" y="704"/>
      <point x="870" y="475"/>
      <point x="644" y="475" type="qcurve" smooth="yes"/>
    </contour>
    <contour>
      <point x="385" y="678" type="line"/>
      <point x="644" y="678" type="line" smooth="yes"/>
      <point x="754" y="678"/>
      <point x="868" y="797"/>
      <point x="868" y="890" type="qcurve" smooth="yes"/>
      <point x="868" y="985"/>
      <point x="755" y="1108"/>
      <point x="644" y="1108" type="qcurve" smooth="yes"/>
      <point x="385" y="1108" type="line"/>
    </contour>
  </outline>
</glyph>
<glyph name="Q" format="1">
  <advance width="1290"/>
  <unicode hex="0051"/>
  <outline>
    <contour>
      <point x="1176" y="514" type="line" smooth="yes"/>
      <point x="1176" y="395"/>
      <point x="1099" y="193"/>
      <point x="1027" y="118" type="qcurve"/>
      <point x="1244" y="-95" type="line"/>
      <point x="1072" y="-235" type="line"/>
      <point x="836" y="-6" type="line"/>
      <point x="788" y="-24"/>
      <point x="683" y="-42"/>
      <point x="627" y="-42" type="qcurve" smooth="yes"/>
      <point x="385" y="-42"/>
      <point x="83" y="273"/>
      <point x="83" y="514" type="qcurve" smooth="yes"/>
      <point x="83" y="750" type="line" smooth="yes"/>
      <point x="83" y="990"/>
      <point x="384" y="1306"/>
      <point x="626" y="1306" type="qcurve" smooth="yes"/>
      <point x="870" y="1306"/>
      <point x="1176" y="990"/>
      <point x="1176" y="750" type="qcurve" smooth="yes"/>
    </contour>
    <contour>
      <point x="914" y="751" type="line" smooth="yes"/>
      <point x="914" y="904"/>
      <point x="761" y="1101"/>
      <point x="626" y="1101" type="qcurve" smooth="yes"/>
      <point x="492" y="1101"/>
      <point x="345" y="905"/>
      <point x="345" y="751" type="qcurve" smooth="yes"/>
      <point x="345" y="514" type="line" smooth="yes"/>
      <point x="345" y="358"/>
      <point x="494" y="162"/>
      <point x="627" y="162" type="qcurve" smooth="yes"/>
      <point x="762" y="162"/>
      <point x="914" y="358"/>
      <point x="914" y="514" type="qcurve" smooth="yes"/>
    </contour>
  </outline>
</glyph>
<glyph name="R" format="1">
  <advance width="1219"/>
  <unicode hex="0052"/>
  <outline>
    <contour>
      <point x="385" y="524" type="line"/>
      <point x="385" y="0" type="line"/>
      <point x="122" y="0" type="line"/>
      <point x="122" y="1310" type="line"/>
      <point x="617" y="1310" type="line" smooth="yes"/>
      <point x="841" y="1310"/>
      <point x="1094" y="1106"/>
      <point x="1094" y="923" type="qcurve" smooth="yes"/>
      <point x="1094" y="822"/>
      <point x="987" y="676"/>
      <point x="885" y="631" type="qcurve"/>
      <point x="1001" y="597"/>
      <point x="1103" y="437"/>
      <point x="1103" y="319" type="qcurve" smooth="yes"/>
      <point x="1103" y="222" type="line" smooth="yes"/>
      <point x="1103" y="167"/>
      <point x="1132" y="48"/>
      <point x="1168" y="19" type="qcurve"/>
      <point x="1168" y="0" type="line"/>
      <point x="897" y="0" type="line"/>
      <point x="861" y="29"/>
      <point x="840" y="164"/>
      <point x="840" y="224" type="qcurve" smooth="yes"/>
      <point x="840" y="317" type="line" smooth="yes"/>
      <point x="840" y="415"/>
      <point x="733" y="524"/>
      <point x="635" y="524" type="qcurve" smooth="yes"/>
    </contour>
    <contour>
      <point x="385" y="726" type="line"/>
      <point x="612" y="726" type="line" smooth="yes"/>
      <point x="723" y="726"/>
      <point x="832" y="820"/>
      <point x="832" y="912" type="qcurve" smooth="yes"/>
      <point x="832" y="1002"/>
      <point x="723" y="1108"/>
      <point x="617" y="1108" type="qcurve" smooth="yes"/>
      <point x="385" y="1108" type="line"/>
    </contour>
  </outline>
</glyph>
<glyph name="S" format="1">
  <advance width="1169"/>
  <unicode hex="0053"/>
  <outline>
    <contour>
      <point x="830" y="340" type="qcurve" smooth="yes"/>
      <point x="830" y="416"/>
      <point x="723" y="507"/>
      <point x="589" y="548" type="qcurve" smooth="yes"/>
      <point x="355" y="615"/>
      <point x="115" y="801"/>
      <point x="115" y="962" type="qcurve" smooth="yes"/>
      <point x="115" y="1123"/>
      <point x="390" y="1327"/>
      <point x="603" y="1327" type="qcurve" smooth="yes"/>
      <point x="819" y="1327"/>
      <point x="1091" y="1098"/>
      <point x="1086" y="929" type="qcurve"/>
      <point x="1085" y="924" type="line"/>
      <point x="830" y="924" type="line"/>
      <point x="830" y="1015"/>
      <point x="708" y="1127"/>
      <point x="599" y="1127" type="qcurve" smooth="yes"/>
      <point x="493" y="1127"/>
      <point x="378" y="1034"/>
      <point x="378" y="961" type="qcurve" smooth="yes"/>
      <point x="378" y="894"/>
      <point x="501" y="809"/>
      <point x="653" y="761" type="qcurve" smooth="yes"/>
      <point x="869" y="701"/>
      <point x="1093" y="503"/>
      <point x="1093" y="342" type="qcurve" smooth="yes"/>
      <point x="1093" y="173"/>
      <point x="827" y="-21"/>
      <point x="609" y="-21" type="qcurve" smooth="yes"/>
      <point x="395" y="-21"/>
      <point x="77" y="200"/>
      <point x="81" y="398" type="qcurve"/>
      <point x="83" y="404" type="line"/>
      <point x="338" y="404" type="line"/>
      <point x="338" y="287"/>
      <point x="482" y="178"/>
      <point x="609" y="178" type="qcurve" smooth="yes"/>
      <point x="716" y="178"/>
      <point x="830" y="266"/>
    </contour>
  </outline>
</glyph>
<glyph name="T" format="1">
  <advance width="1052"/>
  <unicode hex="0054"/>
  <outline>
    <contour>
      <point x="1028" y="1108" type="line"/>
      <point x="657" y="1108" type="line"/>
      <point x="657" y="0" type="line"/>
      <point x="394" y="0" type="line"/>
      <point x="394" y="1108" type="line"/>
      <point x="25" y="1108" type="line"/>
      <point x="25" y="1310" type="line"/>
      <point x="1028" y="1310" type="line"/>
    </contour>
  </outline>
</glyph>
<glyph name="U" format="1">
  <advance width="1266"/>
  <unicode hex="0055"/>
  <outline>
    <contour>
      <point x="1159" y="1308" type="line"/>
      <point x="1159" y="439" type="line" smooth="yes"/>
      <point x="1159" y="218"/>
      <point x="868" y="-21"/>
      <point x="632" y="-21" type="qcurve" smooth="yes"/>
      <point x="397" y="-21"/>
      <point x="108" y="218"/>
      <point x="108" y="439" type="qcurve" smooth="yes"/>
      <point x="108" y="1308" type="line"/>
      <point x="372" y="1308" type="line"/>
      <point x="372" y="439" type="line" smooth="yes"/>
      <point x="372" y="309"/>
      <point x="510" y="181"/>
      <point x="632" y="181" type="qcurve" smooth="yes"/>
      <point x="755" y="181"/>
      <point x="896" y="308"/>
      <point x="896" y="439" type="qcurve" smooth="yes"/>
      <point x="896" y="1308" type="line"/>
    </contour>
  </outline>
</glyph>
<glyph name="V" format="1">
  <advance width="1173"/>
  <unicode hex="0056"/>
  <outline>
    <contour>
      <point x="567" y="348" type="line"/>
      <point x="583" y="277" type="line"/>
      <point x="589" y="277" type="line"/>
      <point x="604" y="347" type="line"/>
      <point x="889" y="1310" type="line"/>
      <point x="1166" y="1310" type="line"/>
      <point x="721" y="0" type="line"/>
      <point x="451" y="0" type="line"/>
      <point x="6" y="1310" type="line"/>
      <point x="284" y="1310" type="line"/>
    </contour>
  </outline>
</glyph>
<glyph name="W" format="1">
  <advance width="1634"/>
  <unicode hex="0057"/>
  <outline>
    <contour>
      <point x="1159" y="412" type="line"/>
      <point x="1165" y="412" type="line"/>
      <point x="1352" y="1310" type="line"/>
      <point x="1608" y="1310" type="line"/>
      <point x="1302" y="0" type="line"/>
      <point x="1058" y="0" type="line"/>
      <point x="818" y="865" type="line"/>
      <point x="813" y="865" type="line"/>
      <point x="572" y="0" type="line"/>
      <point x="329" y="0" type="line"/>
      <point x="22" y="1310" type="line"/>
      <point x="279" y="1310" type="line"/>
      <point x="467" y="413" type="line"/>
      <point x="473" y="412" type="line"/>
      <point x="718" y="1310" type="line"/>
      <point x="912" y="1310" type="line"/>
    </contour>
  </outline>
</glyph>
<glyph name="X" format="1">
  <advance width="1173"/>
  <unicode hex="0058"/>
  <outline>
    <contour>
      <point x="584" y="846" type="line"/>
      <point x="830" y="1310" type="line"/>
      <point x="1136" y="1310" type="line"/>
      <point x="747" y="661" type="line"/>
      <point x="1158" y="0" type="line"/>
      <point x="841" y="0" type="line"/>
      <point x="588" y="473" type="line"/>
      <point x="335" y="0" type="line"/>
      <point x="28" y="0" type="line"/>
      <point x="427" y="661" type="line"/>
      <point x="38" y="1310" type="line"/>
      <point x="342" y="1310" type="line"/>
    </contour>
  </outline>
</glyph>
<glyph name="Y" format="1">
  <advance width="1163"/>
  <unicode hex="0059"/>
  <outline>
    <contour>
      <point x="579" y="707" type="line"/>
      <point x="584" y="707" type="line"/>
      <point x="870" y="1310" type="line"/>
      <point x="1158" y="1310" type="line"/>
      <point x="708" y="461" type="line"/>
      <point x="708" y="0" type="line"/>
      <point x="446" y="0" type="line"/>
      <point x="446" y="474" type="line"/>
      <point x="5" y="1310" type="line"/>
      <point x="293" y="1310" type="line"/>
    </contour>
  </outline>
</glyph>
<glyph name="Z" format="1">
  <advance width="1085"/>
  <unicode hex="005A"/>
  <outline>
    <contour>
      <point x="387" y="202" type="line"/>
      <point x="1028" y="202" type="line"/>
      <point x="1028" y="0" type="line"/>
      <point x="69" y="0" type="line"/>
      <point x="69" y="137" type="line"/>
      <point x="692" y="1108" type="line"/>
      <point x="70" y="1108" type="line"/>
      <point x="70" y="1310" type="line"/>
      <point x="1013" y="1310" type="line"/>
      <point x="1013" y="1179" type="line"/>
    </contour>
  </outline>
</glyph>
<glyph name="bracketleft" format="1">
  <advance width="753"/>
  <unicode hex="005B"/>
  <outline>
    <contour>
      <point x="605" y="1328" type="line"/>
      <point x="478" y="1328" type="line"/>
      <point x="478" y="-109" type="line"/>
      <point x="605" y="-109" type="line"/>
      <point x="605" y="-303" type="line"/>
      <point x="215" y="-303" type="line"/>
      <point x="215" y="1523" type="line"/>
      <point x="605" y="1523" type="line"/>
    </contour>
  </outline>
</glyph>
<glyph name="backslash" format="1">
  <advance width="777"/>
  <unicode hex="005C"/>
  <outline>
    <contour>
      <point x="2" y="1298" type="line"/>
      <point x="262" y="1298" type="line"/>
      <point x="809" y="-125" type="line"/>
      <point x="549" y="-125" type="line"/>
    </contour>
  </outline>
</glyph>
<glyph name="bracketright" format="1">
  <advance width="753"/>
  <unicode hex="005D"/>
  <outline>
    <contour>
      <point x="149" y="1523" type="line"/>
      <point x="539" y="1523" type="line"/>
      <point x="539" y="-303" type="line"/>
      <point x="149" y="-303" type="line"/>
      <point x="149" y="-109" type="line"/>
      <point x="277" y="-109" type="line"/>
      <point x="277" y="1328" type="line"/>
      <point x="149" y="1328" type="line"/>
    </contour>
  </outline>
</glyph>
<glyph name="asciicircum" format="1">
  <advance width="806"/>
  <unicode hex="005E"/>
  <outline>
    <contour>
      <point x="248" y="729" type="line"/>
      <point x="40" y="729" type="line"/>
      <point x="309" y="1383" type="line"/>
      <point x="500" y="1383" type="line"/>
      <point x="769" y="729" type="line"/>
      <point x="561" y="729" type="line"/>
      <point x="412" y="1101" type="line"/>
      <point x="405" y="1131" type="line"/>
      <point x="400" y="1131" type="line"/>
      <point x="393" y="1101" type="line"/>
    </contour>
  </outline>
</glyph>
<glyph name="underscore" format="1">
  <advance width="823"/>
  <unicode hex="005F"/>
  <outline>
    <contour>
      <point x="820" y="-219" type="line"/>
      <point x="1" y="-219" type="line"/>
      <point x="1" y="-22" type="line"/>
      <point x="820" y="-22" type="line"/>
    </contour>
  </outline>
</glyph>
<glyph name="grave" format="1">
  <advance width="610"/>
  <unicode hex="0060"/>
  <outline>
    <contour>
      <point x="527" y="1212" type="line"/>
      <point x="313" y="1212" type="line"/>
      <point x="69" y="1446" type="line"/>
      <point x="71" y="1451" type="line"/>
      <point x="349" y="1451" type="line"/>
    </contour>
  </outline>
</glyph>
<glyph name="a" format="1">
  <advance width="990.0"/>
  <unicode hex="0061"/>
  <outline>
    <contour>
      <point x="672" y="-2" type="line"/>
      <point x="658" y="31"/>
      <point x="637" y="105"/>
      <point x="633" y="144" type="qcurve"/>
      <point x="592" y="73"/>
      <point x="460" y="-21"/>
      <point x="368" y="-21" type="qcurve" smooth="yes"/>
      <point x="215" y="-21"/>
      <point x="50" y="137"/>
      <point x="50" y="272" type="qcurve" smooth="yes"/>
      <point x="50" y="416"/>
      <point x="270" y="573"/>
      <point x="482" y="573" type="qcurve" smooth="yes"/>
      <point x="628" y="573" type="line"/>
      <point x="628" y="650" type="line" smooth="yes"/>
      <point x="628" y="721"/>
      <point x="554" y="798"/>
      <point x="482" y="798" type="qcurve" smooth="yes"/>
      <point x="419" y="798"/>
      <point x="349" y="736"/>
      <point x="349" y="681" type="qcurve"/>
      <point x="95" y="682" type="line"/>
      <point x="95" y="687" type="line"/>
      <point x="88" y="811"/>
      <point x="315" y="990"/>
      <point x="500" y="990" type="qcurve" smooth="yes"/>
      <point x="674" y="990"/>
      <point x="892" y="812"/>
      <point x="892" y="649" type="qcurve" smooth="yes"/>
      <point x="892" y="246" type="line" smooth="yes"/>
      <point x="892" y="178"/>
      <point x="913" y="57"/>
      <point x="935" y="-2" type="qcurve"/>
    </contour>
    <contour>
      <point x="432" y="173" type="qcurve" smooth="yes"/>
      <point x="501" y="173"/>
      <point x="609" y="242"/>
      <point x="628" y="287" type="qcurve"/>
      <point x="628" y="425" type="line"/>
      <point x="482" y="425" type="line" smooth="yes"/>
      <point x="398" y="425"/>
      <point x="311" y="341"/>
      <point x="311" y="281" type="qcurve" smooth="yes"/>
      <point x="311" y="233"/>
      <point x="376" y="173"/>
    </contour>
  </outline>
</glyph>
<glyph name="b" format="1">
  <advance width="1040"/>
  <unicode hex="0062"/>
  <outline>
    <contour>
      <point x="979" y="458" type="line" smooth="yes"/>
      <point x="979" y="240"/>
      <point x="785" y="-21"/>
      <point x="601" y="-21" type="qcurve" smooth="yes"/>
      <point x="517" y="-21"/>
      <point x="390" y="50"/>
      <point x="346" y="119" type="qcurve"/>
      <point x="326" y="-2" type="line"/>
      <point x="101" y="-2" type="line"/>
      <point x="101" y="1402" type="line"/>
      <point x="363" y="1402" type="line"/>
      <point x="363" y="868" type="line"/>
      <point x="405" y="927"/>
      <point x="523" y="990"/>
      <point x="599" y="990" type="qcurve" smooth="yes"/>
      <point x="785" y="990"/>
      <point x="979" y="710"/>
      <point x="979" y="477" type="qcurve" smooth="yes"/>
    </contour>
    <contour>
      <point x="717" y="477" type="line" smooth="yes"/>
      <point x="717" y="619"/>
      <point x="634" y="785"/>
      <point x="533" y="785" type="qcurve" smooth="yes"/>
      <point x="472" y="785"/>
      <point x="387" y="734"/>
      <point x="363" y="686" type="qcurve"/>
      <point x="363" y="274" type="line"/>
      <point x="387" y="230"/>
      <point x="473" y="183"/>
      <point x="535" y="183" type="qcurve" smooth="yes"/>
      <point x="636" y="183"/>
      <point x="717" y="326"/>
      <point x="717" y="458" type="qcurve" smooth="yes"/>
    </contour>
  </outline>
</glyph>
<glyph name="c" format="1">
  <advance width="954.0"/>
  <unicode hex="0063"/>
  <outline>
    <contour>
      <point x="509" y="181" type="qcurve" smooth="yes"/>
      <point x="580" y="181"/>
      <point x="664" y="263"/>
      <point x="664" y="331" type="qcurve"/>
      <point x="903" y="331" type="line"/>
      <point x="905" y="326" type="line"/>
      <point x="909" y="178"/>
      <point x="680" y="-21"/>
      <point x="509" y="-21" type="qcurve" smooth="yes"/>
      <point x="292" y="-21"/>
      <point x="56" y="254"/>
      <point x="56" y="470" type="qcurve" smooth="yes"/>
      <point x="56" y="497" type="line" smooth="yes"/>
      <point x="56" y="713"/>
      <point x="291" y="990"/>
      <point x="509" y="990" type="qcurve" smooth="yes"/>
      <point x="689" y="990"/>
      <point x="909" y="785"/>
      <point x="905" y="617" type="qcurve"/>
      <point x="904" y="612" type="line"/>
      <point x="664" y="612" type="line"/>
      <point x="664" y="687"/>
      <point x="581" y="787"/>
      <point x="509" y="787" type="qcurve" smooth="yes"/>
      <point x="404" y="787"/>
      <point x="319" y="625"/>
      <point x="319" y="497" type="qcurve" smooth="yes"/>
      <point x="319" y="470" type="line" smooth="yes"/>
      <point x="319" y="340"/>
      <point x="404" y="181"/>
    </contour>
  </outline>
</glyph>
<glyph name="d" format="1">
  <advance width="1040"/>
  <unicode hex="0064"/>
  <outline>
    <contour>
      <point x="60" y="477" type="line" smooth="yes"/>
      <point x="60" y="707"/>
      <point x="259" y="990"/>
      <point x="440" y="990" type="qcurve" smooth="yes"/>
      <point x="513" y="990"/>
      <point x="630" y="927"/>
      <point x="674" y="868" type="qcurve"/>
      <point x="674" y="1402" type="line"/>
      <point x="938" y="1402" type="line"/>
      <point x="938" y="-2" type="line"/>
      <point x="712" y="-2" type="line"/>
      <point x="690" y="117" type="line"/>
      <point x="644" y="49"/>
      <point x="519" y="-21"/>
      <point x="438" y="-21" type="qcurve" smooth="yes"/>
      <point x="259" y="-21"/>
      <point x="60" y="242"/>
      <point x="60" y="458" type="qcurve" smooth="yes"/>
    </contour>
    <contour>
      <point x="322" y="458" type="line" smooth="yes"/>
      <point x="322" y="330"/>
      <point x="409" y="183"/>
      <point x="506" y="183" type="qcurve" smooth="yes"/>
      <point x="563" y="183"/>
      <point x="647" y="229"/>
      <point x="674" y="273" type="qcurve"/>
      <point x="674" y="688" type="line"/>
      <point x="647" y="734"/>
      <point x="563" y="785"/>
      <point x="508" y="785" type="qcurve" smooth="yes"/>
      <point x="411" y="785"/>
      <point x="322" y="614"/>
      <point x="322" y="477" type="qcurve" smooth="yes"/>
    </contour>
  </outline>
</glyph>
<glyph name="e" format="1">
  <advance width="976"/>
  <unicode hex="0065"/>
  <outline>
    <contour>
      <point x="532" y="-21" type="qcurve" smooth="yes"/>
      <point x="321" y="-21"/>
      <point x="69" y="249"/>
      <point x="69" y="457" type="qcurve" smooth="yes"/>
      <point x="69" y="493" type="line" smooth="yes"/>
      <point x="69" y="710"/>
      <point x="308" y="991"/>
      <point x="509" y="990" type="qcurve" smooth="yes"/>
      <point x="706" y="990"/>
      <point x="923" y="752"/>
      <point x="923" y="550" type="qcurve" smooth="yes"/>
      <point x="923" y="407" type="line"/>
      <point x="342" y="407" type="line"/>
      <point x="340" y="401" type="line"/>
      <point x="347" y="305"/>
      <point x="462" y="181"/>
      <point x="560" y="181" type="qcurve" smooth="yes"/>
      <point x="647" y="181"/>
      <point x="762" y="216"/>
      <point x="831" y="254" type="qcurve"/>
      <point x="902" y="92" type="line"/>
      <point x="842" y="43"/>
      <point x="650" y="-21"/>
    </contour>
    <contour>
      <point x="509" y="787" type="qcurve" smooth="yes"/>
      <point x="436" y="787"/>
      <point x="351" y="676"/>
      <point x="341" y="585" type="qcurve"/>
      <point x="344" y="580" type="line"/>
      <point x="666" y="580" type="line"/>
      <point x="666" y="604" type="line" smooth="yes"/>
      <point x="666" y="687"/>
      <point x="588" y="787"/>
    </contour>
  </outline>
</glyph>
<glyph name="f" format="1">
  <advance width="659"/>
  <unicode hex="0066"/>
  <outline>
    <contour>
      <point x="169" y="0" type="line"/>
      <point x="169" y="789" type="line"/>
      <point x="24" y="789" type="line"/>
      <point x="24" y="974" type="line"/>
      <point x="169" y="974" type="line"/>
      <point x="169" y="1082" type="line" smooth="yes"/>
      <point x="169" y="1246"/>
      <point x="358" y="1423"/>
      <point x="529" y="1423" type="qcurve" smooth="yes"/>
      <point x="563" y="1423"/>
      <point x="632" y="1413"/>
      <point x="673" y="1404" type="qcurve"/>
      <point x="651" y="1209" type="line"/>
      <point x="629" y="1212"/>
      <point x="589" y="1218"/>
      <point x="562" y="1218" type="qcurve" smooth="yes"/>
      <point x="498" y="1218"/>
      <point x="432" y="1148"/>
      <point x="432" y="1082" type="qcurve" smooth="yes"/>
      <point x="432" y="974" type="line"/>
      <point x="626" y="974" type="line"/>
      <point x="626" y="789" type="line"/>
      <point x="432" y="789" type="line"/>
      <point x="432" y="0" type="line"/>
    </contour>
  </outline>
</glyph>
<glyph name="g" format="1">
  <advance width="1040"/>
  <unicode hex="0067"/>
  <outline>
    <contour>
      <point x="60" y="435" type="line" smooth="yes"/>
      <point x="60" y="666"/>
      <point x="261" y="948"/>
      <point x="442" y="948" type="qcurve" smooth="yes"/>
      <point x="524" y="948"/>
      <point x="648" y="874"/>
      <point x="692" y="806" type="qcurve"/>
      <point x="713" y="930" type="line"/>
      <point x="940" y="930" type="line"/>
      <point x="940" y="-39" type="line" smooth="yes"/>
      <point x="940" y="-229"/>
      <point x="690" y="-437"/>
      <point x="468" y="-437" type="qcurve" smooth="yes"/>
      <point x="394" y="-437"/>
      <point x="229" y="-397"/>
      <point x="158" y="-361" type="qcurve"/>
      <point x="207" y="-165" type="line"/>
      <point x="267" y="-194"/>
      <point x="392" y="-224"/>
      <point x="466" y="-224" type="qcurve" smooth="yes"/>
      <point x="574" y="-224"/>
      <point x="676" y="-134"/>
      <point x="676" y="-38" type="qcurve" smooth="yes"/>
      <point x="676" y="50" type="line"/>
      <point x="633" y="-5"/>
      <point x="516" y="-63"/>
      <point x="440" y="-63" type="qcurve" smooth="yes"/>
      <point x="261" y="-63"/>
      <point x="60" y="201"/>
      <point x="60" y="416" type="qcurve" smooth="yes"/>
    </contour>
    <contour>
      <point x="323" y="416" type="line" smooth="yes"/>
      <point x="323" y="288"/>
      <point x="410" y="142"/>
      <point x="507" y="142" type="qcurve" smooth="yes"/>
      <point x="567" y="142"/>
      <point x="651" y="186"/>
      <point x="676" y="228" type="qcurve"/>
      <point x="676" y="651" type="line"/>
      <point x="651" y="695"/>
      <point x="567" y="744"/>
      <point x="509" y="744" type="qcurve" smooth="yes"/>
      <point x="412" y="744"/>
      <point x="323" y="573"/>
      <point x="323" y="435" type="qcurve" smooth="yes"/>
    </contour>
  </outline>
</glyph>
<glyph name="h" format="1">
  <advance width="1040"/>
  <unicode hex="0068"/>
  <outline>
    <contour>
      <point x="357" y="851" type="line"/>
      <point x="403" y="917"/>
      <point x="536" y="992"/>
      <point x="617" y="992" type="qcurve" smooth="yes"/>
      <point x="770" y="992"/>
      <point x="943" y="789"/>
      <point x="943" y="578" type="qcurve" smooth="yes"/>
      <point x="943" y="0" type="line"/>
      <point x="680" y="0" type="line"/>
      <point x="680" y="580" type="line" smooth="yes"/>
      <point x="680" y="693"/>
      <point x="600" y="788"/>
      <point x="521" y="788" type="qcurve" smooth="yes"/>
      <point x="467" y="788"/>
      <point x="384" y="749"/>
      <point x="357" y="714" type="qcurve"/>
      <point x="357" y="0" type="line"/>
      <point x="95" y="0" type="line"/>
      <point x="95" y="1404" type="line"/>
      <point x="357" y="1404" type="line"/>
    </contour>
  </outline>
</glyph>
<glyph name="i" format="1">
  <advance width="492"/>
  <unicode hex="0069"/>
  <outline>
    <contour>
      <point x="377" y="0" type="line"/>
      <point x="114" y="0" type="line"/>
      <point x="114" y="974" type="line"/>
      <point x="377" y="974" type="line"/>
    </contour>
    <contour>
      <point x="377" y="1207" type="line"/>
      <point x="114" y="1207" type="line"/>
      <point x="114" y="1404" type="line"/>
      <point x="377" y="1404" type="line"/>
    </contour>
  </outline>
</glyph>
<glyph name="j" format="1">
  <advance width="489"/>
  <unicode hex="006A"/>
  <outline>
    <contour>
      <point x="384" y="930" type="line"/>
      <point x="384" y="-80" type="line" smooth="yes"/>
      <point x="384" y="-251"/>
      <point x="203" y="-437"/>
      <point x="41" y="-437" type="qcurve" smooth="yes"/>
      <point x="5" y="-437"/>
      <point x="-55" y="-430"/>
      <point x="-88" y="-422" type="qcurve"/>
      <point x="-76" y="-221" type="line"/>
      <point x="-55" y="-226"/>
      <point x="-14" y="-232"/>
      <point x="10" y="-232" type="qcurve" smooth="yes"/>
      <point x="63" y="-232"/>
      <point x="121" y="-157"/>
      <point x="121" y="-80" type="qcurve" smooth="yes"/>
      <point x="121" y="930" type="line"/>
    </contour>
    <contour>
      <point x="379" y="1165" type="line"/>
      <point x="115" y="1165" type="line"/>
      <point x="115" y="1360" type="line"/>
      <point x="379" y="1360" type="line"/>
    </contour>
  </outline>
</glyph>
<glyph name="k" format="1">
  <advance width="987"/>
  <unicode hex="006B"/>
  <outline>
    <contour>
      <point x="436" y="408" type="line"/>
      <point x="364" y="408" type="line"/>
      <point x="364" y="0" type="line"/>
      <point x="101" y="0" type="line"/>
      <point x="101" y="1404" type="line"/>
      <point x="364" y="1404" type="line"/>
      <point x="364" y="608" type="line"/>
      <point x="428" y="608" type="line"/>
      <point x="654" y="974" type="line"/>
      <point x="959" y="974" type="line"/>
      <point x="647" y="533" type="line"/>
      <point x="1006" y="0" type="line"/>
      <point x="705" y="0" type="line"/>
    </contour>
  </outline>
</glyph>
<glyph name="l" format="1">
  <advance width="492"/>
  <unicode hex="006C"/>
  <outline>
    <contour>
      <point x="377" y="0" type="line"/>
      <point x="114" y="0" type="line"/>
      <point x="114" y="1404" type="line"/>
      <point x="377" y="1404" type="line"/>
    </contour>
  </outline>
</glyph>
<glyph name="m" format="1">
  <advance width="1595"/>
  <unicode hex="006D"/>
  <outline>
    <contour>
      <point x="345" y="974" type="line"/>
      <point x="356" y="845" type="line"/>
      <point x="402" y="915"/>
      <point x="544" y="992"/>
      <point x="636" y="992" type="qcurve" smooth="yes"/>
      <point x="730" y="992"/>
      <point x="863" y="909"/>
      <point x="897" y="825" type="qcurve"/>
      <point x="942" y="904"/>
      <point x="1086" y="992"/>
      <point x="1184" y="992" type="qcurve" smooth="yes"/>
      <point x="1328" y="992"/>
      <point x="1494" y="793"/>
      <point x="1494" y="590" type="qcurve" smooth="yes"/>
      <point x="1494" y="0" type="line"/>
      <point x="1231" y="0" type="line"/>
      <point x="1231" y="590" type="line" smooth="yes"/>
      <point x="1231" y="701"/>
      <point x="1159" y="788"/>
      <point x="1088" y="788" type="qcurve" smooth="yes"/>
      <point x="1032" y="788"/>
      <point x="950" y="738"/>
      <point x="926" y="694" type="qcurve"/>
      <point x="926" y="677"/>
      <point x="928" y="653"/>
      <point x="928" y="640" type="qcurve" smooth="yes"/>
      <point x="928" y="0" type="line"/>
      <point x="666" y="0" type="line"/>
      <point x="666" y="590" type="line" smooth="yes"/>
      <point x="666" y="698"/>
      <point x="594" y="788"/>
      <point x="522" y="788" type="qcurve" smooth="yes"/>
      <point x="469" y="788"/>
      <point x="389" y="747"/>
      <point x="363" y="710" type="qcurve"/>
      <point x="363" y="0" type="line"/>
      <point x="101" y="0" type="line"/>
      <point x="101" y="974" type="line"/>
    </contour>
  </outline>
</glyph>
<glyph name="n" format="1">
  <advance width="1040"/>
  <unicode hex="006E"/>
  <outline>
    <contour>
      <point x="341" y="974" type="line"/>
      <point x="353" y="834" type="line"/>
      <point x="401" y="909"/>
      <point x="544" y="992"/>
      <point x="632" y="992" type="qcurve" smooth="yes"/>
      <point x="779" y="992"/>
      <point x="945" y="806"/>
      <point x="945" y="608" type="qcurve" smooth="yes"/>
      <point x="945" y="0" type="line"/>
      <point x="681" y="0" type="line"/>
      <point x="681" y="608" type="line" smooth="yes"/>
      <point x="681" y="706"/>
      <point x="602" y="788"/>
      <point x="522" y="788" type="qcurve" smooth="yes"/>
      <point x="470" y="788"/>
      <point x="387" y="745"/>
      <point x="359" y="707" type="qcurve"/>
      <point x="359" y="0" type="line"/>
      <point x="96" y="0" type="line"/>
      <point x="96" y="974" type="line"/>
    </contour>
  </outline>
</glyph>
<glyph name="o" format="1">
  <advance width="1040"/>
  <unicode hex="006F"/>
  <outline>
    <contour>
      <point x="60" y="494" type="line" smooth="yes"/>
      <point x="60" y="712"/>
      <point x="303" y="990"/>
      <point x="518" y="990" type="qcurve" smooth="yes"/>
      <point x="734" y="990"/>
      <point x="979" y="713"/>
      <point x="979" y="494" type="qcurve" smooth="yes"/>
      <point x="979" y="475" type="line" smooth="yes"/>
      <point x="979" y="255"/>
      <point x="735" y="-21"/>
      <point x="520" y="-21" type="qcurve" smooth="yes"/>
      <point x="304" y="-21"/>
      <point x="60" y="255"/>
      <point x="60" y="475" type="qcurve" smooth="yes"/>
    </contour>
    <contour>
      <point x="322" y="475" type="line" smooth="yes"/>
      <point x="322" y="342"/>
      <point x="416" y="181"/>
      <point x="520" y="181" type="qcurve" smooth="yes"/>
      <point x="622" y="181"/>
      <point x="716" y="343"/>
      <point x="716" y="475" type="qcurve" smooth="yes"/>
      <point x="716" y="494" type="line" smooth="yes"/>
      <point x="716" y="623"/>
      <point x="621" y="787"/>
      <point x="518" y="787" type="qcurve" smooth="yes"/>
      <point x="417" y="787"/>
      <point x="322" y="623"/>
      <point x="322" y="494" type="qcurve" smooth="yes"/>
    </contour>
  </outline>
</glyph>
<glyph name="p" format="1">
  <advance width="1040"/>
  <unicode hex="0070"/>
  <outline>
    <contour>
      <point x="979" y="418" type="line" smooth="yes"/>
      <point x="979" y="202"/>
      <point x="779" y="-60"/>
      <point x="600" y="-60" type="qcurve" smooth="yes"/>
      <point x="524" y="-60"/>
      <point x="405" y="-4"/>
      <point x="363" y="51" type="qcurve"/>
      <point x="363" y="-416" type="line"/>
      <point x="101" y="-416" type="line"/>
      <point x="101" y="932" type="line"/>
      <point x="338" y="932" type="line"/>
      <point x="353" y="817" type="line"/>
      <point x="396" y="881"/>
      <point x="518" y="950"/>
      <point x="599" y="950" type="qcurve" smooth="yes"/>
      <point x="779" y="950"/>
      <point x="979" y="668"/>
      <point x="979" y="437" type="qcurve" smooth="yes"/>
    </contour>
    <contour>
      <point x="716" y="437" type="line" smooth="yes"/>
      <point x="716" y="575"/>
      <point x="625" y="746"/>
      <point x="530" y="746" type="qcurve" smooth="yes"/>
      <point x="471" y="746"/>
      <point x="387" y="697"/>
      <point x="363" y="652" type="qcurve"/>
      <point x="363" y="226" type="line"/>
      <point x="387" y="184"/>
      <point x="471" y="141"/>
      <point x="532" y="141" type="qcurve" smooth="yes"/>
      <point x="627" y="141"/>
      <point x="716" y="291"/>
      <point x="716" y="418" type="qcurve" smooth="yes"/>
    </contour>
  </outline>
</glyph>
<glyph name="q" format="1">
  <advance width="1040"/>
  <unicode hex="0071"/>
  <outline>
    <contour>
      <point x="60" y="437" type="line" smooth="yes"/>
      <point x="60" y="668"/>
      <point x="259" y="950"/>
      <point x="440" y="950" type="qcurve" smooth="yes"/>
      <point x="521" y="950"/>
      <point x="644" y="879"/>
      <point x="688" y="813" type="qcurve"/>
      <point x="712" y="932" type="line"/>
      <point x="935" y="932" type="line"/>
      <point x="935" y="-416" type="line"/>
      <point x="672" y="-416" type="line"/>
      <point x="672" y="49" type="line"/>
      <point x="629" y="-5"/>
      <point x="513" y="-60"/>
      <point x="438" y="-60" type="qcurve" smooth="yes"/>
      <point x="259" y="-60"/>
      <point x="60" y="202"/>
      <point x="60" y="418" type="qcurve" smooth="yes"/>
    </contour>
    <contour>
      <point x="322" y="418" type="line" smooth="yes"/>
      <point x="322" y="291"/>
      <point x="409" y="141"/>
      <point x="506" y="141" type="qcurve" smooth="yes"/>
      <point x="563" y="141"/>
      <point x="646" y="184"/>
      <point x="672" y="226" type="qcurve"/>
      <point x="672" y="658" type="line"/>
      <point x="646" y="701"/>
      <point x="564" y="748"/>
      <point x="508" y="748" type="qcurve" smooth="yes"/>
      <point x="411" y="748"/>
      <point x="322" y="575"/>
      <point x="322" y="437" type="qcurve" smooth="yes"/>
    </contour>
  </outline>
</glyph>
<glyph name="r" format="1">
  <advance width="645"/>
  <unicode hex="0072"/>
  <outline>
    <contour>
      <point x="613" y="748" type="line"/>
      <point x="517" y="751" type="line" smooth="yes"/>
      <point x="458" y="751"/>
      <point x="383" y="702"/>
      <point x="363" y="658" type="qcurve"/>
      <point x="363" y="0" type="line"/>
      <point x="101" y="0" type="line"/>
      <point x="101" y="974" type="line"/>
      <point x="345" y="974" type="line"/>
      <point x="356" y="830" type="line"/>
      <point x="391" y="906"/>
      <point x="500" y="992"/>
      <point x="571" y="992" type="qcurve" smooth="yes"/>
      <point x="590" y="992"/>
      <point x="624" y="986"/>
      <point x="641" y="981" type="qcurve"/>
    </contour>
  </outline>
</glyph>
<glyph name="s" format="1">
  <advance width="950"/>
  <unicode hex="0073"/>
  <outline>
    <contour>
      <point x="627" y="266" type="qcurve" smooth="yes"/>
      <point x="627" y="309"/>
      <point x="544" y="372"/>
      <point x="430" y="397" type="qcurve" smooth="yes"/>
      <point x="257" y="432"/>
      <point x="82" y="569"/>
      <point x="82" y="688" type="qcurve" smooth="yes"/>
      <point x="82" y="814"/>
      <point x="293" y="990"/>
      <point x="471" y="990" type="qcurve" smooth="yes"/>
      <point x="657" y="990"/>
      <point x="878" y="815"/>
      <point x="873" y="682" type="qcurve"/>
      <point x="871" y="677" type="line"/>
      <point x="617" y="677" type="line"/>
      <point x="617" y="735"/>
      <point x="543" y="809"/>
      <point x="471" y="809" type="qcurve" smooth="yes"/>
      <point x="407" y="809"/>
      <point x="334" y="747"/>
      <point x="334" y="700" type="qcurve" smooth="yes"/>
      <point x="334" y="655"/>
      <point x="410" y="597"/>
      <point x="527" y="575" type="qcurve" smooth="yes"/>
      <point x="707" y="539"/>
      <point x="882" y="399"/>
      <point x="882" y="277" type="qcurve" smooth="yes"/>
      <point x="882" y="146"/>
      <point x="657" y="-21"/>
      <point x="473" y="-21" type="qcurve" smooth="yes"/>
      <point x="278" y="-21"/>
      <point x="52" y="176"/>
      <point x="58" y="302" type="qcurve"/>
      <point x="59" y="308" type="line"/>
      <point x="300" y="308" type="line"/>
      <point x="302" y="229"/>
      <point x="400" y="159"/>
      <point x="478" y="159" type="qcurve" smooth="yes"/>
      <point x="551" y="159"/>
      <point x="627" y="217"/>
    </contour>
  </outline>
</glyph>
<glyph name="t" format="1">
  <advance width="644"/>
  <unicode hex="0074"/>
  <outline>
    <contour>
      <point x="413" y="1210" type="line"/>
      <point x="413" y="972" type="line"/>
      <point x="577" y="972" type="line"/>
      <point x="577" y="787" type="line"/>
      <point x="413" y="787" type="line"/>
      <point x="413" y="291" type="line" smooth="yes"/>
      <point x="413" y="235"/>
      <point x="460" y="186"/>
      <point x="500" y="186" type="qcurve" smooth="yes"/>
      <point x="520" y="186"/>
      <point x="550" y="191"/>
      <point x="570" y="196" type="qcurve"/>
      <point x="592" y="6" type="line"/>
      <point x="553" y="-7"/>
      <point x="477" y="-21"/>
      <point x="433" y="-21" type="qcurve" smooth="yes"/>
      <point x="297" y="-21"/>
      <point x="150" y="128"/>
      <point x="150" y="290" type="qcurve" smooth="yes"/>
      <point x="150" y="787" type="line"/>
      <point x="8" y="787" type="line"/>
      <point x="8" y="972" type="line"/>
      <point x="150" y="972" type="line"/>
      <point x="150" y="1210" type="line"/>
    </contour>
  </outline>
</glyph>
<glyph name="u" format="1">
  <advance width="1040"/>
  <unicode hex="0075"/>
  <outline>
    <contour>
      <point x="696" y="138" type="line"/>
      <point x="651" y="62"/>
      <point x="512" y="-21"/>
      <point x="422" y="-21" type="qcurve" smooth="yes"/>
      <point x="268" y="-21"/>
      <point x="95" y="176"/>
      <point x="95" y="384" type="qcurve" smooth="yes"/>
      <point x="95" y="972" type="line"/>
      <point x="356" y="972" type="line"/>
      <point x="356" y="382" type="line" smooth="yes"/>
      <point x="356" y="276"/>
      <point x="428" y="183"/>
      <point x="499" y="183" type="qcurve" smooth="yes"/>
      <point x="562" y="183"/>
      <point x="652" y="224"/>
      <point x="680" y="263" type="qcurve"/>
      <point x="680" y="972" type="line"/>
      <point x="943" y="972" type="line"/>
      <point x="943" y="-2" type="line"/>
      <point x="719" y="-2" type="line"/>
    </contour>
  </outline>
</glyph>
<glyph name="v" format="1">
  <advance width="941"/>
  <unicode hex="0076"/>
  <outline>
    <contour>
      <point x="453" y="363" type="line"/>
      <point x="470" y="273" type="line"/>
      <point x="475" y="273" type="line"/>
      <point x="493" y="363" type="line"/>
      <point x="653" y="974" type="line"/>
      <point x="928" y="974" type="line"/>
      <point x="597" y="0" type="line"/>
      <point x="346" y="0" type="line"/>
      <point x="14" y="974" type="line"/>
      <point x="289" y="974" type="line"/>
    </contour>
  </outline>
</glyph>
<glyph name="w" format="1">
  <advance width="1356"/>
  <unicode hex="0077"/>
  <outline>
    <contour>
      <point x="948" y="348" type="line"/>
      <point x="953" y="348" type="line"/>
      <point x="1080" y="974" type="line"/>
      <point x="1327" y="974" type="line"/>
      <point x="1079" y="0" type="line"/>
      <point x="860" y="0" type="line"/>
      <point x="679" y="580" type="line"/>
      <point x="673" y="580" type="line"/>
      <point x="492" y="0" type="line"/>
      <point x="274" y="0" type="line"/>
      <point x="26" y="974" type="line"/>
      <point x="273" y="974" type="line"/>
      <point x="401" y="350" type="line"/>
      <point x="407" y="350" type="line"/>
      <point x="589" y="974" type="line"/>
      <point x="764" y="974" type="line"/>
    </contour>
  </outline>
</glyph>
<glyph name="x" format="1">
  <advance width="941"/>
  <unicode hex="0078"/>
  <outline>
    <contour>
      <point x="467" y="664" type="line"/>
      <point x="473" y="664" type="line"/>
      <point x="622" y="974" type="line"/>
      <point x="919" y="974" type="line"/>
      <point x="626" y="492" type="line"/>
      <point x="929" y="0" type="line"/>
      <point x="633" y="0" type="line"/>
      <point x="473" y="323" type="line"/>
      <point x="314" y="0" type="line"/>
      <point x="17" y="0" type="line"/>
      <point x="320" y="492" type="line"/>
      <point x="26" y="974" type="line"/>
      <point x="321" y="974" type="line"/>
    </contour>
  </outline>
</glyph>
<glyph name="y" format="1">
  <advance width="941"/>
  <unicode hex="0079"/>
  <outline>
    <contour>
      <point x="452" y="365" type="line"/>
      <point x="463" y="311" type="line"/>
      <point x="468" y="311" type="line"/>
      <point x="654" y="930" type="line"/>
      <point x="937" y="930" type="line"/>
      <point x="542" y="-190" type="line" smooth="yes"/>
      <point x="500" y="-294"/>
      <point x="358" y="-437"/>
      <point x="216" y="-437" type="qcurve" smooth="yes"/>
      <point x="183" y="-437"/>
      <point x="126" y="-426"/>
      <point x="86" y="-416" type="qcurve"/>
      <point x="116" y="-225" type="line"/>
      <point x="128" y="-226"/>
      <point x="155" y="-230"/>
      <point x="166" y="-230" type="qcurve" smooth="yes"/>
      <point x="230" y="-230"/>
      <point x="301" y="-166"/>
      <point x="320" y="-118" type="qcurve" smooth="yes"/>
      <point x="350" y="-43" type="line"/>
      <point x="5" y="930" type="line"/>
      <point x="287" y="930" type="line"/>
    </contour>
  </outline>
</glyph>
<glyph name="z" format="1">
  <advance width="941"/>
  <unicode hex="007A"/>
  <outline>
    <contour>
      <point x="394" y="202" type="line"/>
      <point x="877" y="202" type="line"/>
      <point x="877" y="0" type="line"/>
      <point x="68" y="0" type="line"/>
      <point x="68" y="155" type="line"/>
      <point x="531" y="770" type="line"/>
      <point x="82" y="770" type="line"/>
      <point x="82" y="974" type="line"/>
      <point x="861" y="974" type="line"/>
      <point x="861" y="824" type="line"/>
    </contour>
  </outline>
</glyph>
<glyph name="bar" format="1">
  <advance width="681"/>
  <unicode hex="007C"/>
  <outline>
    <contour>
      <point x="421" y="-243" type="line"/>
      <point x="263" y="-243" type="line"/>
      <point x="263" y="1310" type="line"/>
      <point x="421" y="1310" type="line"/>
    </contour>
  </outline>
</glyph>
<glyph name="braceright" format="1">
  <advance width="851"/>
  <unicode hex="007D"/>
  <outline>
    <contour>
      <point x="168" y="-183" type="line"/>
      <point x="244" y="-155"/>
      <point x="307" y="-12"/>
      <point x="307" y="94" type="qcurve"/>
      <point x="307" y="277" type="line"/>
      <point x="307" y="371"/>
      <point x="389" y="516"/>
      <point x="473" y="556" type="qcurve"/>
      <point x="389" y="596"/>
      <point x="307" y="740"/>
      <point x="307" y="835" type="qcurve"/>
      <point x="307" y="1019" type="line"/>
      <point x="307" y="1126"/>
      <point x="244" y="1268"/>
      <point x="168" y="1296" type="qcurve"/>
      <point x="218" y="1437" type="line"/>
      <point x="392" y="1388"/>
      <point x="542" y="1173"/>
      <point x="542" y="1019" type="qcurve"/>
      <point x="542" y="835" type="line"/>
      <point x="542" y="745"/>
      <point x="620" y="647"/>
      <point x="701" y="647" type="qcurve"/>
      <point x="701" y="465" type="line"/>
      <point x="620" y="465"/>
      <point x="542" y="366"/>
      <point x="542" y="277" type="qcurve"/>
      <point x="542" y="94" type="line"/>
      <point x="542" y="-60"/>
      <point x="392" y="-276"/>
      <point x="218" y="-325" type="qcurve"/>
    </contour>
  </outline>
</glyph>
<glyph name="asciitilde" format="1">
  <advance width="1194"/>
  <unicode hex="007E"/>
  <outline>
    <contour>
      <point x="1098" y="720" type="line"/>
      <point x="1098" y="575"/>
      <point x="939" y="378"/>
      <point x="817" y="378" type="qcurve" smooth="yes"/>
      <point x="741" y="378"/>
      <point x="611" y="435"/>
      <point x="541" y="498" type="qcurve" smooth="yes"/>
      <point x="494" y="537"/>
      <point x="427" y="573"/>
      <point x="387" y="573" type="qcurve" smooth="yes"/>
      <point x="340" y="573"/>
      <point x="276" y="482"/>
      <point x="276" y="418" type="qcurve"/>
      <point x="95" y="441" type="line"/>
      <point x="95" y="587"/>
      <point x="250" y="780"/>
      <point x="374" y="780" type="qcurve" smooth="yes"/>
      <point x="448" y="780"/>
      <point x="584" y="720"/>
      <point x="653" y="661" type="qcurve" smooth="yes"/>
      <point x="697" y="620"/>
      <point x="764" y="585"/>
      <point x="804" y="585" type="qcurve" smooth="yes"/>
      <point x="849" y="585"/>
      <point x="915" y="679"/>
      <point x="915" y="744" type="qcurve"/>
    </contour>
  </outline>
</glyph>
<glyph name="exclamdown" format="1">
  <advance width="520"/>
  <unicode hex="00A1"/>
  <outline>
    <contour>
      <point x="153" y="538" type="line"/>
      <point x="370" y="538" type="line"/>
      <point x="400" y="-369" type="line"/>
      <point x="123" y="-369" type="line"/>
    </contour>
    <contour>
      <point x="407" y="816" type="qcurve" smooth="yes"/>
      <point x="407" y="756"/>
      <point x="324" y="679"/>
      <point x="261" y="679" type="qcurve" smooth="yes" name="inserted"/>
      <point x="198" y="679"/>
      <point x="115" y="756"/>
      <point x="115" y="816" type="qcurve" smooth="yes" name="inserted"/>
      <point x="115" y="877"/>
      <point x="195" y="954"/>
      <point x="261" y="954" type="qcurve" smooth="yes" name="inserted"/>
      <point x="327" y="954"/>
      <point x="407" y="877"/>
    </contour>
  </outline>
</glyph>
<glyph name="cent" format="1">
  <advance width="1060"/>
  <unicode hex="00A2"/>
  <outline>
    <contour>
      <point x="535" y="167" type="qcurve" smooth="yes"/>
      <point x="607" y="167"/>
      <point x="697" y="246"/>
      <point x="698" y="312" type="qcurve"/>
      <point x="943" y="312" type="line"/>
      <point x="941" y="182"/>
      <point x="768" y="-8"/>
      <point x="628" y="-34" type="qcurve"/>
      <point x="628" y="-245" type="line"/>
      <point x="448" y="-245" type="line"/>
      <point x="448" y="-35" type="line"/>
      <point x="280" y="-8"/>
      <point x="89" y="251"/>
      <point x="89" y="454" type="qcurve" smooth="yes"/>
      <point x="89" y="474" type="line" smooth="yes"/>
      <point x="89" y="670"/>
      <point x="278" y="931"/>
      <point x="448" y="960" type="qcurve"/>
      <point x="448" y="1162" type="line"/>
      <point x="628" y="1162" type="line"/>
      <point x="628" y="959" type="line"/>
      <point x="775" y="933"/>
      <point x="941" y="733"/>
      <point x="943" y="587" type="qcurve"/>
      <point x="698" y="587" type="line"/>
      <point x="697" y="664"/>
      <point x="607" y="757"/>
      <point x="534" y="757" type="qcurve" smooth="yes"/>
      <point x="442" y="757"/>
      <point x="350" y="623"/>
      <point x="349" y="479" type="qcurve"/>
      <point x="349" y="449" type="line" smooth="yes"/>
      <point x="349" y="298"/>
      <point x="442" y="167"/>
    </contour>
  </outline>
</glyph>
<glyph name="sterling" format="1">
  <advance width="1095"/>
  <unicode hex="00A3"/>
  <outline>
    <contour>
      <point x="508" y="518" type="line"/>
      <point x="513" y="393" type="line" smooth="yes"/>
      <point x="513" y="338" name="inserted"/>
      <point x="485" y="250"/>
      <point x="457" y="217" type="qcurve"/>
      <point x="1045" y="217" type="line"/>
      <point x="1045" y="0" type="line"/>
      <point x="92" y="0" type="line"/>
      <point x="92" y="217" type="line"/>
      <point x="175" y="217" type="line"/>
      <point x="207" y="225" name="inserted"/>
      <point x="239" y="306"/>
      <point x="239" y="378" type="qcurve" smooth="yes"/>
      <point x="235" y="518" type="line"/>
      <point x="89" y="518" type="line"/>
      <point x="89" y="731" type="line"/>
      <point x="228" y="731" type="line"/>
      <point x="221" y="935" type="line" smooth="yes"/>
      <point x="221" y="1117"/>
      <point x="444" y="1328"/>
      <point x="630" y="1328" type="qcurve" smooth="yes"/>
      <point x="821" y="1328"/>
      <point x="1039" y="1125"/>
      <point x="1039" y="952" type="qcurve"/>
      <point x="780" y="952" type="line"/>
      <point x="780" y="1029"/>
      <point x="702" y="1110"/>
      <point x="629" y="1110" type="qcurve" smooth="yes"/>
      <point x="570" y="1110"/>
      <point x="491" y="1022"/>
      <point x="491" y="935" type="qcurve" smooth="yes"/>
      <point x="500" y="731" type="line"/>
      <point x="778" y="731" type="line"/>
      <point x="778" y="518" type="line"/>
    </contour>
  </outline>
</glyph>
<glyph name="currency" format="1">
  <advance width="1276"/>
  <unicode hex="00A4"/>
  <outline>
    <contour>
      <point x="966" y="94" type="line"/>
      <point x="894" y="36" name="inserted"/>
      <point x="732" y="-21"/>
      <point x="641" y="-21" type="qcurve" smooth="yes"/>
      <point x="549" y="-21" name="inserted"/>
      <point x="387" y="36"/>
      <point x="316" y="93" type="qcurve"/>
      <point x="200" y="-26" type="line"/>
      <point x="73" y="104" type="line"/>
      <point x="194" y="227" type="line"/>
      <point x="149" y="297" name="inserted"/>
      <point x="104" y="456"/>
      <point x="104" y="545" type="qcurve" smooth="yes"/>
      <point x="104" y="636" name="inserted"/>
      <point x="153" y="801"/>
      <point x="203" y="873" type="qcurve"/>
      <point x="73" y="1005" type="line"/>
      <point x="200" y="1135" type="line"/>
      <point x="328" y="1004" type="line"/>
      <point x="397" y="1056" name="inserted"/>
      <point x="554" y="1108"/>
      <point x="641" y="1108" type="qcurve" smooth="yes"/>
      <point x="728" y="1108" name="inserted"/>
      <point x="885" y="1055"/>
      <point x="955" y="1003" type="qcurve"/>
      <point x="1085" y="1136" type="line"/>
      <point x="1212" y="1005" type="line"/>
      <point x="1079" y="869" type="line"/>
      <point x="1127" y="798" name="inserted"/>
      <point x="1175" y="635"/>
      <point x="1175" y="545" type="qcurve" smooth="yes"/>
      <point x="1175" y="458" name="inserted"/>
      <point x="1131" y="301"/>
      <point x="1087" y="230" type="qcurve"/>
      <point x="1212" y="104" type="line"/>
      <point x="1085" y="-27" type="line"/>
    </contour>
    <contour>
      <point x="272" y="545" type="qcurve" smooth="yes"/>
      <point x="272" y="438"/>
      <point x="369" y="256"/>
      <point x="455" y="203" type="qcurve" smooth="yes" name="inserted"/>
      <point x="498" y="177" name="inserted"/>
      <point x="591" y="150"/>
      <point x="641" y="150" type="qcurve" smooth="yes"/>
      <point x="740" y="150"/>
      <point x="912" y="256"/>
      <point x="960" y="347" type="qcurve" smooth="yes" name="inserted"/>
      <point x="985" y="393" name="inserted"/>
      <point x="1009" y="491"/>
      <point x="1009" y="545" type="qcurve" smooth="yes"/>
      <point x="1009" y="652"/>
      <point x="912" y="833"/>
      <point x="826" y="885" type="qcurve" smooth="yes" name="inserted"/>
      <point x="783" y="911" name="inserted"/>
      <point x="691" y="937"/>
      <point x="641" y="937" type="qcurve" smooth="yes"/>
      <point x="540" y="937"/>
      <point x="369" y="833"/>
      <point x="320" y="742" type="qcurve" smooth="yes" name="inserted"/>
      <point x="296" y="697" name="inserted"/>
      <point x="272" y="598"/>
    </contour>
  </outline>
</glyph>
<glyph name="yen" format="1">
  <advance width="1129"/>
  <unicode hex="00A5"/>
  <outline>
    <contour>
      <point x="563" y="765" type="line"/>
      <point x="813" y="1310" type="line"/>
      <point x="1109" y="1310" type="line"/>
      <point x="771" y="668" type="line"/>
      <point x="982" y="668" type="line"/>
      <point x="982" y="510" type="line"/>
      <point x="695" y="510" type="line"/>
      <point x="695" y="407" type="line"/>
      <point x="982" y="407" type="line"/>
      <point x="982" y="250" type="line"/>
      <point x="695" y="250" type="line"/>
      <point x="695" y="0" type="line"/>
      <point x="425" y="0" type="line"/>
      <point x="425" y="250" type="line"/>
      <point x="122" y="250" type="line"/>
      <point x="122" y="407" type="line"/>
      <point x="425" y="407" type="line"/>
      <point x="425" y="510" type="line"/>
      <point x="122" y="510" type="line"/>
      <point x="122" y="668" type="line"/>
      <point x="356" y="668" type="line"/>
      <point x="18" y="1310" type="line"/>
      <point x="315" y="1310" type="line"/>
    </contour>
  </outline>
</glyph>
<glyph name="brokenbar" format="1">
  <advance width="464"/>
  <unicode hex="00A6"/>
  <outline>
    <contour>
      <point x="115" y="-270" type="line"/>
      <point x="115" y="446" type="line"/>
      <point x="349" y="446" type="line"/>
      <point x="349" y="-270" type="line"/>
    </contour>
    <contour>
      <point x="349" y="601" type="line"/>
      <point x="115" y="601" type="line"/>
      <point x="115" y="1283" type="line"/>
      <point x="349" y="1283" type="line"/>
    </contour>
  </outline>
</glyph>
<glyph name="section" format="1">
  <advance width="1158"/>
  <unicode hex="00A7"/>
  <outline>
    <contour>
      <point x="1062" y="388" type="qcurve" smooth="yes"/>
      <point x="1062" y="306" name="inserted"/>
      <point x="989" y="184"/>
      <point x="916" y="144" type="qcurve"/>
      <point x="977" y="98" name="inserted"/>
      <point x="1038" y="-32"/>
      <point x="1038" y="-115" type="qcurve" smooth="yes"/>
      <point x="1038" y="-273"/>
      <point x="790" y="-452"/>
      <point x="572" y="-452" type="qcurve" smooth="yes"/>
      <point x="341" y="-452"/>
      <point x="83" y="-259"/>
      <point x="83" y="-77" type="qcurve"/>
      <point x="343" y="-76" type="line"/>
      <point x="343" y="-156"/>
      <point x="458" y="-241"/>
      <point x="572" y="-241" type="qcurve" smooth="yes"/>
      <point x="673" y="-241"/>
      <point x="778" y="-174"/>
      <point x="778" y="-117" type="qcurve" smooth="yes"/>
      <point x="778" y="-59"/>
      <point x="662" y="15"/>
      <point x="497" y="61" type="qcurve" smooth="yes" name="inserted"/>
      <point x="333" y="106"/>
      <point x="167" y="205"/>
      <point x="126" y="273" type="qcurve" smooth="yes" name="inserted"/>
      <point x="105" y="306" name="inserted"/>
      <point x="85" y="388"/>
      <point x="85" y="435" type="qcurve" smooth="yes"/>
      <point x="85" y="516" name="inserted"/>
      <point x="158" y="639"/>
      <point x="230" y="681" type="qcurve"/>
      <point x="169" y="727" name="inserted"/>
      <point x="108" y="857"/>
      <point x="108" y="940" type="qcurve" smooth="yes"/>
      <point x="108" y="1094"/>
      <point x="361" y="1283"/>
      <point x="576" y="1283" type="qcurve" smooth="yes"/>
      <point x="798" y="1283"/>
      <point x="1043" y="1080"/>
      <point x="1043" y="899" type="qcurve"/>
      <point x="783" y="899" type="line"/>
      <point x="783" y="977"/>
      <point x="672" y="1074"/>
      <point x="576" y="1074" type="qcurve" smooth="yes"/>
      <point x="477" y="1074"/>
      <point x="369" y="1003"/>
      <point x="369" y="942" type="qcurve" smooth="yes"/>
      <point x="369" y="876"/>
      <point x="469" y="810"/>
      <point x="635" y="766" type="qcurve" smooth="yes" name="inserted"/>
      <point x="802" y="722"/>
      <point x="977" y="623"/>
      <point x="1020" y="554" type="qcurve" smooth="yes" name="inserted"/>
      <point x="1041" y="519" name="inserted"/>
      <point x="1062" y="436"/>
    </contour>
    <contour>
      <point x="412" y="588" type="line"/>
      <point x="378" y="570" name="inserted"/>
      <point x="345" y="506"/>
      <point x="345" y="462" type="qcurve" smooth="yes"/>
      <point x="345" y="399"/>
      <point x="419" y="332"/>
      <point x="531" y="296" type="qcurve" smooth="yes"/>
      <point x="731" y="236" type="line"/>
      <point x="768" y="257" name="inserted"/>
      <point x="805" y="320"/>
      <point x="805" y="362" type="qcurve" smooth="yes"/>
      <point x="805" y="417"/>
      <point x="723" y="489"/>
      <point x="617" y="525" type="qcurve" smooth="yes"/>
    </contour>
  </outline>
</glyph>
<glyph name="dieresis" format="1">
  <advance width="860"/>
  <unicode hex="00A8"/>
  <outline>
    <contour>
      <point x="84" y="1352" type="qcurve" smooth="yes"/>
      <point x="84" y="1401"/>
      <point x="153" y="1467"/>
      <point x="208" y="1467" type="qcurve" smooth="yes"/>
      <point x="264" y="1467"/>
      <point x="332" y="1399"/>
      <point x="332" y="1352" type="qcurve" smooth="yes" name="inserted"/>
      <point x="332" y="1306"/>
      <point x="264" y="1239"/>
      <point x="208" y="1239" type="qcurve" smooth="yes"/>
      <point x="155" y="1239"/>
      <point x="84" y="1303"/>
    </contour>
    <contour>
      <point x="522" y="1352" type="qcurve" smooth="yes"/>
      <point x="522" y="1400"/>
      <point x="593" y="1467"/>
      <point x="646" y="1467" type="qcurve" smooth="yes"/>
      <point x="698" y="1467"/>
      <point x="771" y="1401"/>
      <point x="771" y="1352" type="qcurve" smooth="yes"/>
      <point x="771" y="1306"/>
      <point x="702" y="1238"/>
      <point x="646" y="1238" type="qcurve" smooth="yes" name="inserted"/>
      <point x="590" y="1238"/>
      <point x="522" y="1306"/>
    </contour>
  </outline>
</glyph>
<glyph name="copyright" format="1">
  <advance width="1445"/>
  <unicode hex="00A9"/>
  <outline>
    <contour>
      <point x="998" y="534" type="line"/>
      <point x="1000" y="529" type="line"/>
      <point x="1004" y="393"/>
      <point x="845" y="252"/>
      <point x="704" y="252" type="qcurve" smooth="yes"/>
      <point x="560" y="252"/>
      <point x="390" y="443"/>
      <point x="390" y="600" type="qcurve" smooth="yes"/>
      <point x="390" y="707" type="line" smooth="yes"/>
      <point x="390" y="863"/>
      <point x="560" y="1055"/>
      <point x="704" y="1055" type="qcurve" smooth="yes"/>
      <point x="845" y="1055"/>
      <point x="1004" y="912"/>
      <point x="1001" y="778" type="qcurve"/>
      <point x="999" y="773" type="line"/>
      <point x="866" y="773" type="line"/>
      <point x="866" y="857"/>
      <point x="785" y="934"/>
      <point x="704" y="934" type="qcurve" smooth="yes"/>
      <point x="619" y="934"/>
      <point x="529" y="810"/>
      <point x="529" y="708" type="qcurve" smooth="yes"/>
      <point x="529" y="600" type="line" smooth="yes"/>
      <point x="529" y="497"/>
      <point x="619" y="373"/>
      <point x="704" y="373" type="qcurve" smooth="yes"/>
      <point x="785" y="373"/>
      <point x="865" y="448"/>
      <point x="865" y="534" type="qcurve"/>
    </contour>
    <contour>
      <point x="187" y="654" type="qcurve" smooth="yes"/>
      <point x="187" y="416"/>
      <point x="496" y="92"/>
      <point x="716" y="92" type="qcurve" smooth="yes"/>
      <point x="936" y="92"/>
      <point x="1245" y="416"/>
      <point x="1245" y="654" type="qcurve" smooth="yes"/>
      <point x="1245" y="891"/>
      <point x="936" y="1214"/>
      <point x="716" y="1214" type="qcurve" smooth="yes"/>
      <point x="495" y="1214"/>
      <point x="187" y="891"/>
    </contour>
    <contour>
      <point x="77" y="654" type="qcurve" smooth="yes"/>
      <point x="77" y="938"/>
      <point x="450" y="1326"/>
      <point x="716" y="1326" type="qcurve" smooth="yes"/>
      <point x="982" y="1326"/>
      <point x="1355" y="938"/>
      <point x="1355" y="654" type="qcurve" smooth="yes"/>
      <point x="1355" y="370"/>
      <point x="981" y="-21"/>
      <point x="716" y="-21" type="qcurve" smooth="yes"/>
      <point x="450" y="-21"/>
      <point x="77" y="370"/>
    </contour>
  </outline>
</glyph>
<glyph name="ordfeminine" format="1">
  <advance width="818"/>
  <unicode hex="00AA"/>
  <outline>
    <contour>
      <point x="544" y="704" type="line"/>
      <point x="539" y="716" name="inserted"/>
      <point x="531" y="746"/>
      <point x="528" y="765" type="qcurve"/>
      <point x="494" y="728" name="inserted"/>
      <point x="403" y="691"/>
      <point x="347" y="691" type="qcurve" smooth="yes"/>
      <point x="241" y="691"/>
      <point x="123" y="802"/>
      <point x="123" y="896" type="qcurve" smooth="yes"/>
      <point x="123" y="995"/>
      <point x="275" y="1104"/>
      <point x="430" y="1104" type="qcurve" smooth="yes"/>
      <point x="522" y="1104" type="line"/>
      <point x="522" y="1150" type="line" smooth="yes"/>
      <point x="522" y="1207" name="inserted"/>
      <point x="470" y="1264"/>
      <point x="418" y="1264" type="qcurve" smooth="yes"/>
      <point x="359" y="1264"/>
      <point x="293" y="1218"/>
      <point x="293" y="1175" type="qcurve"/>
      <point x="138" y="1188" type="line"/>
      <point x="138" y="1281"/>
      <point x="295" y="1398"/>
      <point x="418" y="1398" type="qcurve" smooth="yes"/>
      <point x="539" y="1398"/>
      <point x="680" y="1268"/>
      <point x="680" y="1148" type="qcurve" smooth="yes"/>
      <point x="680" y="864" type="line" smooth="yes"/>
      <point x="680" y="820" name="inserted"/>
      <point x="691" y="740"/>
      <point x="703" y="704" type="qcurve"/>
    </contour>
    <contour>
      <point x="386" y="821" type="qcurve" smooth="yes"/>
      <point x="422" y="821"/>
      <point x="498" y="854"/>
      <point x="522" y="876" type="qcurve"/>
      <point x="522" y="999" type="line"/>
      <point x="427" y="999" type="line" smooth="yes"/>
      <point x="358" y="998"/>
      <point x="281" y="944"/>
      <point x="281" y="900" type="qcurve" smooth="yes"/>
      <point x="281" y="860" name="inserted"/>
      <point x="333" y="821"/>
    </contour>
  </outline>
</glyph>
<glyph name="logicalnot" format="1">
  <advance width="1016"/>
  <unicode hex="00AC"/>
  <outline>
    <contour>
      <point x="865" y="374" type="line"/>
      <point x="685" y="374" type="line"/>
      <point x="685" y="608" type="line"/>
      <point x="113" y="608" type="line"/>
      <point x="113" y="762" type="line"/>
      <point x="865" y="762" type="line"/>
    </contour>
  </outline>
</glyph>
<glyph name="registered" format="1">
  <advance width="1445"/>
  <unicode hex="00AE"/>
  <outline>
    <contour>
      <point x="77" y="654" type="qcurve" smooth="yes"/>
      <point x="77" y="836"/>
      <point x="246" y="1147"/>
      <point x="395" y="1237" type="qcurve" smooth="yes" name="inserted"/>
      <point x="544" y="1326"/>
      <point x="889" y="1326"/>
      <point x="1038" y="1237" type="qcurve" smooth="yes" name="inserted"/>
      <point x="1187" y="1147"/>
      <point x="1355" y="836"/>
      <point x="1355" y="654" type="qcurve" smooth="yes"/>
      <point x="1355" y="471"/>
      <point x="1184" y="158"/>
      <point x="1036" y="69" type="qcurve" smooth="yes" name="inserted"/>
      <point x="962" y="25" name="inserted"/>
      <point x="802" y="-20"/>
      <point x="716" y="-20" type="qcurve" smooth="yes"/>
      <point x="543" y="-20"/>
      <point x="247" y="160"/>
      <point x="162" y="316" type="qcurve" smooth="yes" name="inserted"/>
      <point x="120" y="394" name="inserted"/>
      <point x="77" y="563"/>
    </contour>
    <contour>
      <point x="1245" y="654" type="qcurve" smooth="yes"/>
      <point x="1245" y="804"/>
      <point x="1110" y="1060"/>
      <point x="986" y="1137" type="qcurve" smooth="yes" name="inserted"/>
      <point x="925" y="1175" name="inserted"/>
      <point x="790" y="1214"/>
      <point x="716" y="1214" type="qcurve" smooth="yes"/>
      <point x="573" y="1214"/>
      <point x="328" y="1066"/>
      <point x="257" y="937" type="qcurve" smooth="yes" name="inserted"/>
      <point x="187" y="807"/>
      <point x="187" y="501"/>
      <point x="257" y="372" type="qcurve" smooth="yes" name="inserted"/>
      <point x="327" y="242"/>
      <point x="572" y="92"/>
      <point x="716" y="92" type="qcurve" smooth="yes" name="inserted"/>
      <point x="860" y="92"/>
      <point x="1108" y="245"/>
      <point x="1176" y="374" type="qcurve" smooth="yes" name="inserted"/>
      <point x="1211" y="439" name="inserted"/>
      <point x="1245" y="579"/>
    </contour>
    <contour>
      <point x="587" y="586" type="line"/>
      <point x="587" y="282" type="line"/>
      <point x="451" y="282" type="line"/>
      <point x="451" y="1047" type="line"/>
      <point x="704" y="1047" type="line" smooth="yes"/>
      <point x="840" y="1047"/>
      <point x="996" y="924"/>
      <point x="996" y="811" type="qcurve" smooth="yes"/>
      <point x="996" y="760" name="inserted"/>
      <point x="945" y="682"/>
      <point x="895" y="654" type="qcurve"/>
      <point x="950" y="626"/>
      <point x="994" y="526"/>
      <point x="994" y="453" type="qcurve" smooth="yes" name="inserted"/>
      <point x="994" y="379"/>
      <point x="1000" y="318"/>
      <point x="1009" y="297" type="qcurve"/>
      <point x="1009" y="282" type="line"/>
      <point x="869" y="282" type="line"/>
      <point x="864" y="298" name="inserted"/>
      <point x="858" y="385"/>
      <point x="858" y="457" type="qcurve" smooth="yes"/>
      <point x="858" y="525"/>
      <point x="798" y="586"/>
      <point x="729" y="586" type="qcurve" smooth="yes"/>
    </contour>
    <contour>
      <point x="587" y="706" type="line"/>
      <point x="709" y="706" type="line" smooth="yes"/>
      <point x="776" y="706"/>
      <point x="861" y="764"/>
      <point x="861" y="811" type="qcurve" smooth="yes"/>
      <point x="861" y="874"/>
      <point x="797" y="927"/>
      <point x="714" y="928" type="qcurve" smooth="yes"/>
      <point x="587" y="928" type="line"/>
    </contour>
  </outline>
</glyph>
<glyph name="macron" format="1">
  <advance width="923"/>
  <unicode hex="00AF"/>
  <outline>
    <contour>
      <point x="790" y="1290" type="line"/>
      <point x="133" y="1290" type="line"/>
      <point x="133" y="1440" type="line"/>
      <point x="790" y="1440" type="line"/>
    </contour>
  </outline>
</glyph>
<glyph name="degree" format="1">
  <advance width="716"/>
  <unicode hex="00B0"/>
  <outline>
    <contour>
      <point x="113" y="1173" type="qcurve" smooth="yes"/>
      <point x="113" y="1275"/>
      <point x="259" y="1421"/>
      <point x="358" y="1421" type="qcurve" smooth="yes"/>
      <point x="456" y="1421"/>
      <point x="599" y="1276"/>
      <point x="599" y="1173" type="qcurve" smooth="yes" name="inserted"/>
      <point x="599" y="1069"/>
      <point x="456" y="928"/>
      <point x="358" y="928" type="qcurve" smooth="yes"/>
      <point x="261" y="928"/>
      <point x="113" y="1069"/>
    </contour>
    <contour>
      <point x="358" y="1061" type="qcurve" smooth="yes"/>
      <point x="406" y="1061"/>
      <point x="468" y="1125"/>
      <point x="468" y="1173" type="qcurve" smooth="yes"/>
      <point x="468" y="1220"/>
      <point x="406" y="1288"/>
      <point x="358" y="1288" type="qcurve" smooth="yes" name="inserted"/>
      <point x="311" y="1288"/>
      <point x="246" y="1220"/>
      <point x="246" y="1173" type="qcurve" smooth="yes" name="inserted"/>
      <point x="246" y="1126"/>
      <point x="311" y="1061"/>
    </contour>
  </outline>
</glyph>
<glyph name="plusminus" format="1">
  <advance width="990.0"/>
  <unicode hex="00B1"/>
  <outline>
    <contour>
      <point x="609" y="848" type="line"/>
      <point x="905" y="848" type="line"/>
      <point x="905" y="631" type="line"/>
      <point x="609" y="631" type="line"/>
      <point x="609" y="303" type="line"/>
      <point x="382" y="303" type="line"/>
      <point x="382" y="631" type="line"/>
      <point x="80" y="631" type="line"/>
      <point x="80" y="848" type="line"/>
      <point x="382" y="848" type="line"/>
      <point x="382" y="1157" type="line"/>
      <point x="609" y="1157" type="line"/>
    </contour>
    <contour>
      <point x="879" y="1" type="line"/>
      <point x="102" y="1" type="line"/>
      <point x="102" y="213" type="line"/>
      <point x="879" y="213" type="line"/>
    </contour>
  </outline>
</glyph>
<glyph name="acute" format="1">
  <advance width="611"/>
  <unicode hex="00B4"/>
  <outline>
    <contour>
      <point x="268" y="1505" type="line"/>
      <point x="552" y="1505" type="line"/>
      <point x="302" y="1226" type="line"/>
      <point x="91" y="1226" type="line"/>
    </contour>
  </outline>
</glyph>
<glyph name="uni00B5" format="1">
  <advance width="1135"/>
  <unicode hex="00B5"/>
  <outline>
    <contour>
      <point x="385" y="932" type="line"/>
      <point x="385" y="372" type="line" smooth="yes"/>
      <point x="385" y="258"/>
      <point x="458" y="151"/>
      <point x="547" y="151" type="qcurve" smooth="yes"/>
      <point x="614" y="151" name="inserted"/>
      <point x="707" y="198"/>
      <point x="732" y="246" type="qcurve"/>
      <point x="732" y="932" type="line"/>
      <point x="992" y="932" type="line"/>
      <point x="992" y="-42" type="line"/>
      <point x="750" y="-42" type="line"/>
      <point x="744" y="20" type="line"/>
      <point x="704" y="-20" name="inserted"/>
      <point x="603" y="-60"/>
      <point x="542" y="-60" type="qcurve" smooth="yes"/>
      <point x="496" y="-60" name="inserted"/>
      <point x="418" y="-40"/>
      <point x="385" y="-20" type="qcurve"/>
      <point x="385" y="-416" type="line"/>
      <point x="125" y="-416" type="line"/>
      <point x="125" y="932" type="line"/>
    </contour>
  </outline>
</glyph>
<glyph name="paragraph" format="1">
  <advance width="903"/>
  <unicode hex="00B6"/>
  <outline>
    <contour>
      <point x="585" y="0" type="line"/>
      <point x="585" y="468" type="line"/>
      <point x="513" y="468" type="line" smooth="yes"/>
      <point x="306" y="468"/>
      <point x="68" y="697"/>
      <point x="68" y="889" type="qcurve" smooth="yes"/>
      <point x="68" y="1081"/>
      <point x="307" y="1310"/>
      <point x="514" y="1310" type="qcurve" smooth="yes"/>
      <point x="782" y="1310" type="line"/>
      <point x="782" y="0" type="line"/>
    </contour>
  </outline>
</glyph>
<glyph name="periodcentered" format="1">
  <advance width="555"/>
  <unicode hex="00B7"/>
  <outline>
    <contour>
      <point x="126" y="682" type="qcurve" smooth="yes"/>
      <point x="126" y="744"/>
      <point x="209" y="821"/>
      <point x="273" y="821" type="qcurve" smooth="yes" name="inserted"/>
      <point x="337" y="821"/>
      <point x="420" y="744"/>
      <point x="420" y="682" type="qcurve" smooth="yes" name="inserted"/>
      <point x="420" y="620"/>
      <point x="336" y="543"/>
      <point x="273" y="543" type="qcurve" smooth="yes"/>
      <point x="208" y="543"/>
      <point x="126" y="621"/>
    </contour>
  </outline>
</glyph>
<glyph name="cedilla" format="1">
  <advance width="493"/>
  <unicode hex="00B8"/>
  <outline>
    <contour>
      <point x="311" y="-40" type="line"/>
      <point x="301" y="-92" type="line"/>
      <point x="368" y="-104" name="inserted"/>
      <point x="436" y="-182"/>
      <point x="436" y="-248" type="qcurve" smooth="yes"/>
      <point x="436" y="-347"/>
      <point x="271" y="-462"/>
      <point x="122" y="-462" type="qcurve"/>
      <point x="115" y="-312" type="line"/>
      <point x="166" y="-312" name="inserted"/>
      <point x="216" y="-275"/>
      <point x="216" y="-239" type="qcurve" smooth="yes"/>
      <point x="216" y="-201"/>
      <point x="156" y="-173"/>
      <point x="88" y="-169" type="qcurve"/>
      <point x="116" y="-40" type="line"/>
    </contour>
  </outline>
</glyph>
<glyph name="ordmasculine" format="1">
  <advance width="842"/>
  <unicode hex="00BA"/>
  <outline>
    <contour>
      <point x="106" y="1078" type="line" smooth="yes"/>
      <point x="106" y="1222"/>
      <point x="278" y="1397"/>
      <point x="418" y="1397" type="qcurve" smooth="yes" name="inserted"/>
      <point x="557" y="1397"/>
      <point x="730" y="1223"/>
      <point x="730" y="1073" type="qcurve" smooth="yes"/>
      <point x="730" y="1009" type="line" smooth="yes"/>
      <point x="730" y="866"/>
      <point x="561" y="690"/>
      <point x="419" y="690" type="qcurve" smooth="yes"/>
      <point x="277" y="690"/>
      <point x="106" y="866"/>
      <point x="106" y="1013" type="qcurve" smooth="yes"/>
    </contour>
    <contour>
      <point x="264" y="1009" type="line" smooth="yes"/>
      <point x="264" y="920"/>
      <point x="347" y="821"/>
      <point x="419" y="821" type="qcurve" smooth="yes"/>
      <point x="490" y="821"/>
      <point x="572" y="919"/>
      <point x="572" y="1006" type="qcurve" smooth="yes"/>
      <point x="572" y="1078" type="line" smooth="yes"/>
      <point x="572" y="1165"/>
      <point x="489" y="1264"/>
      <point x="418" y="1264" type="qcurve" smooth="yes"/>
      <point x="347" y="1264"/>
      <point x="264" y="1166"/>
      <point x="264" y="1074" type="qcurve" smooth="yes"/>
    </contour>
  </outline>
</glyph>
<glyph name="questiondown" format="1">
  <advance width="917"/>
  <unicode hex="00BF"/>
  <outline>
    <contour>
      <point x="599" y="540" type="line"/>
      <point x="599" y="421"/>
      <point x="544" y="273"/>
      <point x="472" y="206" type="qcurve" smooth="yes" name="inserted"/>
      <point x="401" y="140"/>
      <point x="349" y="75"/>
      <point x="336" y="42" type="qcurve" smooth="yes" name="inserted"/>
      <point x="330" y="25" name="inserted"/>
      <point x="323" y="-12"/>
      <point x="323" y="-31" type="qcurve" smooth="yes"/>
      <point x="323" y="-102" name="inserted"/>
      <point x="392" y="-173"/>
      <point x="462" y="-173" type="qcurve" smooth="yes"/>
      <point x="531" y="-173"/>
      <point x="613" y="-92"/>
      <point x="615" y="-19" type="qcurve"/>
      <point x="875" y="-19" type="line"/>
      <point x="873" y="-192"/>
      <point x="655" y="-385"/>
      <point x="466" y="-385" type="qcurve" smooth="yes"/>
      <point x="275" y="-385"/>
      <point x="62" y="-202"/>
      <point x="62" y="-33" type="qcurve" smooth="yes"/>
      <point x="62" y="38" name="inserted"/>
      <point x="131" y="179"/>
      <point x="200" y="248" type="qcurve" smooth="yes"/>
      <point x="287" y="331" type="line" smooth="yes"/>
      <point x="332" y="372"/>
      <point x="367" y="460"/>
      <point x="369" y="540" type="qcurve"/>
    </contour>
    <contour>
      <point x="632" y="816" type="qcurve" smooth="yes"/>
      <point x="632" y="755"/>
      <point x="549" y="678"/>
      <point x="486" y="678" type="qcurve" smooth="yes" name="inserted"/>
      <point x="423" y="678"/>
      <point x="340" y="755"/>
      <point x="340" y="816" type="qcurve" smooth="yes" name="inserted"/>
      <point x="340" y="876"/>
      <point x="420" y="953"/>
      <point x="486" y="953" type="qcurve" smooth="yes" name="inserted"/>
      <point x="552" y="953"/>
      <point x="632" y="876"/>
    </contour>
  </outline>
</glyph>
<glyph name="AE" format="1">
  <advance width="1733"/>
  <unicode hex="00C6"/>
  <outline>
    <contour>
      <point x="1679" y="0" type="line"/>
      <point x="871" y="0" type="line"/>
      <point x="859" y="300" type="line"/>
      <point x="457" y="300" type="line"/>
      <point x="307" y="0" type="line"/>
      <point x="2" y="0" type="line"/>
      <point x="709" y="1310" type="line"/>
      <point x="1624" y="1310" type="line"/>
      <point x="1624" y="1098" type="line"/>
      <point x="1085" y="1098" type="line"/>
      <point x="1099" y="779" type="line"/>
      <point x="1551" y="779" type="line"/>
      <point x="1551" y="566" type="line"/>
      <point x="1108" y="566" type="line"/>
      <point x="1122" y="212" type="line"/>
      <point x="1679" y="212" type="line"/>
    </contour>
    <contour>
      <point x="570" y="522" type="line"/>
      <point x="850" y="522" type="line"/>
      <point x="828" y="1035" type="line"/>
    </contour>
  </outline>
</glyph>
<glyph name="multiply" format="1">
  <advance width="979"/>
  <unicode hex="00D7"/>
  <outline>
    <contour>
      <point x="58" y="355" type="line"/>
      <point x="336" y="638" type="line"/>
      <point x="58" y="922" type="line"/>
      <point x="212" y="1069" type="line"/>
      <point x="485" y="790" type="line"/>
      <point x="759" y="1069" type="line"/>
      <point x="914" y="922" type="line"/>
      <point x="635" y="638" type="line"/>
      <point x="914" y="355" type="line"/>
      <point x="759" y="207" type="line"/>
      <point x="485" y="485" type="line"/>
      <point x="212" y="207" type="line"/>
    </contour>
  </outline>
</glyph>
<glyph name="Oslash" format="1">
  <advance width="1270"/>
  <unicode hex="00D8"/>
  <outline>
    <contour>
      <point x="1200" y="616" type="line" smooth="yes"/>
      <point x="1200" y="423"/>
      <point x="1063" y="131"/>
      <point x="936" y="52" type="qcurve" smooth="yes" name="inserted"/>
      <point x="872" y="12" name="inserted"/>
      <point x="726" y="-28"/>
      <point x="644" y="-28" type="qcurve" smooth="yes"/>
      <point x="570" y="-28" name="inserted"/>
      <point x="437" y="4"/>
      <point x="378" y="36" type="qcurve"/>
      <point x="302" y="-95" type="line"/>
      <point x="132" y="-95" type="line"/>
      <point x="261" y="123" type="line"/>
      <point x="172" y="211" name="inserted"/>
      <point x="84" y="460"/>
      <point x="84" y="622" type="qcurve" smooth="yes"/>
      <point x="84" y="674" type="line" smooth="yes"/>
      <point x="84" y="867"/>
      <point x="223" y="1161"/>
      <point x="351" y="1240" type="qcurve" smooth="yes" name="inserted"/>
      <point x="414" y="1280" name="inserted"/>
      <point x="560" y="1319"/>
      <point x="642" y="1319" type="qcurve" smooth="yes"/>
      <point x="720" y="1319" name="inserted"/>
      <point x="862" y="1282"/>
      <point x="924" y="1245" type="qcurve"/>
      <point x="991" y="1357" type="line"/>
      <point x="1159" y="1357" type="line"/>
      <point x="1039" y="1152" type="line"/>
      <point x="1119" y="1063" name="inserted"/>
      <point x="1200" y="822"/>
      <point x="1200" y="669" type="qcurve" smooth="yes"/>
    </contour>
    <contour>
      <point x="357" y="616" type="line" smooth="yes"/>
      <point x="357" y="539" name="inserted"/>
      <point x="379" y="410"/>
      <point x="401" y="360" type="qcurve"/>
      <point x="804" y="1041" type="line"/>
      <point x="771" y="1068" name="inserted"/>
      <point x="690" y="1096"/>
      <point x="642" y="1096" type="qcurve" smooth="yes"/>
      <point x="506" y="1096"/>
      <point x="358" y="884"/>
      <point x="357" y="680" type="qcurve"/>
    </contour>
    <contour>
      <point x="927" y="675" type="line" smooth="yes"/>
      <point x="927" y="743" name="inserted"/>
      <point x="910" y="859"/>
      <point x="893" y="906" type="qcurve"/>
      <point x="497" y="236" type="line"/>
      <point x="528" y="215" name="inserted"/>
      <point x="602" y="194"/>
      <point x="644" y="194" type="qcurve" smooth="yes"/>
      <point x="779" y="194"/>
      <point x="926" y="407"/>
      <point x="927" y="612" type="qcurve" smooth="yes"/>
    </contour>
  </outline>
</glyph>
<glyph name="Thorn" format="1">
  <advance width="1121"/>
  <unicode hex="00DE"/>
  <outline>
    <contour>
      <point x="380" y="1310" type="line"/>
      <point x="380" y="1070" type="line"/>
      <point x="587" y="1070" type="line" smooth="yes"/>
      <point x="733" y="1069"/>
      <point x="948" y="969"/>
      <point x="1005" y="877" type="qcurve" smooth="yes" name="inserted"/>
      <point x="1034" y="831" name="inserted"/>
      <point x="1063" y="725"/>
      <point x="1063" y="664" type="qcurve" smooth="yes"/>
      <point x="1063" y="482"/>
      <point x="814" y="263"/>
      <point x="598" y="258" type="qcurve" smooth="yes"/>
      <point x="380" y="258" type="line"/>
      <point x="380" y="0" type="line"/>
      <point x="120" y="0" type="line"/>
      <point x="120" y="1310" type="line"/>
    </contour>
    <contour>
      <point x="380" y="860" type="line"/>
      <point x="380" y="468" type="line"/>
      <point x="581" y="468" type="line" smooth="yes"/>
      <point x="686" y="468"/>
      <point x="803" y="574"/>
      <point x="803" y="662" type="qcurve" smooth="yes" name="inserted"/>
      <point x="803" y="751"/>
      <point x="689" y="859"/>
      <point x="588" y="860" type="qcurve" smooth="yes"/>
    </contour>
  </outline>
</glyph>
<glyph name="germandbls" format="1">
  <advance width="1163"/>
  <unicode hex="00DF"/>
  <outline>
    <contour>
      <point x="382" y="-2" type="line"/>
      <point x="122" y="-2" type="line"/>
      <point x="122" y="989" type="line" smooth="yes"/>
      <point x="122" y="1187"/>
      <point x="345" y="1401"/>
      <point x="548" y="1401" type="qcurve" smooth="yes"/>
      <point x="720" y="1401"/>
      <point x="928" y="1222"/>
      <point x="928" y="1068" type="qcurve" smooth="yes"/>
      <point x="928" y="971"/>
      <point x="832" y="814"/>
      <point x="832" y="745" type="qcurve" smooth="yes"/>
      <point x="832" y="712"/>
      <point x="887" y="641"/>
      <point x="966" y="570" type="qcurve" smooth="yes"/>
      <point x="1034" y="510" name="inserted"/>
      <point x="1102" y="383"/>
      <point x="1102" y="317" type="qcurve" smooth="yes"/>
      <point x="1102" y="157"/>
      <point x="895" y="-20"/>
      <point x="701" y="-20" type="qcurve" smooth="yes"/>
      <point x="628" y="-20"/>
      <point x="486" y="9"/>
      <point x="450" y="30" type="qcurve"/>
      <point x="499" y="237" type="line"/>
      <point x="543" y="213" name="inserted"/>
      <point x="641" y="190"/>
      <point x="696" y="190" type="qcurve" smooth="yes"/>
      <point x="767" y="190"/>
      <point x="842" y="255"/>
      <point x="842" y="312" type="qcurve" smooth="yes"/>
      <point x="842" y="354"/>
      <point x="780" y="432"/>
      <point x="707" y="491" type="qcurve" smooth="yes"/>
      <point x="639" y="545" name="inserted"/>
      <point x="572" y="667"/>
      <point x="572" y="734" type="qcurve" smooth="yes"/>
      <point x="572" y="821"/>
      <point x="671" y="984"/>
      <point x="671" y="1055" type="qcurve" smooth="yes"/>
      <point x="671" y="1118"/>
      <point x="590" y="1192"/>
      <point x="529" y="1192" type="qcurve" smooth="yes"/>
      <point x="458" y="1192" name="inserted"/>
      <point x="384" y="1096"/>
      <point x="382" y="1001" type="qcurve"/>
    </contour>
  </outline>
</glyph>
<glyph name="ae" format="1">
  <advance width="1556"/>
  <unicode hex="00E6"/>
  <outline>
    <contour>
      <point x="1121" y="-20" type="qcurve" smooth="yes"/>
      <point x="1010" y="-20" name="inserted"/>
      <point x="837" y="46"/>
      <point x="774" y="112" type="qcurve"/>
      <point x="716" y="50"/>
      <point x="532" y="-20"/>
      <point x="419" y="-20" type="qcurve" smooth="yes"/>
      <point x="252" y="-20"/>
      <point x="59" y="140"/>
      <point x="59" y="285" type="qcurve" smooth="yes"/>
      <point x="59" y="426"/>
      <point x="283" y="581"/>
      <point x="501" y="582" type="qcurve" smooth="yes"/>
      <point x="653" y="582" type="line"/>
      <point x="653" y="633" type="line" smooth="yes"/>
      <point x="653" y="702"/>
      <point x="580" y="779"/>
      <point x="510" y="779" type="qcurve" smooth="yes"/>
      <point x="437" y="779"/>
      <point x="351" y="715"/>
      <point x="351" y="669" type="qcurve"/>
      <point x="91" y="686" type="line"/>
      <point x="91" y="820"/>
      <point x="326" y="990"/>
      <point x="513" y="990" type="qcurve" smooth="yes"/>
      <point x="608" y="990" name="inserted"/>
      <point x="755" y="940"/>
      <point x="807" y="891" type="qcurve"/>
      <point x="864" y="941" name="inserted"/>
      <point x="1011" y="991"/>
      <point x="1101" y="990" type="qcurve" smooth="yes"/>
      <point x="1292" y="990"/>
      <point x="1509" y="753"/>
      <point x="1509" y="544" type="qcurve" smooth="yes"/>
      <point x="1509" y="403" type="line"/>
      <point x="908" y="403" type="line"/>
      <point x="918" y="299"/>
      <point x="1043" y="189"/>
      <point x="1148" y="189" type="qcurve" smooth="yes"/>
      <point x="1218" y="189"/>
      <point x="1336" y="218"/>
      <point x="1414" y="258" type="qcurve"/>
      <point x="1483" y="88" type="line"/>
      <point x="1418" y="38"/>
      <point x="1224" y="-20"/>
    </contour>
    <contour>
      <point x="469" y="171" type="qcurve" smooth="yes"/>
      <point x="513" y="171"/>
      <point x="617" y="211"/>
      <point x="653" y="243" type="qcurve"/>
      <point x="653" y="413" type="line"/>
      <point x="505" y="413" type="line" smooth="yes"/>
      <point x="419" y="412"/>
      <point x="320" y="336"/>
      <point x="320" y="282" type="qcurve" smooth="yes"/>
      <point x="320" y="231"/>
      <point x="392" y="171"/>
    </contour>
    <contour>
      <point x="1101" y="779" type="qcurve" smooth="yes"/>
      <point x="1020" y="779"/>
      <point x="922" y="676"/>
      <point x="910" y="578" type="qcurve"/>
      <point x="1254" y="578" type="line"/>
      <point x="1254" y="603" type="line" smooth="yes"/>
      <point x="1254" y="687"/>
      <point x="1175" y="779"/>
    </contour>
  </outline>
</glyph>
<glyph name="eth" format="1">
  <advance width="1060"/>
  <unicode hex="00F0"/>
  <outline>
    <contour>
      <point x="764" y="1173" type="line"/>
      <point x="879" y="1055" name="inserted"/>
      <point x="994" y="760"/>
      <point x="995" y="584" type="qcurve" smooth="yes"/>
      <point x="995" y="517" type="line" smooth="yes"/>
      <point x="995" y="363"/>
      <point x="875" y="116"/>
      <point x="768" y="48" type="qcurve" smooth="yes" name="inserted"/>
      <point x="714" y="14" name="inserted"/>
      <point x="594" y="-20"/>
      <point x="528" y="-20" type="qcurve" smooth="yes"/>
      <point x="399" y="-20"/>
      <point x="192" y="94"/>
      <point x="134" y="196" type="qcurve" smooth="yes" name="inserted"/>
      <point x="105" y="246" name="inserted"/>
      <point x="76" y="358"/>
      <point x="76" y="419" type="qcurve" smooth="yes"/>
      <point x="76" y="627"/>
      <point x="297" y="867"/>
      <point x="482" y="867" type="qcurve" smooth="yes"/>
      <point x="544" y="867" name="inserted"/>
      <point x="653" y="833"/>
      <point x="702" y="799" type="qcurve"/>
      <point x="680" y="867" name="inserted"/>
      <point x="605" y="987"/>
      <point x="553" y="1038" type="qcurve"/>
      <point x="381" y="928" type="line"/>
      <point x="311" y="1030" type="line"/>
      <point x="447" y="1118" type="line"/>
      <point x="395" y="1150" name="inserted"/>
      <point x="276" y="1200"/>
      <point x="210" y="1218" type="qcurve"/>
      <point x="292" y="1419" type="line"/>
      <point x="399" y="1398" name="inserted"/>
      <point x="586" y="1317"/>
      <point x="666" y="1257" type="qcurve"/>
      <point x="820" y="1355" type="line"/>
      <point x="889" y="1253" type="line"/>
    </contour>
    <contour>
      <point x="734" y="595" type="line"/>
      <point x="704" y="632" name="inserted"/>
      <point x="607" y="669"/>
      <point x="541" y="669" type="qcurve" smooth="yes"/>
      <point x="439" y="669"/>
      <point x="336" y="535"/>
      <point x="336" y="419" type="qcurve" smooth="yes"/>
      <point x="336" y="318"/>
      <point x="444" y="190"/>
      <point x="532" y="190" type="qcurve" smooth="yes"/>
      <point x="625" y="190"/>
      <point x="734" y="353"/>
      <point x="734" y="495" type="qcurve" smooth="yes"/>
    </contour>
  </outline>
</glyph>
<glyph name="divide" format="1">
  <advance width="1051"/>
  <unicode hex="00F7"/>
  <outline>
    <contour>
      <point x="983" y="532" type="line"/>
      <point x="57" y="532" type="line"/>
      <point x="57" y="736" type="line"/>
      <point x="983" y="736" type="line"/>
    </contour>
    <contour>
      <point x="653" y="892" type="line"/>
      <point x="389" y="892" type="line"/>
      <point x="389" y="1102" type="line"/>
      <point x="653" y="1102" type="line"/>
    </contour>
    <contour>
      <point x="653" y="164" type="line"/>
      <point x="389" y="164" type="line"/>
      <point x="389" y="374" type="line"/>
      <point x="653" y="374" type="line"/>
    </contour>
  </outline>
</glyph>
<glyph name="oslash" format="1">
  <advance width="1040"/>
  <unicode hex="00F8"/>
  <outline>
    <contour>
      <point x="59" y="482" type="qcurve" smooth="yes"/>
      <point x="59" y="627"/>
      <point x="171" y="853"/>
      <point x="276" y="916" type="qcurve" smooth="yes" name="inserted"/>
      <point x="328" y="947" name="inserted"/>
      <point x="450" y="978"/>
      <point x="519" y="978" type="qcurve" smooth="yes"/>
      <point x="565" y="978" name="inserted"/>
      <point x="648" y="965"/>
      <point x="687" y="952" type="qcurve"/>
      <point x="750" y="1080" type="line"/>
      <point x="895" y="1080" type="line"/>
      <point x="802" y="890" type="line"/>
      <point x="892" y="823" name="inserted"/>
      <point x="982" y="610"/>
      <point x="982" y="463" type="qcurve" smooth="yes"/>
      <point x="982" y="239"/>
      <point x="732" y="-32"/>
      <point x="521" y="-32" type="qcurve" smooth="yes"/>
      <point x="478" y="-32" name="inserted"/>
      <point x="399" y="-21"/>
      <point x="363" y="-9" type="qcurve"/>
      <point x="298" y="-142" type="line"/>
      <point x="153" y="-142" type="line"/>
      <point x="246" y="49" type="line"/>
      <point x="153" y="115" name="inserted"/>
      <point x="59" y="331"/>
    </contour>
    <contour>
      <point x="320" y="463" type="qcurve" smooth="yes"/>
      <point x="320" y="404" name="inserted"/>
      <point x="338" y="311"/>
      <point x="356" y="276" type="qcurve"/>
      <point x="590" y="754" type="line"/>
      <point x="574" y="761" name="inserted"/>
      <point x="539" y="767"/>
      <point x="519" y="767" type="qcurve" smooth="yes"/>
      <point x="424" y="767"/>
      <point x="320" y="619"/>
    </contour>
    <contour>
      <point x="722" y="482" type="qcurve" smooth="yes"/>
      <point x="722" y="533" name="inserted"/>
      <point x="705" y="621"/>
      <point x="689" y="658" type="qcurve"/>
      <point x="458" y="187" type="line"/>
      <point x="472" y="182" name="inserted"/>
      <point x="503" y="178"/>
      <point x="521" y="178" type="qcurve" smooth="yes"/>
      <point x="616" y="178"/>
      <point x="722" y="322"/>
    </contour>
  </outline>
</glyph>
<glyph name="thorn" format="1">
  <advance width="1046"/>
  <unicode hex="00FE"/>
  <outline>
    <contour>
      <point x="978" y="436" type="line" smooth="yes"/>
      <point x="978" y="211"/>
      <point x="774" y="-60"/>
      <point x="600" y="-60" type="qcurve" smooth="yes"/>
      <point x="527" y="-60" name="inserted"/>
      <point x="408" y="-9"/>
      <point x="363" y="42" type="qcurve"/>
      <point x="363" y="-416" type="line"/>
      <point x="102" y="-416" type="line"/>
      <point x="102" y="1341" type="line"/>
      <point x="363" y="1341" type="line"/>
      <point x="363" y="849" type="line"/>
      <point x="408" y="899" name="inserted"/>
      <point x="526" y="950"/>
      <point x="599" y="950" type="qcurve" smooth="yes"/>
      <point x="777" y="950"/>
      <point x="978" y="686"/>
      <point x="978" y="449" type="qcurve" smooth="yes"/>
    </contour>
    <contour>
      <point x="718" y="455" type="qcurve" smooth="yes"/>
      <point x="718" y="591"/>
      <point x="622" y="739"/>
      <point x="530" y="739" type="qcurve" smooth="yes"/>
      <point x="471" y="739" name="inserted"/>
      <point x="387" y="693"/>
      <point x="363" y="647" type="qcurve"/>
      <point x="363" y="245" type="line"/>
      <point x="387" y="197" name="inserted"/>
      <point x="472" y="150"/>
      <point x="532" y="150" type="qcurve" smooth="yes"/>
      <point x="625" y="150" name="inserted"/>
      <point x="718" y="303"/>
    </contour>
  </outline>
</glyph>
<glyph name="Aogonek" format="1">
  <advance width="1240"/>
  <unicode hex="0104"/>
  <outline>
    <contour>
      <point x="744" y="1268" type="line"/>
      <point x="1235" y="-42" type="line"/>
      <point x="1159" y="-42" type="line"/>
      <point x="1093" y="-80"/>
      <point x="1021" y="-153"/>
      <point x="1021" y="-201" type="qcurve" smooth="yes"/>
      <point x="1021" y="-230" name="inserted"/>
      <point x="1050" y="-259"/>
      <point x="1080" y="-259" type="qcurve" smooth="yes"/>
      <point x="1095" y="-259" name="inserted"/>
      <point x="1131" y="-250"/>
      <point x="1152" y="-241" type="qcurve"/>
      <point x="1178" y="-382" type="line"/>
      <point x="1145" y="-402" name="inserted"/>
      <point x="1071" y="-422"/>
      <point x="1030" y="-422" type="qcurve" smooth="yes"/>
      <point x="940" y="-422"/>
      <point x="825" y="-322"/>
      <point x="825" y="-234" type="qcurve" smooth="yes"/>
      <point x="825" y="-173" name="inserted"/>
      <point x="885" y="-72"/>
      <point x="944" y="-32" type="qcurve"/>
      <point x="857" y="228" type="line"/>
      <point x="383" y="228" type="line"/>
      <point x="293" y="-42" type="line"/>
      <point x="6" y="-42" type="line"/>
      <point x="494" y="1268" type="line"/>
    </contour>
    <contour>
      <point x="456" y="447" type="line"/>
      <point x="784" y="447" type="line"/>
      <point x="619" y="937" type="line"/>
    </contour>
  </outline>
</glyph>
<glyph name="aogonek" format="1">
  <advance width="988"/>
  <unicode hex="0105"/>
  <outline>
    <contour>
      <point x="662" y="-38" type="qcurve"/>
      <point x="654" y="-19" name="inserted"/>
      <point x="642" y="22"/>
      <point x="638" y="45" type="qcurve"/>
      <point x="591" y="-8" name="inserted"/>
      <point x="468" y="-60"/>
      <point x="392" y="-60" type="qcurve" smooth="yes"/>
      <point x="249" y="-60"/>
      <point x="61" y="105"/>
      <point x="61" y="231" type="qcurve" smooth="yes"/>
      <point x="61" y="386"/>
      <point x="291" y="552"/>
      <point x="508" y="553" type="qcurve" smooth="yes"/>
      <point x="627" y="553" type="line"/>
      <point x="627" y="609" type="line" smooth="yes"/>
      <point x="627" y="676"/>
      <point x="558" y="757"/>
      <point x="483" y="757" type="qcurve" smooth="yes"/>
      <point x="418" y="757"/>
      <point x="343" y="694"/>
      <point x="343" y="639" type="qcurve"/>
      <point x="83" y="639" type="line"/>
      <point x="83" y="724"/>
      <point x="187" y="868"/>
      <point x="283" y="909" type="qcurve" smooth="yes" name="inserted"/>
      <point x="330" y="929" name="inserted"/>
      <point x="437" y="950"/>
      <point x="497" y="950" type="qcurve" smooth="yes"/>
      <point x="677" y="950"/>
      <point x="888" y="769"/>
      <point x="888" y="605" type="qcurve" smooth="yes"/>
      <point x="888" y="183" type="line" smooth="yes"/>
      <point x="889" y="114" name="inserted"/>
      <point x="908" y="9"/>
      <point x="927" y="-27" type="qcurve"/>
      <point x="927" y="-42" type="line"/>
      <point x="884" y="-42" type="line"/>
      <point x="817" y="-80"/>
      <point x="745" y="-153"/>
      <point x="745" y="-201" type="qcurve" smooth="yes"/>
      <point x="745" y="-230" name="inserted"/>
      <point x="775" y="-259"/>
      <point x="805" y="-259" type="qcurve" smooth="yes"/>
      <point x="819" y="-259" name="inserted"/>
      <point x="855" y="-250"/>
      <point x="877" y="-241" type="qcurve"/>
      <point x="903" y="-382" type="line"/>
      <point x="870" y="-402" name="inserted"/>
      <point x="796" y="-422"/>
      <point x="754" y="-422" type="qcurve" smooth="yes"/>
      <point x="664" y="-422"/>
      <point x="550" y="-322"/>
      <point x="550" y="-234" type="qcurve" smooth="yes"/>
      <point x="550" y="-175" name="inserted"/>
      <point x="606" y="-77"/>
    </contour>
    <contour>
      <point x="449" y="139" type="qcurve" smooth="yes"/>
      <point x="507" y="139"/>
      <point x="604" y="190"/>
      <point x="627" y="233" type="qcurve"/>
      <point x="627" y="401" type="line"/>
      <point x="530" y="401" type="line" smooth="yes"/>
      <point x="432" y="401" name="inserted"/>
      <point x="329" y="333"/>
      <point x="322" y="266" type="qcurve" smooth="yes"/>
      <point x="321" y="250" type="line"/>
      <point x="321" y="202"/>
      <point x="390" y="139"/>
    </contour>
  </outline>
</glyph>
<glyph name="Dcroat" format="1">
  <advance width="1225"/>
  <unicode hex="0110"/>
  <outline>
    <contour>
      <point x="144" y="0" type="line"/>
      <point x="144" y="578" type="line"/>
      <point x="-18" y="578" type="line"/>
      <point x="-18" y="743" type="line"/>
      <point x="144" y="743" type="line"/>
      <point x="144" y="1310" type="line"/>
      <point x="547" y="1310" type="line" smooth="yes"/>
      <point x="720" y="1310"/>
      <point x="993" y="1155"/>
      <point x="1069" y="1011" type="qcurve" smooth="yes" name="inserted"/>
      <point x="1107" y="939" name="inserted"/>
      <point x="1146" y="776"/>
      <point x="1146" y="685" type="qcurve" smooth="yes"/>
      <point x="1146" y="625" type="line" smooth="yes"/>
      <point x="1146" y="442"/>
      <point x="995" y="158"/>
      <point x="859" y="79" type="qcurve" smooth="yes" name="inserted"/>
      <point x="790" y="40" name="inserted"/>
      <point x="636" y="0"/>
      <point x="550" y="0" type="qcurve" smooth="yes"/>
    </contour>
    <contour>
      <point x="611" y="578" type="line"/>
      <point x="414" y="578" type="line"/>
      <point x="414" y="217" type="line"/>
      <point x="545" y="217" type="line" smooth="yes"/>
      <point x="705" y="217"/>
      <point x="872" y="428"/>
      <point x="872" y="625" type="qcurve" smooth="yes"/>
      <point x="872" y="686" type="line" smooth="yes"/>
      <point x="872" y="886"/>
      <point x="707" y="1092"/>
      <point x="547" y="1092" type="qcurve" smooth="yes"/>
      <point x="414" y="1092" type="line"/>
      <point x="414" y="743" type="line"/>
      <point x="611" y="743" type="line"/>
    </contour>
  </outline>
</glyph>
<glyph name="dcroat" format="1">
  <advance width="1066"/>
  <unicode hex="0111"/>
  <outline>
    <contour>
      <point x="1078" y="1095" type="line"/>
      <point x="937" y="1095" type="line"/>
      <point x="937" y="-2" type="line"/>
      <point x="702" y="-2" type="line"/>
      <point x="689" y="102" type="line"/>
      <point x="641" y="41" name="inserted"/>
      <point x="516" y="-20"/>
      <point x="439" y="-20" type="qcurve" smooth="yes"/>
      <point x="267" y="-20"/>
      <point x="59" y="251"/>
      <point x="59" y="492" type="qcurve" smooth="yes"/>
      <point x="59" y="720"/>
      <point x="264" y="990"/>
      <point x="441" y="990" type="qcurve" smooth="yes"/>
      <point x="512" y="990" name="inserted"/>
      <point x="630" y="937"/>
      <point x="676" y="884" type="qcurve"/>
      <point x="676" y="1095" type="line"/>
      <point x="449" y="1095" type="line"/>
      <point x="449" y="1260" type="line"/>
      <point x="676" y="1260" type="line"/>
      <point x="676" y="1380" type="line"/>
      <point x="937" y="1380" type="line"/>
      <point x="937" y="1260" type="line"/>
      <point x="1078" y="1260" type="line"/>
    </contour>
    <contour>
      <point x="320" y="473" type="qcurve" smooth="yes"/>
      <point x="320" y="336"/>
      <point x="415" y="191"/>
      <point x="506" y="191" type="qcurve" smooth="yes"/>
      <point x="566" y="191" name="inserted"/>
      <point x="651" y="241"/>
      <point x="676" y="292" type="qcurve"/>
      <point x="676" y="677" type="line"/>
      <point x="652" y="727" name="inserted"/>
      <point x="567" y="778"/>
      <point x="508" y="778" type="qcurve" smooth="yes"/>
      <point x="414" y="778" name="inserted"/>
      <point x="320" y="626"/>
    </contour>
  </outline>
</glyph>
<glyph name="Eogonek" format="1">
  <advance width="1037"/>
  <unicode hex="0118"/>
  <outline>
    <contour>
      <point x="905" y="526" type="line"/>
      <point x="387" y="526" type="line"/>
      <point x="387" y="175" type="line"/>
      <point x="995" y="175" type="line"/>
      <point x="995" y="-42" type="line"/>
      <point x="859" y="-42" type="line"/>
      <point x="792" y="-80"/>
      <point x="720" y="-153"/>
      <point x="720" y="-201" type="qcurve" smooth="yes"/>
      <point x="720" y="-230" name="inserted"/>
      <point x="750" y="-259"/>
      <point x="779" y="-259" type="qcurve" smooth="yes"/>
      <point x="794" y="-259" name="inserted"/>
      <point x="830" y="-250"/>
      <point x="851" y="-241" type="qcurve"/>
      <point x="878" y="-382" type="line"/>
      <point x="845" y="-402" name="inserted"/>
      <point x="770" y="-422"/>
      <point x="729" y="-422" type="qcurve" smooth="yes"/>
      <point x="639" y="-422"/>
      <point x="525" y="-322"/>
      <point x="525" y="-234" type="qcurve" smooth="yes"/>
      <point x="525" y="-177" name="inserted"/>
      <point x="577" y="-81"/>
      <point x="629" y="-42" type="qcurve"/>
      <point x="117" y="-42" type="line"/>
      <point x="117" y="1268" type="line"/>
      <point x="994" y="1268" type="line"/>
      <point x="994" y="1050" type="line"/>
      <point x="387" y="1050" type="line"/>
      <point x="387" y="737" type="line"/>
      <point x="905" y="737" type="line"/>
    </contour>
  </outline>
</glyph>
<glyph name="eogonek" format="1">
  <advance width="996"/>
  <unicode hex="0119"/>
  <outline>
    <contour>
      <point x="928" y="118" type="line"/>
      <point x="900" y="77" name="inserted"/>
      <point x="820" y="13"/>
      <point x="769" y="-11" type="qcurve"/>
      <point x="770" y="-11" type="line"/>
      <point x="703" y="-49"/>
      <point x="631" y="-122"/>
      <point x="631" y="-170" type="qcurve" smooth="yes"/>
      <point x="631" y="-199" name="inserted"/>
      <point x="661" y="-228"/>
      <point x="690" y="-228" type="qcurve" smooth="yes"/>
      <point x="705" y="-228" name="inserted"/>
      <point x="741" y="-219"/>
      <point x="762" y="-210" type="qcurve"/>
      <point x="788" y="-351" type="line"/>
      <point x="756" y="-371" name="inserted"/>
      <point x="681" y="-391"/>
      <point x="640" y="-391" type="qcurve" smooth="yes"/>
      <point x="550" y="-391"/>
      <point x="436" y="-291"/>
      <point x="436" y="-203" type="qcurve" smooth="yes"/>
      <point x="436" y="-159" name="inserted"/>
      <point x="464" y="-85"/>
      <point x="492" y="-54" type="qcurve"/>
      <point x="300" y="-37"/>
      <point x="65" y="221"/>
      <point x="65" y="422" type="qcurve" smooth="yes"/>
      <point x="65" y="450" type="line" smooth="yes"/>
      <point x="65" y="596"/>
      <point x="178" y="828"/>
      <point x="282" y="890" type="qcurve" smooth="yes" name="inserted"/>
      <point x="334" y="921" name="inserted"/>
      <point x="453" y="953"/>
      <point x="519" y="953" type="qcurve" smooth="yes"/>
      <point x="719" y="953"/>
      <point x="949" y="701"/>
      <point x="949" y="469" type="qcurve" smooth="yes"/>
      <point x="949" y="363" type="line"/>
      <point x="329" y="363" type="line"/>
      <point x="341" y="268"/>
      <point x="468" y="153"/>
      <point x="565" y="153" type="qcurve" smooth="yes"/>
      <point x="640" y="153" name="inserted"/>
      <point x="758" y="207"/>
      <point x="800" y="262" type="qcurve"/>
    </contour>
    <contour>
      <point x="518" y="742" type="qcurve" smooth="yes"/>
      <point x="441" y="742"/>
      <point x="345" y="638"/>
      <point x="331" y="541" type="qcurve"/>
      <point x="693" y="541" type="line"/>
      <point x="693" y="561" type="line" smooth="yes"/>
      <point x="691" y="648"/>
      <point x="601" y="742"/>
    </contour>
  </outline>
</glyph>
<glyph name="dotlessi" format="1">
  <advance width="505"/>
  <unicode hex="0131"/>
  <outline>
    <contour>
      <point x="381" y="0" type="line"/>
      <point x="121" y="0" type="line"/>
      <point x="121" y="974" type="line"/>
      <point x="381" y="974" type="line"/>
    </contour>
  </outline>
</glyph>
<glyph name="Lslash" format="1">
  <advance width="1028"/>
  <unicode hex="0141"/>
  <outline>
    <contour>
      <point x="417" y="806" type="line"/>
      <point x="610" y="861" type="line"/>
      <point x="610" y="712" type="line"/>
      <point x="417" y="656" type="line"/>
      <point x="417" y="217" type="line"/>
      <point x="990" y="217" type="line"/>
      <point x="990" y="0" type="line"/>
      <point x="147" y="0" type="line"/>
      <point x="147" y="578" type="line"/>
      <point x="26" y="544" type="line"/>
      <point x="26" y="693" type="line"/>
      <point x="147" y="727" type="line"/>
      <point x="147" y="1310" type="line"/>
      <point x="417" y="1310" type="line"/>
    </contour>
  </outline>
</glyph>
<glyph name="lslash" format="1">
  <advance width="563"/>
  <unicode hex="0142"/>
  <outline>
    <contour>
      <point x="406" y="819" type="line"/>
      <point x="534" y="861" type="line"/>
      <point x="534" y="712" type="line"/>
      <point x="406" y="670" type="line"/>
      <point x="406" y="0" type="line"/>
      <point x="146" y="0" type="line"/>
      <point x="146" y="583" type="line"/>
      <point x="27" y="544" type="line"/>
      <point x="27" y="693" type="line"/>
      <point x="146" y="733" type="line"/>
      <point x="146" y="1382" type="line"/>
      <point x="406" y="1382" type="line"/>
    </contour>
  </outline>
</glyph>
<glyph name="OE" format="1">
  <advance width="1785"/>
  <unicode hex="0152"/>
  <outline>
    <contour>
      <point x="1688" y="-2" type="line"/>
      <point x="891" y="-2" type="line"/>
      <point x="816" y="-11" name="inserted"/>
      <point x="686" y="-20"/>
      <point x="632" y="-20" type="qcurve" smooth="yes"/>
      <point x="475" y="-20"/>
      <point x="227" y="112"/>
      <point x="158" y="232" type="qcurve" smooth="yes" name="inserted"/>
      <point x="124" y="293" name="inserted"/>
      <point x="88" y="429"/>
      <point x="86" y="505" type="qcurve" smooth="yes"/>
      <point x="86" y="790" type="line" smooth="yes"/>
      <point x="86" y="946"/>
      <point x="222" y="1191"/>
      <point x="347" y="1259" type="qcurve" smooth="yes" name="inserted"/>
      <point x="409" y="1293" name="inserted"/>
      <point x="551" y="1326"/>
      <point x="630" y="1326" type="qcurve" smooth="yes"/>
      <point x="685" y="1326" name="inserted"/>
      <point x="816" y="1317"/>
      <point x="891" y="1308" type="qcurve"/>
      <point x="1687" y="1308" type="line"/>
      <point x="1687" y="1090" type="line"/>
      <point x="1081" y="1090" type="line"/>
      <point x="1081" y="777" type="line"/>
      <point x="1598" y="777" type="line"/>
      <point x="1598" y="566" type="line"/>
      <point x="1081" y="566" type="line"/>
      <point x="1081" y="215" type="line"/>
      <point x="1688" y="215" type="line"/>
    </contour>
    <contour>
      <point x="632" y="189" type="qcurve" smooth="yes"/>
      <point x="674" y="189" name="inserted"/>
      <point x="763" y="195"/>
      <point x="810" y="201" type="qcurve"/>
      <point x="810" y="1104" type="line"/>
      <point x="760" y="1110" name="inserted"/>
      <point x="670" y="1117"/>
      <point x="630" y="1117" type="qcurve" smooth="yes"/>
      <point x="495" y="1117"/>
      <point x="347" y="950"/>
      <point x="347" y="795" type="qcurve"/>
      <point x="347" y="516" type="line" smooth="yes"/>
      <point x="347" y="358"/>
      <point x="497" y="189"/>
    </contour>
  </outline>
</glyph>
<glyph name="oe" format="1">
  <advance width="1662"/>
  <unicode hex="0153"/>
  <outline>
    <contour>
      <point x="75" y="494" type="line" smooth="yes"/>
      <point x="75" y="639"/>
      <point x="185" y="865"/>
      <point x="289" y="927" type="qcurve" smooth="yes" name="inserted"/>
      <point x="341" y="959" name="inserted"/>
      <point x="463" y="990"/>
      <point x="532" y="990" type="qcurve" smooth="yes"/>
      <point x="636" y="990" name="inserted"/>
      <point x="803" y="923"/>
      <point x="866" y="856" type="qcurve"/>
      <point x="926" y="924" name="inserted"/>
      <point x="1083" y="991"/>
      <point x="1180" y="990" type="qcurve" smooth="yes"/>
      <point x="1373" y="990"/>
      <point x="1594" y="758"/>
      <point x="1594" y="545" type="qcurve" smooth="yes"/>
      <point x="1594" y="403" type="line"/>
      <point x="1005" y="403" type="line"/>
      <point x="1020" y="301"/>
      <point x="1138" y="189"/>
      <point x="1230" y="189" type="qcurve" smooth="yes"/>
      <point x="1307" y="189"/>
      <point x="1427" y="219"/>
      <point x="1501" y="259" type="qcurve"/>
      <point x="1572" y="91" type="line"/>
      <point x="1507" y="39"/>
      <point x="1310" y="-20"/>
      <point x="1203" y="-20" type="qcurve" smooth="yes"/>
      <point x="1098" y="-20" name="inserted"/>
      <point x="931" y="47"/>
      <point x="868" y="114" type="qcurve"/>
      <point x="743" y="-20"/>
      <point x="324" y="-20"/>
      <point x="199" y="115" type="qcurve" smooth="yes" name="inserted"/>
      <point x="137" y="182" name="inserted"/>
      <point x="75" y="366"/>
      <point x="75" y="482" type="qcurve" smooth="yes"/>
    </contour>
    <contour>
      <point x="335" y="475" type="qcurve" smooth="yes"/>
      <point x="335" y="336"/>
      <point x="437" y="189"/>
      <point x="534" y="189" type="qcurve" smooth="yes"/>
      <point x="629" y="189"/>
      <point x="732" y="334"/>
      <point x="732" y="494" type="qcurve" smooth="yes"/>
      <point x="732" y="632"/>
      <point x="627" y="779"/>
      <point x="532" y="779" type="qcurve" smooth="yes"/>
      <point x="437" y="779"/>
      <point x="335" y="632"/>
    </contour>
    <contour>
      <point x="1180" y="779" type="qcurve" smooth="yes"/>
      <point x="1111" y="779"/>
      <point x="1022" y="677"/>
      <point x="1008" y="580" type="qcurve"/>
      <point x="1338" y="580" type="line"/>
      <point x="1338" y="604" type="line" smooth="yes"/>
      <point x="1338" y="691"/>
      <point x="1255" y="779"/>
    </contour>
  </outline>
</glyph>
<glyph name="Uogonek" format="1">
  <advance width="1213"/>
  <unicode hex="0172"/>
  <outline>
    <contour>
      <point x="1109" y="1275" type="line"/>
      <point x="1109" y="410" type="line" smooth="yes"/>
      <point x="1109" y="262"/>
      <point x="983" y="56"/>
      <point x="875" y="3" type="qcurve"/>
      <point x="824" y="-28"/>
      <point x="772" y="-92"/>
      <point x="772" y="-134" type="qcurve" smooth="yes"/>
      <point x="772" y="-163" name="inserted"/>
      <point x="802" y="-192"/>
      <point x="832" y="-192" type="qcurve" smooth="yes"/>
      <point x="846" y="-192" name="inserted"/>
      <point x="882" y="-183"/>
      <point x="904" y="-174" type="qcurve"/>
      <point x="930" y="-315" type="line"/>
      <point x="897" y="-335" name="inserted"/>
      <point x="823" y="-355"/>
      <point x="781" y="-355" type="qcurve" smooth="yes"/>
      <point x="691" y="-355"/>
      <point x="577" y="-255"/>
      <point x="577" y="-167" type="qcurve" smooth="yes"/>
      <point x="577" y="-135" name="inserted"/>
      <point x="592" y="-78"/>
      <point x="608" y="-54" type="qcurve"/>
      <point x="374" y="-54"/>
      <point x="104" y="194"/>
      <point x="104" y="414" type="qcurve" smooth="yes"/>
      <point x="104" y="1275" type="line"/>
      <point x="374" y="1275" type="line"/>
      <point x="374" y="410" type="line" smooth="yes"/>
      <point x="374" y="281"/>
      <point x="498" y="163"/>
      <point x="607" y="163" type="qcurve" smooth="yes"/>
      <point x="720" y="163" name="inserted"/>
      <point x="836" y="283"/>
      <point x="838" y="403" type="qcurve" smooth="yes"/>
      <point x="838" y="1275" type="line"/>
    </contour>
  </outline>
</glyph>
<glyph name="uogonek" format="1">
  <advance width="1031"/>
  <unicode hex="0173"/>
  <outline>
    <contour>
      <point x="907" y="-42" type="line"/>
      <point x="841" y="-80"/>
      <point x="769" y="-153"/>
      <point x="769" y="-201" type="qcurve" smooth="yes"/>
      <point x="769" y="-230" name="inserted"/>
      <point x="798" y="-259"/>
      <point x="828" y="-259" type="qcurve" smooth="yes"/>
      <point x="843" y="-259" name="inserted"/>
      <point x="879" y="-250"/>
      <point x="900" y="-241" type="qcurve"/>
      <point x="926" y="-382" type="line"/>
      <point x="893" y="-402" name="inserted"/>
      <point x="819" y="-422"/>
      <point x="778" y="-422" type="qcurve" smooth="yes"/>
      <point x="688" y="-422"/>
      <point x="573" y="-322"/>
      <point x="573" y="-234" type="qcurve" smooth="yes"/>
      <point x="573" y="-174" name="inserted"/>
      <point x="631" y="-74"/>
      <point x="689" y="-34" type="qcurve"/>
      <point x="683" y="57" type="line"/>
      <point x="635" y="-2" name="inserted"/>
      <point x="502" y="-60"/>
      <point x="417" y="-60" type="qcurve" smooth="yes"/>
      <point x="260" y="-60"/>
      <point x="95" y="120"/>
      <point x="94" y="294" type="qcurve" smooth="yes"/>
      <point x="94" y="932" type="line"/>
      <point x="354" y="932" type="line"/>
      <point x="354" y="303" type="line" smooth="yes"/>
      <point x="354" y="226" name="inserted"/>
      <point x="423" y="150"/>
      <point x="492" y="150" type="qcurve" smooth="yes"/>
      <point x="558" y="150" name="inserted"/>
      <point x="649" y="196"/>
      <point x="674" y="242" type="qcurve"/>
      <point x="674" y="932" type="line"/>
      <point x="935" y="932" type="line"/>
      <point x="935" y="-42" type="line"/>
    </contour>
  </outline>
</glyph>
<glyph name="florin" format="1">
  <advance width="665"/>
  <unicode hex="0192"/>
  <outline>
    <contour>
      <point x="613" y="739" type="line"/>
      <point x="427" y="739" type="line"/>
      <point x="426" y="-86" type="line"/>
      <point x="426" y="-255"/>
      <point x="252" y="-437"/>
      <point x="97" y="-437" type="qcurve" smooth="yes"/>
      <point x="62" y="-437" name="inserted"/>
      <point x="-2" y="-429"/>
      <point x="-32" y="-422" type="qcurve"/>
      <point x="-18" y="-216" type="line"/>
      <point x="7" y="-226"/>
      <point x="121" y="-226"/>
      <point x="143" y="-191" type="qcurve" smooth="yes" name="inserted"/>
      <point x="154" y="-173" name="inserted"/>
      <point x="166" y="-122"/>
      <point x="166" y="-88" type="qcurve" smooth="yes"/>
      <point x="166" y="739" type="line"/>
      <point x="21" y="739" type="line"/>
      <point x="21" y="930" type="line"/>
      <point x="166" y="930" type="line"/>
      <point x="166" y="1020" type="line" smooth="yes"/>
      <point x="167" y="1181"/>
      <point x="356" y="1358"/>
      <point x="525" y="1358" type="qcurve" smooth="yes"/>
      <point x="553" y="1358" name="inserted"/>
      <point x="625" y="1348"/>
      <point x="668" y="1339" type="qcurve"/>
      <point x="646" y="1137" type="line"/>
      <point x="627" y="1142" name="inserted"/>
      <point x="583" y="1146"/>
      <point x="557" y="1146" type="qcurve" smooth="yes"/>
      <point x="492" y="1146" name="inserted"/>
      <point x="427" y="1079"/>
      <point x="427" y="1011" type="qcurve" smooth="yes"/>
      <point x="427" y="930" type="line"/>
      <point x="613" y="930" type="line"/>
    </contour>
  </outline>
</glyph>
<glyph name="circumflex" format="1">
  <advance width="914"/>
  <unicode hex="02C6"/>
  <outline>
    <contour>
      <point x="798" y="1255" type="line"/>
      <point x="798" y="1244" type="line"/>
      <point x="591" y="1244" type="line"/>
      <point x="453" y="1375" type="line"/>
      <point x="314" y="1244" type="line"/>
      <point x="111" y="1244" type="line"/>
      <point x="111" y="1258" type="line"/>
      <point x="377" y="1507" type="line"/>
      <point x="528" y="1507" type="line"/>
    </contour>
  </outline>
</glyph>
<glyph name="caron" format="1">
  <advance width="868"/>
  <unicode hex="02C7"/>
  <outline>
    <contour>
      <point x="431" y="1379" type="line"/>
      <point x="563" y="1508" type="line"/>
      <point x="785" y="1508" type="line"/>
      <point x="785" y="1498" type="line"/>
      <point x="513" y="1245" type="line"/>
      <point x="348" y="1245" type="line"/>
      <point x="77" y="1500" type="line"/>
      <point x="77" y="1508" type="line"/>
      <point x="299" y="1508" type="line"/>
    </contour>
  </outline>
</glyph>
<glyph name="breve" format="1">
  <advance width="818"/>
  <unicode hex="02D8"/>
  <outline>
    <contour>
      <point x="718" y="1496" type="line"/>
      <point x="718" y="1377"/>
      <point x="546" y="1229"/>
      <point x="407" y="1229" type="qcurve" smooth="yes" name="inserted"/>
      <point x="267" y="1229"/>
      <point x="95" y="1375"/>
      <point x="95" y="1496" type="qcurve"/>
      <point x="280" y="1496" type="line"/>
      <point x="280" y="1440"/>
      <point x="347" y="1378"/>
      <point x="407" y="1378" type="qcurve" smooth="yes"/>
      <point x="465" y="1378"/>
      <point x="532" y="1440"/>
      <point x="532" y="1496" type="qcurve"/>
    </contour>
  </outline>
</glyph>
<glyph name="dotaccent" format="1">
  <advance width="489"/>
  <unicode hex="02D9"/>
  <outline>
    <contour>
      <point x="239" y="1484" type="qcurve" smooth="yes"/>
      <point x="302" y="1484"/>
      <point x="373" y="1414"/>
      <point x="373" y="1360" type="qcurve" smooth="yes" name="inserted"/>
      <point x="373" y="1306"/>
      <point x="302" y="1238"/>
      <point x="239" y="1238" type="qcurve" smooth="yes"/>
      <point x="178" y="1238"/>
      <point x="106" y="1306"/>
      <point x="106" y="1360" type="qcurve" smooth="yes" name="inserted"/>
      <point x="106" y="1414"/>
      <point x="179" y="1484"/>
    </contour>
  </outline>
</glyph>
<glyph name="ring" format="1">
  <advance width="614"/>
  <unicode hex="02DA"/>
  <outline>
    <contour>
      <point x="107" y="1305" type="qcurve" smooth="yes"/>
      <point x="107" y="1382"/>
      <point x="224" y="1489"/>
      <point x="308" y="1489" type="qcurve" smooth="yes"/>
      <point x="391" y="1489"/>
      <point x="509" y="1384"/>
      <point x="509" y="1305" type="qcurve" smooth="yes"/>
      <point x="509" y="1228"/>
      <point x="393" y="1124"/>
      <point x="308" y="1124" type="qcurve" smooth="yes"/>
      <point x="221" y="1124"/>
      <point x="107" y="1230"/>
    </contour>
    <contour>
      <point x="211" y="1305" type="qcurve" smooth="yes"/>
      <point x="211" y="1265"/>
      <point x="263" y="1209"/>
      <point x="308" y="1209" type="qcurve" smooth="yes" name="inserted"/>
      <point x="353" y="1209"/>
      <point x="405" y="1265"/>
      <point x="405" y="1305" type="qcurve" smooth="yes"/>
      <point x="405" y="1346"/>
      <point x="352" y="1403"/>
      <point x="308" y="1403" type="qcurve" smooth="yes" name="inserted"/>
      <point x="264" y="1403"/>
      <point x="211" y="1346"/>
    </contour>
  </outline>
</glyph>
<glyph name="ogonek" format="1">
  <advance width="554"/>
  <unicode hex="02DB"/>
  <outline>
    <contour>
      <point x="364" y="-42" type="line"/>
      <point x="297" y="-80"/>
      <point x="225" y="-153"/>
      <point x="225" y="-201" type="qcurve" smooth="yes"/>
      <point x="225" y="-230" name="inserted"/>
      <point x="255" y="-259"/>
      <point x="284" y="-259" type="qcurve" smooth="yes"/>
      <point x="299" y="-259" name="inserted"/>
      <point x="335" y="-250"/>
      <point x="356" y="-241" type="qcurve"/>
      <point x="383" y="-382" type="line"/>
      <point x="350" y="-402" name="inserted"/>
      <point x="275" y="-422"/>
      <point x="234" y="-422" type="qcurve" smooth="yes"/>
      <point x="144" y="-422"/>
      <point x="30" y="-322"/>
      <point x="30" y="-234" type="qcurve" smooth="yes"/>
      <point x="30" y="-157" name="inserted"/>
      <point x="130" y="-34"/>
      <point x="230" y="12" type="qcurve"/>
    </contour>
  </outline>
</glyph>
<glyph name="tilde" format="1">
  <advance width="887"/>
  <unicode hex="02DC"/>
  <outline>
    <contour>
      <point x="783" y="1496" type="line"/>
      <point x="783" y="1395"/>
      <point x="664" y="1257"/>
      <point x="579" y="1257" type="qcurve" smooth="yes"/>
      <point x="545" y="1257"/>
      <point x="491" y="1272"/>
      <point x="445" y="1298" type="qcurve" smooth="yes" name="inserted"/>
      <point x="398" y="1323"/>
      <point x="356" y="1334"/>
      <point x="332" y="1334" type="qcurve" smooth="yes"/>
      <point x="301" y="1334"/>
      <point x="257" y="1289"/>
      <point x="257" y="1248" type="qcurve"/>
      <point x="105" y="1257" type="line"/>
      <point x="105" y="1357"/>
      <point x="223" y="1497"/>
      <point x="309" y="1497" type="qcurve" smooth="yes"/>
      <point x="336" y="1497"/>
      <point x="383" y="1484"/>
      <point x="437" y="1458" type="qcurve" smooth="yes" name="inserted"/>
      <point x="491" y="1432"/>
      <point x="533" y="1421"/>
      <point x="555" y="1421" type="qcurve" smooth="yes"/>
      <point x="587" y="1421"/>
      <point x="633" y="1465"/>
      <point x="633" y="1506" type="qcurve"/>
    </contour>
  </outline>
</glyph>
<glyph name="hungarumlaut" format="1">
  <advance width="756.0"/>
  <unicode hex="02DD"/>
  <outline>
    <contour>
      <point x="571" y="1505" type="line"/>
      <point x="804" y="1505" type="line"/>
      <point x="564" y="1234" type="line"/>
      <point x="368" y="1234" type="line"/>
    </contour>
    <contour>
      <point x="219" y="1505" type="line"/>
      <point x="448" y="1505" type="line"/>
      <point x="242" y="1234" type="line"/>
      <point x="51" y="1234" type="line"/>
    </contour>
  </outline>
</glyph>
<glyph name="pi" format="1">
  <advance width="1186"/>
  <unicode hex="03C0"/>
  <outline>
    <contour>
      <point x="1129" y="774" type="line"/>
      <point x="975" y="774" type="line"/>
      <point x="975" y="303" type="line" smooth="yes"/>
      <point x="975" y="250"/>
      <point x="1015" y="202"/>
      <point x="1075" y="202" type="qcurve" smooth="yes"/>
      <point x="1094" y="202" name="inserted"/>
      <point x="1132" y="206"/>
      <point x="1150" y="210" type="qcurve"/>
      <point x="1150" y="12" type="line"/>
      <point x="1115" y="1" name="inserted"/>
      <point x="1037" y="-11"/>
      <point x="994" y="-11" type="qcurve" smooth="yes"/>
      <point x="857" y="-11" name="inserted"/>
      <point x="717" y="127"/>
      <point x="715" y="265" type="qcurve" smooth="yes"/>
      <point x="715" y="774" type="line"/>
      <point x="466" y="774" type="line"/>
      <point x="466" y="-1" type="line"/>
      <point x="206" y="-1" type="line"/>
      <point x="206" y="774" type="line"/>
      <point x="47" y="774" type="line"/>
      <point x="47" y="973" type="line"/>
      <point x="1129" y="973" type="line"/>
    </contour>
  </outline>
</glyph>
<glyph name="anusvaradeva" format="1">
  <advance width="0"/>
  <unicode hex="0902"/>
  <outline>
    <contour>
      <point x="-208" y="1447" type="line"/>
      <point x="-445" y="1447" type="line"/>
      <point x="-445" y="1672" type="line"/>
      <point x="-208" y="1672" type="line"/>
    </contour>
    <contour>
      <point x="-441" y="1288" type="move" name="_top"/>
    </contour>
  </outline>
</glyph>
<glyph name="adeva" format="1">
  <advance width="1489"/>
  <unicode hex="0905"/>
  <outline>
    <contour>
      <point x="211" y="592" type="qcurve"/>
      <point x="211" y="796" type="line"/>
      <point x="381" y="796"/>
      <point x="515" y="901"/>
      <point x="515" y="971" type="qcurve" smooth="yes"/>
      <point x="515" y="1024"/>
      <point x="442" y="1098"/>
      <point x="376" y="1098" type="qcurve" smooth="yes"/>
      <point x="329" y="1098"/>
      <point x="237" y="1069"/>
      <point x="174" y="1041" type="qcurve"/>
      <point x="138" y="1235" type="line"/>
      <point x="202" y="1268"/>
      <point x="330" y="1300"/>
      <point x="419" y="1300" type="qcurve" smooth="yes"/>
      <point x="579" y="1300"/>
      <point x="779" y="1128"/>
      <point x="779" y="984" type="qcurve" smooth="yes"/>
      <point x="779" y="809"/>
      <point x="483" y="592"/>
    </contour>
    <contour>
      <point x="412" y="784" type="line"/>
      <point x="561" y="784"/>
      <point x="812" y="604"/>
      <point x="812" y="433" type="qcurve" smooth="yes"/>
      <point x="812" y="258"/>
      <point x="600" y="62"/>
      <point x="436" y="62" type="qcurve" smooth="yes"/>
      <point x="334" y="62"/>
      <point x="169" y="100"/>
      <point x="79" y="144" type="qcurve"/>
      <point x="117" y="345" type="line"/>
      <point x="199" y="311"/>
      <point x="318" y="277"/>
      <point x="383" y="277" type="qcurve" smooth="yes"/>
      <point x="459" y="277"/>
      <point x="549" y="369"/>
      <point x="549" y="443" type="qcurve" smooth="yes"/>
      <point x="549" y="509"/>
      <point x="464" y="606"/>
      <point x="367" y="611" type="qcurve"/>
    </contour>
    <contour>
      <point x="1031" y="1134" type="line"/>
      <point x="1294" y="1134" type="line"/>
      <point x="1294" y="0" type="line"/>
      <point x="1031" y="0" type="line"/>
    </contour>
    <contour>
      <point x="1519" y="1096" type="line"/>
      <point x="860" y="1096" type="line"/>
      <point x="860" y="1288" type="line"/>
      <point x="1519" y="1288" type="line"/>
    </contour>
    <contour>
      <point x="603" y="687" type="line"/>
      <point x="1074" y="687" type="line"/>
      <point x="1074" y="482" type="line"/>
      <point x="627" y="482" type="line"/>
    </contour>
  </outline>
</glyph>
<glyph name="ideva" format="1">
  <advance width="1088"/>
  <unicode hex="0907"/>
  <outline>
    <contour>
      <point x="1118" y="1096" type="line"/>
      <point x="-30" y="1096" type="line"/>
      <point x="-30" y="1288" type="line"/>
      <point x="1118" y="1288" type="line"/>
    </contour>
    <contour>
      <point x="600" y="-254" type="line"/>
      <point x="349" y="60" type="line"/>
      <point x="487" y="6" type="line"/>
      <point x="391" y="6" type="line"/>
      <point x="269" y="6"/>
      <point x="122" y="91"/>
      <point x="122" y="163" type="qcurve" smooth="yes"/>
      <point x="122" y="227"/>
      <point x="211" y="320"/>
      <point x="290" y="320" type="qcurve" smooth="yes"/>
      <point x="370" y="320"/>
      <point x="506" y="236"/>
      <point x="569" y="167" type="qcurve"/>
      <point x="569" y="126" type="line"/>
      <point x="799" y="-159" type="line"/>
    </contour>
    <contour>
      <point x="447" y="957" type="qcurve" smooth="yes"/>
      <point x="692" y="957" type="line"/>
      <point x="634" y="898" type="line"/>
      <point x="634" y="1130" type="line"/>
      <point x="893" y="1130" type="line"/>
      <point x="893" y="763" type="line"/>
      <point x="459" y="763" type="line"/>
      <point x="398" y="763"/>
      <point x="341" y="712"/>
      <point x="341" y="676" type="qcurve" smooth="yes"/>
      <point x="341" y="627"/>
      <point x="421" y="569"/>
      <point x="473" y="560" type="qcurve"/>
      <point x="302" y="560" type="line"/>
      <point x="373" y="604"/>
      <point x="541" y="646"/>
      <point x="629" y="646" type="qcurve" smooth="yes"/>
      <point x="794" y="646"/>
      <point x="989" y="470"/>
      <point x="989" y="341" type="qcurve" smooth="yes"/>
      <point x="989" y="196"/>
      <point x="761" y="19"/>
      <point x="552" y="19" type="qcurve" smooth="yes"/>
      <point x="460" y="19"/>
      <point x="337" y="92"/>
      <point x="258" y="136" type="qcurve"/>
      <point x="297" y="255" type="line"/>
      <point x="358" y="234"/>
      <point x="459" y="211"/>
      <point x="528" y="211" type="qcurve" smooth="yes"/>
      <point x="622" y="211"/>
      <point x="727" y="291"/>
      <point x="727" y="344" type="qcurve" smooth="yes"/>
      <point x="727" y="390"/>
      <point x="669" y="442"/>
      <point x="614" y="443" type="qcurve" smooth="yes"/>
      <point x="545" y="445"/>
      <point x="447" y="415"/>
      <point x="395" y="380" type="qcurve"/>
      <point x="367" y="380" type="line"/>
      <point x="257" y="418"/>
      <point x="91" y="596"/>
      <point x="91" y="709" type="qcurve" smooth="yes"/>
      <point x="91" y="812"/>
      <point x="264" y="957"/>
    </contour>
  </outline>
</glyph>
<glyph name="uudeva" format="1">
  <advance width="1451"/>
  <unicode hex="090A"/>
  <outline>
    <contour>
      <point x="704" y="1096" type="line"/>
      <point x="704" y="1288" type="line"/>
      <point x="1481" y="1288" type="line"/>
      <point x="1481" y="1096" type="line"/>
    </contour>
    <contour>
      <point x="613" y="730" type="line"/>
      <point x="659" y="769"/>
      <point x="856" y="835"/>
      <point x="966" y="835" type="qcurve" smooth="yes"/>
      <point x="1135" y="835"/>
      <point x="1367" y="622"/>
      <point x="1367" y="449" type="qcurve" smooth="yes"/>
      <point x="1367" y="360"/>
      <point x="1307" y="182"/>
      <point x="1241" y="99" type="qcurve"/>
      <point x="991" y="148" type="line"/>
      <point x="1042" y="219"/>
      <point x="1105" y="371"/>
      <point x="1105" y="449" type="qcurve" smooth="yes"/>
      <point x="1105" y="527"/>
      <point x="1013" y="620"/>
      <point x="941" y="620" type="qcurve" smooth="yes"/>
      <point x="885" y="620"/>
      <point x="771" y="565"/>
      <point x="720" y="516" type="qcurve"/>
    </contour>
    <component base="udeva"/>
    <contour>
      <point x="482.0" y="1288.0" type="move" name="top"/>
    </contour>
  </outline>
</glyph>
<glyph name="rvocalicdeva" format="1">
  <advance width="1591"/>
  <unicode hex="090B"/>
  <outline>
    <contour>
      <point x="976" y="1096" type="line"/>
      <point x="976" y="1288" type="line"/>
      <point x="1621" y="1288" type="line"/>
      <point x="1621" y="1096" type="line"/>
    </contour>
    <contour>
      <point x="1322" y="757" type="line"/>
      <point x="1406" y="682"/>
      <point x="1502" y="489"/>
      <point x="1502" y="395" type="qcurve" smooth="yes"/>
      <point x="1502" y="260"/>
      <point x="1330" y="110"/>
      <point x="1189" y="110" type="qcurve" smooth="yes"/>
      <point x="1156" y="110"/>
      <point x="1098" y="114"/>
      <point x="1077" y="118" type="qcurve"/>
      <point x="1052" y="299" type="line"/>
      <point x="1073" y="296"/>
      <point x="1096" y="296"/>
      <point x="1125" y="296" type="qcurve" smooth="yes"/>
      <point x="1190" y="296"/>
      <point x="1262" y="361"/>
      <point x="1262" y="413" type="qcurve" smooth="yes"/>
      <point x="1262" y="465"/>
      <point x="1198" y="586"/>
      <point x="1130" y="645" type="qcurve"/>
    </contour>
    <contour>
      <point x="1395" y="687" type="qcurve" smooth="yes"/>
      <point x="1323" y="614"/>
      <point x="1035" y="500"/>
      <point x="835" y="500" type="qcurve"/>
      <point x="851" y="727" type="line"/>
      <point x="927" y="727"/>
      <point x="1093" y="755"/>
      <point x="1150" y="792" type="qcurve"/>
      <point x="1099" y="727" type="line"/>
      <point x="1074" y="764"/>
      <point x="1052" y="814"/>
      <point x="1052" y="852" type="qcurve" smooth="yes"/>
      <point x="1052" y="903"/>
      <point x="1143" y="973"/>
      <point x="1226" y="973" type="qcurve" smooth="yes"/>
      <point x="1320" y="973"/>
      <point x="1459" y="882"/>
      <point x="1459" y="815" type="qcurve" smooth="yes"/>
      <point x="1459" y="774"/>
      <point x="1426" y="717"/>
    </contour>
    <contour>
      <point x="856" y="480" type="line"/>
      <point x="276" y="114" type="line"/>
      <point x="136" y="317" type="line"/>
      <point x="759" y="686" type="line"/>
    </contour>
    <contour>
      <point x="-30" y="1096" type="line"/>
      <point x="-30" y="1288" type="line"/>
      <point x="1152" y="1288" type="line"/>
      <point x="1152" y="1096" type="line"/>
    </contour>
    <contour>
      <point x="16" y="873" type="line"/>
      <point x="65" y="901"/>
      <point x="218" y="946"/>
      <point x="311" y="946" type="qcurve" smooth="yes"/>
      <point x="391" y="946"/>
      <point x="541" y="893"/>
      <point x="625" y="845" type="qcurve" smooth="yes"/>
      <point x="791" y="746" type="line"/>
      <point x="791" y="492" type="line"/>
      <point x="584" y="620" type="line"/>
      <point x="494" y="674"/>
      <point x="380" y="719"/>
      <point x="319" y="719" type="qcurve" smooth="yes"/>
      <point x="256" y="719"/>
      <point x="122" y="679"/>
      <point x="67" y="650" type="qcurve"/>
    </contour>
    <contour>
      <point x="664" y="1155" type="line"/>
      <point x="926" y="1155" type="line"/>
      <point x="926" y="0" type="line"/>
      <point x="664" y="0" type="line"/>
    </contour>
    <contour>
      <point x="780.0" y="1271.0" type="move" name="mark0"/>
    </contour>
  </outline>
</glyph>
<glyph name="lvocalicdeva" format="1">
  <advance width="1483"/>
  <unicode hex="090C"/>
  <outline>
    <contour>
      <point x="1024" y="1134" type="line"/>
      <point x="1288" y="1134" type="line"/>
      <point x="1288" y="712" type="line"/>
      <point x="1024" y="712" type="line"/>
    </contour>
    <contour>
      <point x="-30" y="1096" type="line"/>
      <point x="-30" y="1288" type="line"/>
      <point x="1513" y="1288" type="line"/>
      <point x="1513" y="1096" type="line"/>
    </contour>
    <contour>
      <point x="808" y="587" type="qcurve"/>
      <point x="615" y="426" type="line"/>
      <point x="614" y="541"/>
      <point x="517" y="662"/>
      <point x="452" y="662" type="qcurve" smooth="yes"/>
      <point x="390" y="662"/>
      <point x="310" y="562"/>
      <point x="310" y="468" type="qcurve" smooth="yes"/>
      <point x="310" y="376"/>
      <point x="390" y="197"/>
      <point x="467" y="93" type="qcurve"/>
      <point x="258" y="17" type="line"/>
      <point x="175" y="113"/>
      <point x="59" y="372"/>
      <point x="59" y="502" type="qcurve" smooth="yes"/>
      <point x="59" y="687"/>
      <point x="257" y="892"/>
      <point x="413" y="892" type="qcurve" smooth="yes"/>
      <point x="577" y="892"/>
      <point x="786" y="704"/>
    </contour>
    <contour>
      <point x="1281" y="438" type="line"/>
      <point x="1137" y="358" type="line"/>
      <point x="1140" y="380"/>
      <point x="1151" y="440"/>
      <point x="1151" y="483" type="qcurve" smooth="yes"/>
      <point x="1151" y="574"/>
      <point x="1082" y="671"/>
      <point x="1018" y="671" type="qcurve" smooth="yes"/>
      <point x="950" y="671"/>
      <point x="866" y="542"/>
      <point x="866" y="414" type="qcurve" smooth="yes"/>
      <point x="866" y="271" type="line"/>
      <point x="610" y="271" type="line"/>
      <point x="610" y="432" type="line"/>
      <point x="610" y="632"/>
      <point x="824" y="892"/>
      <point x="998" y="892" type="qcurve" smooth="yes"/>
      <point x="1190" y="892"/>
      <point x="1400" y="660"/>
      <point x="1400" y="482" type="qcurve" smooth="yes"/>
      <point x="1400" y="429"/>
      <point x="1379" y="325"/>
      <point x="1364" y="276" type="qcurve"/>
      <point x="1292" y="276" type="line"/>
      <point x="1225" y="276"/>
      <point x="1155" y="219"/>
      <point x="1155" y="171" type="qcurve" smooth="yes"/>
      <point x="1155" y="127"/>
      <point x="1223" y="79"/>
      <point x="1272" y="79" type="qcurve" smooth="yes"/>
      <point x="1313" y="79"/>
      <point x="1398" y="98"/>
      <point x="1420" y="108" type="qcurve"/>
      <point x="1447" y="-54" type="line"/>
      <point x="1415" y="-69"/>
      <point x="1308" y="-89"/>
      <point x="1264" y="-89" type="qcurve" smooth="yes"/>
      <point x="1108" y="-89"/>
      <point x="930" y="61"/>
      <point x="930" y="182" type="qcurve" smooth="yes"/>
      <point x="930" y="296"/>
      <point x="1096" y="438"/>
      <point x="1239" y="438" type="qcurve" smooth="yes"/>
    </contour>
    <contour>
      <point x="910" y="1265" type="move" name="mark0"/>
    </contour>
  </outline>
</glyph>
<glyph name="kadeva" format="1">
  <advance width="1582"/>
  <unicode hex="0915"/>
  <outline>
    <contour>
      <point x="-30" y="1096" type="line"/>
      <point x="-30" y="1288" type="line"/>
      <point x="1612" y="1288" type="line"/>
      <point x="1612" y="1096" type="line"/>
    </contour>
    <contour>
      <point x="650" y="1132" type="line"/>
      <point x="913" y="1132" type="line"/>
      <point x="913" y="0" type="line"/>
      <point x="650" y="0" type="line"/>
    </contour>
    <contour>
      <point x="693" y="231" type="line"/>
      <point x="661" y="201"/>
      <point x="527" y="160"/>
      <point x="438" y="160" type="qcurve" smooth="yes"/>
      <point x="261" y="160"/>
      <point x="22" y="378"/>
      <point x="22" y="562" type="qcurve" smooth="yes"/>
      <point x="22" y="735"/>
      <point x="238" y="926"/>
      <point x="408" y="926" type="qcurve" smooth="yes"/>
      <point x="504" y="926"/>
      <point x="644" y="895"/>
      <point x="711" y="857" type="qcurve"/>
      <point x="711" y="627" type="line"/>
      <point x="658" y="670"/>
      <point x="540" y="716"/>
      <point x="459" y="716" type="qcurve" smooth="yes"/>
      <point x="382" y="716"/>
      <point x="286" y="626"/>
      <point x="286" y="544" type="qcurve" smooth="yes"/>
      <point x="286" y="459"/>
      <point x="381" y="369"/>
      <point x="450" y="369" type="qcurve" smooth="yes"/>
      <point x="529" y="369"/>
      <point x="650" y="431"/>
      <point x="693" y="489" type="qcurve"/>
    </contour>
    <contour>
      <point x="854" y="839" type="line"/>
      <point x="894" y="857"/>
      <point x="1011" y="889"/>
      <point x="1094" y="889" type="qcurve" smooth="yes"/>
      <point x="1264" y="889"/>
      <point x="1498" y="676"/>
      <point x="1498" y="503" type="qcurve" smooth="yes"/>
      <point x="1498" y="414"/>
      <point x="1438" y="235"/>
      <point x="1372" y="152" type="qcurve"/>
      <point x="1122" y="202" type="line"/>
      <point x="1173" y="272"/>
      <point x="1235" y="424"/>
      <point x="1235" y="503" type="qcurve" smooth="yes"/>
      <point x="1235" y="580"/>
      <point x="1143" y="673"/>
      <point x="1071" y="673" type="qcurve" smooth="yes"/>
      <point x="1019" y="673"/>
      <point x="905" y="622"/>
      <point x="854" y="576" type="qcurve"/>
    </contour>
    <contour>
      <point x="648.0" y="-4.0" type="move" name="btm"/>
    </contour>
    <contour>
      <point x="656.0" y="1288.0" type="move" name="top"/>
    </contour>
  </outline>
</glyph>
<glyph name="khadeva" format="1">
  <advance width="1777"/>
  <unicode hex="0916"/>
  <outline>
    <contour>
      <point x="1330" y="296" type="line"/>
      <point x="1288" y="277"/>
      <point x="1205" y="264"/>
      <point x="1140" y="264" type="qcurve" smooth="yes"/>
      <point x="991" y="264"/>
      <point x="761" y="462"/>
      <point x="761" y="626" type="qcurve" smooth="yes"/>
      <point x="761" y="781"/>
      <point x="966" y="963"/>
      <point x="1113" y="963" type="qcurve" smooth="yes"/>
      <point x="1191" y="963"/>
      <point x="1287" y="945"/>
      <point x="1337" y="927" type="qcurve"/>
      <point x="1337" y="717" type="line"/>
      <point x="1288" y="747"/>
      <point x="1212" y="765"/>
      <point x="1160" y="765" type="qcurve" smooth="yes"/>
      <point x="1098" y="765"/>
      <point x="1010" y="685"/>
      <point x="1010" y="618" type="qcurve" smooth="yes"/>
      <point x="1010" y="542"/>
      <point x="1109" y="467"/>
      <point x="1162" y="467" type="qcurve" smooth="yes"/>
      <point x="1216" y="467"/>
      <point x="1291" y="494"/>
      <point x="1330" y="526" type="qcurve"/>
    </contour>
    <contour>
      <point x="845" y="1096" type="line"/>
      <point x="845" y="1288" type="line"/>
      <point x="1807" y="1288" type="line"/>
      <point x="1807" y="1096" type="line"/>
    </contour>
    <contour>
      <point x="1319" y="1134" type="line"/>
      <point x="1582" y="1134" type="line"/>
      <point x="1582" y="0" type="line"/>
      <point x="1319" y="0" type="line"/>
    </contour>
    <component base="radeva"/>
    <contour>
      <point x="1327" y="1288" type="move" name="top"/>
    </contour>
  </outline>
</glyph>
<glyph name="gadeva" format="1">
  <advance width="1265"/>
  <unicode hex="0917"/>
  <outline>
    <contour>
      <point x="807" y="1134" type="line"/>
      <point x="1069" y="1134" type="line"/>
      <point x="1069" y="0" type="line"/>
      <point x="807" y="0" type="line"/>
    </contour>
    <contour>
      <point x="1295" y="1096" type="line"/>
      <point x="-30" y="1096" type="line"/>
      <point x="-30" y="1288" type="line"/>
      <point x="1295" y="1288" type="line"/>
    </contour>
    <contour>
      <point x="494" y="1131" type="line"/>
      <point x="494" y="491" type="line"/>
      <point x="494" y="416"/>
      <point x="415" y="334"/>
      <point x="343" y="334" type="qcurve" smooth="yes"/>
      <point x="238" y="334"/>
      <point x="50" y="506"/>
      <point x="50" y="607" type="qcurve" smooth="yes"/>
      <point x="50" y="667"/>
      <point x="128" y="742"/>
      <point x="198" y="742" type="qcurve" smooth="yes"/>
      <point x="272" y="742" type="line"/>
      <point x="232" y="637" type="line"/>
      <point x="232" y="1131" type="line"/>
    </contour>
    <contour>
      <point x="813.0" y="1288.0" type="move" name="top"/>
    </contour>
  </outline>
</glyph>
<glyph name="ghadeva" format="1">
  <advance width="1321"/>
  <unicode hex="0918"/>
  <outline>
    <contour>
      <point x="-30" y="1096" type="line"/>
      <point x="-30" y="1288" type="line"/>
      <point x="1351" y="1288" type="line"/>
      <point x="1351" y="1096" type="line"/>
    </contour>
    <contour>
      <point x="863" y="1132" type="line"/>
      <point x="1125" y="1132" type="line"/>
      <point x="1125" y="0" type="line"/>
      <point x="863" y="0" type="line"/>
    </contour>
    <contour>
      <point x="600" y="691" type="line"/>
      <point x="511" y="691" type="line"/>
      <point x="335" y="691"/>
      <point x="116" y="859"/>
      <point x="116" y="993" type="qcurve" smooth="yes"/>
      <point x="116" y="1122"/>
      <point x="306" y="1285"/>
      <point x="470" y="1285" type="qcurve" smooth="yes"/>
      <point x="601" y="1285" type="line"/>
      <point x="601" y="1096" type="line"/>
      <point x="537" y="1096" type="line"/>
      <point x="466" y="1096"/>
      <point x="392" y="1027"/>
      <point x="392" y="971" type="qcurve" smooth="yes"/>
      <point x="392" y="913"/>
      <point x="470" y="847"/>
      <point x="543" y="847" type="qcurve" smooth="yes"/>
      <point x="600" y="847" type="line"/>
    </contour>
    <contour>
      <point x="914" y="212" type="line"/>
      <point x="864" y="183"/>
      <point x="659" y="142"/>
      <point x="561" y="142" type="qcurve" smooth="yes"/>
      <point x="342" y="142"/>
      <point x="101" y="351"/>
      <point x="103" y="515" type="qcurve" smooth="yes"/>
      <point x="104" y="659"/>
      <point x="359" y="848"/>
      <point x="526" y="848" type="qcurve" smooth="yes"/>
      <point x="685" y="848" type="line"/>
      <point x="702" y="645" type="line"/>
      <point x="573" y="645" type="line"/>
      <point x="472" y="645"/>
      <point x="382" y="565"/>
      <point x="382" y="502" type="qcurve" smooth="yes"/>
      <point x="382" y="435"/>
      <point x="490" y="359"/>
      <point x="579" y="357" type="qcurve" smooth="yes"/>
      <point x="677" y="356"/>
      <point x="859" y="426"/>
      <point x="916" y="479" type="qcurve"/>
    </contour>
    <contour>
      <point x="875.0" y="1288.0" type="move" name="top"/>
    </contour>
  </outline>
</glyph>
<glyph name="ngadeva" format="1">
  <advance width="1299"/>
  <unicode hex="0919"/>
  <outline>
    <contour>
      <point x="1018" y="1096" type="line"/>
      <point x="1018" y="1288" type="line"/>
      <point x="1329" y="1288" type="line"/>
      <point x="1329" y="1096" type="line"/>
    </contour>
    <contour>
      <point x="1227" y="571" type="line"/>
      <point x="988" y="571" type="line"/>
      <point x="988" y="766" type="line"/>
      <point x="1227" y="766" type="line"/>
    </contour>
    <component base="ddadeva"/>
    <contour>
      <point x="466" y="8" type="move" name="btm"/>
    </contour>
    <contour>
      <point x="643" y="1288" type="move" name="top"/>
    </contour>
  </outline>
</glyph>
<glyph name="cadeva" format="1">
  <advance width="1350"/>
  <unicode hex="091A"/>
  <outline>
    <contour>
      <point x="21" y="669" type="line"/>
      <point x="21" y="873" type="line"/>
      <point x="760" y="873" type="line"/>
      <point x="760" y="669" type="line"/>
    </contour>
    <contour>
      <point x="-30" y="1096" type="line"/>
      <point x="-30" y="1288" type="line"/>
      <point x="1380" y="1288" type="line"/>
      <point x="1380" y="1096" type="line"/>
    </contour>
    <contour>
      <point x="891" y="1132" type="line"/>
      <point x="1153" y="1132" type="line"/>
      <point x="1153" y="0" type="line"/>
      <point x="891" y="0" type="line"/>
    </contour>
    <contour>
      <point x="940" y="226" type="line"/>
      <point x="898" y="194"/>
      <point x="746" y="153"/>
      <point x="653" y="153" type="qcurve" smooth="yes"/>
      <point x="470" y="153"/>
      <point x="219" y="353"/>
      <point x="219" y="530" type="qcurve" smooth="yes"/>
      <point x="219" y="664"/>
      <point x="410" y="861"/>
      <point x="662" y="861" type="qcurve"/>
      <point x="676" y="668" type="line"/>
      <point x="575" y="668"/>
      <point x="491" y="578"/>
      <point x="491" y="516" type="qcurve" smooth="yes"/>
      <point x="491" y="444"/>
      <point x="591" y="368"/>
      <point x="665" y="367" type="qcurve" smooth="yes"/>
      <point x="741" y="366"/>
      <point x="896" y="435"/>
      <point x="940" y="491" type="qcurve"/>
    </contour>
    <contour>
      <point x="898.0" y="1288.0" type="move" name="top"/>
    </contour>
  </outline>
</glyph>
<glyph name="jhadeva" format="1">
  <advance width="1665"/>
  <unicode hex="091D"/>
  <outline>
    <contour>
      <point x="876" y="507" type="line"/>
      <point x="1331" y="507" type="line"/>
      <point x="1331" y="302" type="line"/>
      <point x="819" y="302" type="line"/>
    </contour>
    <component base="ideva"/>
    <component base="aavowelsigndeva" xOffset="1066"/>
    <contour>
      <point x="1215.0" y="1288.0" type="move" name="top"/>
    </contour>
  </outline>
</glyph>
<glyph name="nyadeva" format="1">
  <advance width="1514"/>
  <unicode hex="091E"/>
  <outline>
    <contour>
      <point x="748" y="690" type="line"/>
      <point x="1146" y="690" type="line"/>
      <point x="1146" y="475" type="line"/>
      <point x="748" y="475" type="line"/>
    </contour>
    <contour>
      <point x="-30" y="1096" type="line"/>
      <point x="-30" y="1288" type="line"/>
      <point x="1544" y="1288" type="line"/>
      <point x="1544" y="1096" type="line"/>
    </contour>
    <contour>
      <point x="1056" y="1134" type="line"/>
      <point x="1319" y="1134" type="line"/>
      <point x="1319" y="0" type="line"/>
      <point x="1056" y="0" type="line"/>
    </contour>
    <contour>
      <point x="819" y="549" type="qcurve" smooth="yes"/>
      <point x="819" y="367"/>
      <point x="584" y="152"/>
      <point x="413" y="152" type="qcurve" smooth="yes"/>
      <point x="308" y="152"/>
      <point x="129" y="200"/>
      <point x="45" y="247" type="qcurve"/>
      <point x="90" y="451" type="line"/>
      <point x="184" y="407"/>
      <point x="298" y="374"/>
      <point x="363" y="374" type="qcurve" smooth="yes"/>
      <point x="445" y="374"/>
      <point x="557" y="472"/>
      <point x="557" y="562" type="qcurve" smooth="yes"/>
      <point x="557" y="642"/>
      <point x="451" y="742"/>
      <point x="362" y="742" type="qcurve" smooth="yes"/>
      <point x="299" y="742"/>
      <point x="205" y="717"/>
      <point x="160" y="696" type="qcurve"/>
      <point x="115" y="892" type="line"/>
      <point x="166" y="916"/>
      <point x="305" y="953"/>
      <point x="384" y="953" type="qcurve" smooth="yes"/>
      <point x="576" y="953"/>
      <point x="819" y="728"/>
    </contour>
    <contour>
      <point x="1063" y="1288" type="move" name="top"/>
    </contour>
  </outline>
</glyph>
<glyph name="ttadeva" format="1">
  <advance width="1075"/>
  <unicode hex="091F"/>
  <outline>
    <contour>
      <point x="1105" y="1096" type="line"/>
      <point x="-30" y="1096" type="line"/>
      <point x="-30" y="1288" type="line"/>
      <point x="1105" y="1288" type="line"/>
    </contour>
    <contour>
      <point x="73" y="491" type="qcurve" smooth="yes"/>
      <point x="75" y="684"/>
      <point x="334" y="901"/>
      <point x="562" y="901" type="qcurve" smooth="yes"/>
      <point x="689" y="901" type="line"/>
      <point x="617" y="851" type="line"/>
      <point x="617" y="1131" type="line"/>
      <point x="879" y="1131" type="line"/>
      <point x="879" y="694" type="line"/>
      <point x="609" y="694" type="line"/>
      <point x="482" y="694"/>
      <point x="346" y="576"/>
      <point x="346" y="480" type="qcurve" smooth="yes"/>
      <point x="346" y="380"/>
      <point x="506" y="270"/>
      <point x="636" y="269" type="qcurve" smooth="yes"/>
      <point x="715" y="268"/>
      <point x="838" y="290"/>
      <point x="905" y="310" type="qcurve"/>
      <point x="932" y="93" type="line"/>
      <point x="866" y="71"/>
      <point x="730" y="48"/>
      <point x="638" y="48" type="qcurve" smooth="yes"/>
      <point x="382" y="48"/>
      <point x="72" y="287"/>
    </contour>
    <contour>
      <point x="475" y="17" type="move" name="btm"/>
    </contour>
    <contour>
      <point x="585" y="1288" type="move" name="top"/>
    </contour>
  </outline>
</glyph>
<glyph name="tthadeva" format="1">
  <advance width="1227"/>
  <unicode hex="0920"/>
  <outline>
    <contour>
      <point x="1257" y="1096" type="line"/>
      <point x="-30" y="1096" type="line"/>
      <point x="-30" y="1288" type="line"/>
      <point x="1257" y="1288" type="line"/>
    </contour>
    <contour>
      <point x="899" y="696" type="line"/>
      <point x="631" y="696" type="line"/>
      <point x="477" y="696"/>
      <point x="323" y="574"/>
      <point x="323" y="476" type="qcurve" smooth="yes"/>
      <point x="323" y="366"/>
      <point x="475" y="246"/>
      <point x="587" y="246" type="qcurve" smooth="yes"/>
      <point x="713" y="246"/>
      <point x="866" y="371"/>
      <point x="866" y="478" type="qcurve" smooth="yes"/>
      <point x="866" y="563"/>
      <point x="787" y="692"/>
      <point x="716" y="718" type="qcurve"/>
      <point x="928" y="861" type="line"/>
      <point x="1019" y="800"/>
      <point x="1122" y="596"/>
      <point x="1123" y="467" type="qcurve" smooth="yes"/>
      <point x="1123" y="277"/>
      <point x="849" y="35"/>
      <point x="610" y="34" type="qcurve" smooth="yes"/>
      <point x="355" y="33"/>
      <point x="55" y="287"/>
      <point x="55" y="494" type="qcurve" smooth="yes"/>
      <point x="55" y="675"/>
      <point x="350" y="899"/>
      <point x="587" y="899" type="qcurve" smooth="yes"/>
      <point x="830" y="899" type="line"/>
      <point x="769" y="836" type="line"/>
      <point x="769" y="1137" type="line"/>
      <point x="1032" y="1137" type="line"/>
      <point x="1032" y="696" type="line"/>
    </contour>
    <contour>
      <point x="500" y="17" type="move" name="btm"/>
    </contour>
    <contour>
      <point x="705" y="1288" type="move" name="top"/>
    </contour>
  </outline>
</glyph>
